<svg xmlns="http://www.w3.org/2000/svg" viewBox="-127 203.2 600.1 152.6">
  <path fill="#474c55" d="M74.7 299.8l10-5.3c4.5 8.8 11.4 13.1 20.7 13.1 9.1 0 15.3-2.9 15.3-9.8 0-6.5-4.7-9.5-17-13.2-14.5-4.3-26.2-8.2-26.2-22.5 0-12.8 10.4-21.2 25.7-21.2 14.8 0 23.5 7.3 28.1 16.2l-9.2 6.4c-4.5-7.5-10.8-11-19-11-8.3 0-13.1 3-13.1 8.5 0 7 5.4 9.3 17.6 13 14.2 4.2 25.5 8.8 25.5 23 0 12.3-10.4 21.9-28.3 21.9-14.8 0-25.4-7.7-30.1-19.1m64.2 4.7c0-11.7 9.9-19.5 35.1-22.3v-1.6c0-5.4-2.8-7.7-8.8-7.7-7.5 0-13.6 3.7-18.1 7.3l-6.1-7.8c5.8-5.3 14.8-9.8 26-9.8 14.4 0 19.4 6.9 19.4 19.5v22.2c0 6.5.4 10.5 1.5 13.2h-12.6c-.7-2.2-1.2-3.9-1.2-6.9-5.5 5.6-11.9 7.7-19.9 7.7-8.8 0-15.3-4.9-15.3-13.8m35.1-2.1v-11.9c-14.9 2-22.8 5.7-22.8 11.6 0 4.3 2.9 6.5 7.5 6.5 6.4 0 11.4-2.4 15.3-6.2m29.6 15.1v-44h-9.3v-10h9.3V258c0-9 3.8-16 17.4-16 2.3 0 6.5.4 7.4.5v9.7c-.8-.2-2.8-.4-4.3-.4-4.5 0-8.1 1.2-8.1 7v4.8h11.8v10H216v44h-12.4zm28.7-27c0-20.5 14.5-28 25.6-28 12.1 0 23.6 7.2 23.6 29.2v2.9h-36.8c.5 9.8 6.5 14 14.4 14 7 0 11.1-2.3 15.1-6.3l6.6 6.5c-5.6 6.2-13 9.8-22.6 9.8-13.4 0-25.9-8.2-25.9-28.1m37.8-5.2c-.7-8.2-4.8-12.6-12.3-12.6-6.1 0-11.7 3.5-12.9 12.6h25.2z"/>
  <path fill="#878a8f" d="M292.7 317.5v-75.2h9v38.8l33.9-38.8h10.8l-25.8 28.6 29.3 46.6h-10.2l-25-39.8-13 14.4v25.4zm59.8-26.9c0-19.5 13-27.9 24.2-27.9 12.7 0 22.3 8.9 22.3 28.3v1.8h-37.8c.3 12.1 7.3 18.6 16.1 18.6 7.7 0 12.1-3.1 16.1-8.7l5.1 4.5c-5 7.1-11.8 11.4-21.8 11.4-12.7 0-24.2-9.3-24.2-28m38.2-4.5c-.7-9.5-5.3-16-14.1-16-7.2 0-14 5-15.2 16h29.3zm12.3 50.7l2-7c1.5.4 4.2.9 7.9.9 5.5 0 8.1-2.3 10.2-7.6l2-5.3-20.7-53.9h9.2l15.7 43.4h.2l15.7-43.4h8.8l-22.9 59.7c-3.7 9.4-7.8 14.5-18.2 14.5-4.7 0-7.6-.6-9.9-1.3m54.1-65.3c0-4.6 3.5-8.1 8.1-8.1 4.5 0 7.9 3.5 7.9 8 0 4.6-3.5 8.1-8.1 8.1-4.5 0-7.9-3.5-7.9-8m14.3 0c0-3.7-2.7-6.6-6.4-6.6-3.6 0-6.3 2.8-6.3 6.5s2.7 6.5 6.4 6.5c3.6 0 6.3-2.7 6.3-6.4m-9.5-4.6h3.4c2.1 0 3.4.9 3.4 2.9 0 1.4-.6 2.1-1.6 2.5l1.7 3.3h-2.2l-1.6-3.1h-1v3.1h-2.1v-8.7zm3.2 4.1c.9 0 1.5-.3 1.5-1.1s-.5-1.1-1.5-1.1H464v2.2h1.1z"/>
  <path fill="#fff" d="M25.5 355.8h-152.4V203.4H25.5v75.7z"/>
  <path fill="#0079c2" d="M-30 311.6l-3.7-4.6v4.6h-10.9V305c-1.4.4-3 .7-4.8.7h-1.7v5.8h-16l-2.7-3.8-2.6 3.8h-26.3v-26h26.3l2.7 3.8 2.7-3.8h92.5v-82.3h-152.4v60.2l5.1-11.9h10.4l3 6.7v-6.7h12.7l1.9 5.7 1.9-5.7h56v2.6c2.2-1.8 4.9-2.6 8-2.6h17l3 6.7v-6.7h10l3.3 5.3v-5.3h11.4v26H6.2L3 272.4v5.1h-15.5l-1.5-3.9h-3.6l-1.5 3.9h-9.1c-2.5 0-5.4-.5-7.7-2.4v2.4h-15.3l-3.7-4.6v4.6h-58.3l-1.5-3.9h-3.6l-1.5 3.9h-7.2v78.1H25.5V310c-1.6 1-3.6 1.6-5.8 1.6H-30z"/>
  <path fill="#0d79bf" d="M25.5 289.7v-.1h-9.2c-3.9 0-6.2 2.4-6.2 5.6 0 3.4 2.2 5.3 5.6 5.3h4.1c1 0 1.8.6 1.8 1.6s-.7 1.6-1.8 1.6h-9.2v3.8h9.1c3 0 5-1.4 5.8-3.6.2-.6.4-1.3.4-2.1s-.1-1.6-.4-2.2c-.8-1.9-2.6-3-5.2-3h-4.2c-1 0-1.7-.7-1.7-1.6 0-1 .7-1.6 1.7-1.6h7.7l1.7-3.7zm-27.6 5.4c0-1 .7-1.6 1.7-1.6h7.7l1.7-3.8H-.3c-3.9 0-6.2 2.4-6.2 5.6 0 3.4 2.2 5.3 5.6 5.3h4.1c1 0 1.8.6 1.8 1.6s-.7 1.6-1.8 1.6H-6v3.8h9.1c3.9 0 6.2-2.4 6.2-5.7s-2.1-5.2-5.6-5.2H-.5c-.9 0-1.6-.6-1.6-1.6m-20.6 12.5h14.4v-3.8h-10.1v-3.3h9.8v-3.7h-9.8v-3.2h10.1v-3.8h-14.4v17.8zm-1 0l-6-6.6c3-.6 4.9-2.8 4.9-5.7 0-3.4-2.4-5.7-6.2-5.7h-9.8v18h4.3v-6.4h2l5.3 6.4h5.5zm-7.7-10.2h-5v-4h5c1.5 0 2.3.9 2.3 2-.1 1.2-.8 2-2.3 2m-11.7-1.8c0-3.6-2.4-6-6.2-6h-9.9v18h4.3v-5.9h5.4c4 0 6.4-2.6 6.4-6.1m-4.4.1c0 1.2-.8 2.2-2.3 2.2H-55v-4.4h5.2c1.6 0 2.3.9 2.3 2.2M-60 307.6l-7.2-9.1 7.2-8.9h-5.3l-4.4 5.7-4.4-5.7h-5.4l7.2 9-7.2 9h5.3l4.4-5.8 4.4 5.8h5.4zm-34.6 0h14.4v-3.8h-10.1v-3.3h9.8v-3.7h-9.8v-3.2h10.1v-3.8h-14.4v17.8zm107.3-33.9v-18H8.5v9.5l.1 2.2h-.1l-1.2-2-6.3-9.7h-5.3v18h4.2v-10l-.1-2.1h.1l1.2 2 6.6 10.1h5zm-22.8 0h4.9l-7.7-18h-5.7l-7.7 18h4.6l1.5-3.8h8.5l1.6 3.8zm-3-7.3h-5.7l1.7-4.2 1.1-2.8h.1l1.1 2.8 1.7 4.2zm-15-6.8h4.7v-3.9h-5c-5.6 0-8.6 3.7-8.6 8.8v.3c0 5.4 3.1 8.8 8.3 8.8h.3l1.8-3.8h-1.3c-2.9 0-4.7-1.8-4.7-5v-.3c-.1-2.8 1.4-4.9 4.5-4.9m-15.8 14.1h4.3v-18h-4.3v18zm-1.1 0l-6-6.6c3-.6 4.9-2.8 4.9-5.7 0-3.4-2.4-5.7-6.2-5.7h-9.8v18h4.3v-6.4h2l5.3 6.4h5.5zm-7.7-10.2h-5v-4h5c1.5 0 2.3.9 2.3 2-.1 1.1-.8 2-2.3 2m-26.7 10.2H-65v-3.8h-10v-3.3h9.8v-3.7H-75v-3.2h10v-3.8h-14.4v17.8zm-7.5 0h4.2v-18h-7l-3.5 10.4-.6 2h-.1l-.6-2-3.5-10.4h-7v18h4.2v-11.8l-.1-2.7h.1l.9 2.7 4.1 11.8h3.9l4.1-11.8.9-2.7h.1l-.1 2.7v11.8zm-23.8 0h4.9l-7.7-18h-5.7l-7.7 18h4.6l1.5-3.8h8.5l1.6 3.8zm-2.9-7.3h-5.7l1.7-4.2 1.1-2.8h.1l1.1 2.8 1.7 4.2z"/>
</svg>