<svg id="Layer_1" data-name="Layer 1" xmlns="http://www.w3.org/2000/svg" viewBox="0 0 198 198">
  <defs>
    <style>
      .cls-1 {
        fill: #fff;
      }

      .cls-2 {
        fill: #1a1f71;
      }
    </style>
  </defs>
  <title>visa-secure_blu_RGB</title>
  <rect class="cls-1" x="-0.00006" width="197.99817" height="197.99817"/>
  <rect class="cls-2" x="-0.00006" y="98.99908" width="197.99817" height="98.99908"/>
  <path class="cls-2" d="M78.27621,27.68139l-18.637,44.461H47.48132L38.30944,36.65928c-.55568-2.18169-1.04043-2.98381-2.73142-3.90569a48.11656,48.11656,0,0,0-11.34693-3.782l.27132-1.29023H44.07532a5.36483,5.36483,0,0,1,5.30636,4.53051l4.84477,25.72977L66.19223,27.68139ZM125.91456,57.627c.05064-11.73334-16.21995-12.384-16.11194-17.62658.03551-1.59318,1.55439-3.29014,4.87735-3.72381a21.71542,21.71542,0,0,1,11.34433,1.9897l2.015-9.43223a31.00835,31.00835,0,0,0-10.75875-1.96481c-11.37129,0-19.37071,6.03961-19.43483,14.696-.07258,6.40123,5.71429,9.9702,10.06507,12.1017,4.48576,2.17867,5.98942,3.57692,5.96747,5.52359-.03119,2.983-3.57778,4.30352-6.8788,4.35329A24.03641,24.03641,0,0,1,95.186,60.73393l-2.0876,9.74692A34.95232,34.95232,0,0,0,105.8856,72.8402c12.08865,0,19.99353-5.96919,20.029-15.21322m30.02828,14.51539h10.63553l-9.29215-44.461h-9.81113a5.23471,5.23471,0,0,0-4.90007,3.25928L125.3155,72.14237h12.08009l2.39815-6.64006h14.75509ZM143.10323,56.39075l6.05526-16.6971,3.48333,16.6971ZM94.71175,27.68139l-9.50991,44.461H73.6993l9.51077-44.461Z"/>
  <g>
    <path class="cls-1" d="M46.12549,153.83008a11.23442,11.23442,0,0,0,5.42969,1.43262c2.59814,0,4.06347-1.23243,4.06347-3.06446,0-1.69922-1.13232-2.69824-3.96386-3.73047-3.73047-1.2998-6.09571-3.29785-6.09571-6.49609,0-3.69727,3.06446-6.46191,7.96143-6.46191a12.21185,12.21185,0,0,1,5.36279,1.09961l-.96582,3.33105a9.78046,9.78046,0,0,0-4.49707-1.06641c-2.59814,0-3.69727,1.36621-3.69727,2.69825,0,1.73242,1.29883,2.53125,4.29688,3.66406,3.89746,1.499,5.76269,3.46484,5.76269,6.66211,0,3.63086-2.73144,6.72851-8.49414,6.72851a13.3832,13.3832,0,0,1-6.0957-1.39843Z"/>
    <path class="cls-1" d="M75.708,148.334H67.24707v6.59571h9.46045V158.294H63.15039V135.84277H76.20752V139.207H67.24707v5.7959H75.708Z"/>
    <path class="cls-1" d="M96.064,157.62793a14.86522,14.86522,0,0,1-5.8291.999c-7.12841,0-11.45849-4.46386-11.45849-11.292,0-7.39453,5.16308-11.82519,12.0249-11.82519a12.854,12.854,0,0,1,5.4292.96582l-.86572,3.26464a11.044,11.044,0,0,0-4.397-.86621c-4.56347,0-7.86132,2.86524-7.86132,8.26075,0,4.93066,2.86474,8.06152,7.82763,8.06152a12.42338,12.42338,0,0,0,4.46387-.79981Z"/>
    <path class="cls-1" d="M103.2959,135.84277v13.09082c0,4.39746,1.832,6.42871,4.59668,6.42871,2.96484,0,4.73047-2.03125,4.73047-6.42871V135.84277h4.09668V148.667c0,6.92871-3.56348,9.99317-8.96,9.99317-5.19727,0-8.561-2.89746-8.561-9.959v-12.8584Z"/>
    <path class="cls-1" d="M121.08789,136.17578a35.22135,35.22135,0,0,1,6.19531-.499c3.23047,0,5.39649.53222,6.92774,1.79883a5.70292,5.70292,0,0,1,1.93164,4.53027,5.89719,5.89719,0,0,1-4.0957,5.5957v.09961c1.63085.59961,2.59765,2.165,3.13085,4.33008a56.66726,56.66726,0,0,0,1.76563,6.2627h-4.19727a28.51025,28.51025,0,0,1-1.5-5.2959c-.666-2.93164-1.69824-3.86426-4.02929-3.93067h-2.06641V158.294h-4.0625Zm4.0625,9.89356H127.582c2.76563,0,4.46485-1.46582,4.46485-3.69727,0-2.43164-1.69922-3.59766-4.36426-3.59766a11.73709,11.73709,0,0,0-2.53223.2002Z"/>
    <path class="cls-1" d="M152.26855,148.334h-8.46093v6.59571h9.46V158.294H139.71094V135.84277h13.05664V139.207h-8.96v5.7959h8.46093Z"/>
  </g>
</svg>
