<svg xmlns="http://www.w3.org/2000/svg" viewBox="0 0 32 24">
  <mask id="a">
    <rect width="32" height="24" fill="white" rx="4"/>
  </mask>
  <g mask="url(#a)">
    <path fill="#008F42" d="M0 0h3v24H0z"/>
    <path fill="#00AB47" d="M3 0h3v24H3z"/>
    <path fill="#52C638" d="M6 0h3v24H6z"/>
    <path fill="#96C65A" d="M9 0h3v24H9z"/>
    <path fill="#00C4B5" d="M12 0h3v24h-3z"/>
    <path fill="#00A2DC" d="M15 0h2v24h-2z"/>
    <path fill="#0A6CB8" d="M17 0h3v24h-3z"/>
    <path fill="#46597D" d="M20 0h3v24h-3z"/>
    <path fill="#FF001A" d="M23 0h3v24h-3z"/>
    <path fill="#FF6B00" d="M26 0h3v24h-3z"/>
    <path fill="#F7C000" d="M29 0h3v24h-3z"/>
    <path fill="#fff" fill-rule="evenodd" d="M14.500124 10.125h.999949v2.62497925c0 1.24174255-1.00819895 2.2499815-2.2498865 2.2499815-1.24168755 0-2.2498865-1.00823895-2.2498865-2.2499815V10.125h.999949v2.62497925c0 .75887045.56009664 1.37499175 1.2499375 1.37499175.68984086 0 1.2499375-.6161213 1.2499375-1.37499175V10.125zM20.005524 14.875h.999949v-2.62500025c0-1.24175248-1.00819895-2.2499995-2.2498865-2.2499995-1.24168755 0-2.2498865 1.00824702-2.2498865 2.2499995V14.875h.999949v-2.62500025c0-.75887652.56009664-1.37500275 1.2499375-1.37500275.68984086 0 1.2499375.61612623 1.2499375 1.37500275V14.875zM5.87495475 14.87495875H5v-2.2499965h.00375347C5.0012536 12.5835875 5 12.54183775 5 12.499963V8h.999949v2.500355c.4174775-.31412312.93745438-.500372 1.499926-.500372 1.37993172 0 2.499875 1.12024328 2.499875 2.49998 0 1.37975172-1.11994328 2.499995-2.499875 2.499995-.59747141 0-1.14619312-.21014874-1.57617054-.56039664l-.04874971.43539739zm1.56242063-3.999981c.86245982 0 1.56242562.72812063 1.56242562 1.62498525 0 .89685462-.6999658 1.62500025-1.56242562 1.62500025-.86245483 0-1.56242063-.72814563-1.56242063-1.62500025 0-.89686462.6999658-1.62498525 1.56242063-1.62498525zM26.12504525 10.12504125H27v2.2499965h-.00375347C26.9987464 12.4164125 27 12.45816225 27 12.500037V17h-.999949v-2.500355c-.4174775.31412312-.93745438.500372-1.499926.500372-1.37993172 0-2.499875-1.12024328-2.499875-2.49998 0-1.37975172 1.11994328-2.499995 2.499875-2.499995.59747141 0 1.14619312.21014874 1.57617054.56039664l.04874971-.43539739zm-1.56242063 3.999981c-.86245982 0-1.56242562-.72812063-1.56242562-1.62498525 0-.89685462.6999658-1.62500025 1.56242562-1.62500025.86245483 0 1.56242063.72814563 1.56242063 1.62500025 0 .89686462-.6999658 1.62498525-1.56242063 1.62498525z" clip-rule="evenodd"/>
  </g>
</svg>