<svg xmlns="http://www.w3.org/2000/svg" viewBox="0 0 32 24">
  <path fill="#ff5300" d="M28 0H4C1.79086 0 0 1.79086 0 4v16c0 2.2091 1.79086 4 4 4h24c2.2091 0 4-1.7909 4-4V4c0-2.20914-1.7909-4-4-4z"/>
  <path fill="#fff" fill-rule="evenodd" d="M11.2404 23.42c.07385-.2263 0-.3772.07385-.6047 0-.1508.00001-.5286.07558-.755-.14943-.0766-.45059.0755-.67159.0755-.22386 0-.74487 0-.74487.0754.07385.1521.07385.3024.14771.4533.07443.1508.14829.3017.14829.6813 0 .2263.07615.4538 0 .755 0 0 .97103-.5287.97103-.6808zm-.93464-1.785c.15109-.2226.60262-.6661.75719-.8148-.15457-.1477-.22721-.3703-.30334-.5179-.30276 0-1.44.4429-1.44.4429.2278.3708.38005.7422.53114 1.185.15225-.0738.30276-.1476.45501-.2952zm2.85554.3796h-.44811s-.14881.5792-.14881 1.0143c-.07382.2181-.15051.3628-.15051.4351-.1488.2899-.22263.3623-.37029.7251.22149.0723.44698-.0724.59463-.0724.1488-.0723.37259-.1458.44929-.217.0738-.0734.2976-.5815.3725-.725v-.5074c-.0749-.1458 0-.4357 0-.6527-.0749-.1458-.2249-.0735-.2987 0zm-3.71156-1.6037s.23488-.1461.23488-.2956c.39205-.4421.8624-.8124.9425-.8836-.15899-.3714-.23668-.445-.47276-.6658-.07769.0736-.46974.2944-.54984.4427-.15478.0736-.31256.1472-.39387.2231 0 .1472.08131.2196.15779.3679 0 .1472.0813.5157.0813.8113zm5.93866 2.5693c0-.0732-.2366-.0732-.392-.0732-.1583 0-.3124.0732-.4726.0732-.1565.2176-.2342.434-.3124.7236-.0777.217-.2354.3612-.3155.5055 0 0 .708-.1443.8645-.1443.236-.1442.3914-.2175.5491-.5066.0789-.2175.1583-.2885.0789-.5782zm.7743 1.9108c.224-.0736.371-.222.5955-.2956.147-.0736.2975-1.2543.2975-1.2543s-.4456.0724-.522.1472c-.0747 0-.371 0-.5186.1472 0 .2215 0 .4423-.0735.7379-.1493.222-.5203.3692-.5203.7385 0 0 .2975.0741.371.0741.1493-.0741.2969-.2214.3704-.295zm-7.38788-8.5254v.3651c0 .1472.07927.9521.07927 1.1711.07689.2202.07689.4393.15259.6589.08107.1461.15796.2921.15796.4393 0 0 .15616-.0719.23186-.2202.23366-.2191.31293-.4387.46791-.7308-.07809-.5123-.23425-.9521-.23425-1.0981 0-.5853.07927-.7325.15616-1.0982-.30935.1455-.69857.3657-1.0115.5129zm3.45018 2.494c-.0719-.1469-.28982-.2203-.43417-.2937-.14602 0-.29204.2937-.29204.5885 0 .1468.07412.6636.14602.8839 0 .0734.14602.148.29037.2225.21792.1457.43472.2191.6532.3671 0 0-.21848-.6619-.29037-1.0307-.07301-.2203.07189-.5162-.07301-.7376zm1.6944 2.3109c.077-.3021.3034-.4528.3034-.9817 0 0-.0747-.378-.1494-.5294-.077-.1507-.154-.3015-.3792-.4523-.0764 0-.2257-.1531-.3004-.0777 0 0-.077.6054-.1517.6814.1517.2261.3022.378.3757.6042.0764.2273.1511.5288.3016.7555zm2.053 1.1938c.231-.2246 0-.5981 0-.8216-.0792-.2246 0-.4486-.0792-.6732-.0768-.149-.234-.2234-.3876-.2234-.1554 0-.5431-.2247-.5431-.0757-.3882 0-.0768.3736-.0768.5976 0 .2991.7735 1.0462.7735 1.0462.1572.0745.1572 0 .3132.1501zm-7.37023-6.2945c.15542-.2261.61989-.6783.84945-.9814.1572-.15031.46685-.52674 1.23859-.90377.07712-.30186.15483-.52737.15483-.82804-.77353.22551-1.31511.37703-1.46756.52618-.38736.22669-.54337.37821-.92954.6049 0 .45042 0 .45042.07652.67713l.07771.905zm11.83123 8.356c-.2346-.1443-.6239-.5784-.8549-.7955-.1583-.1443-.0812-.3608-.2365-.5063-.154 0-.3116 0-.4662.0722-.2347 0-.3887 0-.6216.0733.0771.1432.0771.2886.2329.3608.3104.2892.3104.3625.6215.7955.0794.1454.4699.2176.7791.2176.1576 0 .4663-.1443.5457-.2176zm-2.9433-4.1235c-.3161.0721-.9441.1443-.9441.3618-.0789.2163 0 .4332 0 .5786.0806.1443.0806.2885.0806.506 0 .1442-.0806.2896 0 .5071.0789-.1454.4709-.2896.5474-.435.1583-.2163.3161-.3606.3938-.5781.0789-.2169 0-.5786-.0777-.9404zm.933-.0666c-.2323.1492-.3868.2239-.3868.3731 0 .2997.0761.5988.0761.7492 0 .225 0 .3743.0784.4489.2323.0746.3119.0746.6232.2239 0 .0758.3119.225.3119.225s-.1545-.6728-.2335-.9736v-1.1969c-.3125.0746-.3897.1504-.4693.1504zm-8.83281-7.02562c.07391-.07306.89662-.65408.96938-.72657.14953-.14497.22459-.07249.2962-.21746 0-.43662.1524-.43662.07735-.58045-.07735-.14725-.67147 0-.82157 0-.3724.07135-1.04501.28823-1.04501.43434-.0739.2186-.0739.726-.0739.80076.0739.21632.0739.43549.14666.65294.22745-.21745.29907-.28994.45089-.36356zM21.401 23.6312c.301.2161.9013.1439 1.4295.0722-.3033-.2178-.3771-.3634-.5282-.5067-.2266-.1456-.3743-.2179-.6758-.5068h-.9752c.1482.3612.2215.579.7497.9413zm-2.9529-4.8126c.1537-.1444.305-.4326.305-.506.1549-.2888.1549-.6509.1549-.9408-.6106-.3628-1.3761-.4338-2.1405-.4338-.6886 0-1.4535.071-2.2179.5793.0781.2899.1525.5065.3068.7953.0757 0 .1525.1456.227.1456.1537-.1456.308-.3622.535-.4344v.2888c0 .2172 0 .3616.0792.5805 0 .2154.2293.2154.5338.2154.305 0 .3836-.5065.3836-.5787 0 0 .0769.2888.5332.5065 0 0 .535 0 .535-.0722.078-.3621.1554-.4343.078-.7237 0 0 .4593.2894.6869.5782zm2.4211 2.8185c-.3119-.4506-.3891-.9007-.3891-.9756-.1556-.151.1545-.6753-.2353-.6753-.1538-.0773-.622-.2265-.622-.2265-.0814.2265-.0814.6759 0 .9018 0 .2247.3874.9019.5442.9756.0778.0761.4676.0761.5484.0761.076-.0761.1538-.0761.1538-.0761zM9.14438 11.83721c.1552-.21927.1552-.21927.30921-.36854.31099-.22042.46618-.36853.85122-.66359.07641-.14811.15401-.07348.38562-.22043.07701-.0729.15461-.14753.15461-.221 0-.14696-.0776-.29506-.15461-.44086-.0776-.14811-.23161-.51664-.23161-.59127 0-.58839.07878-.73534.15401-1.25198-.30802-.07348-.69305-.07348-.84825.22158-.15402.22158-.15402.44201-.15402.66475 0 .36565.07642.66186.15402 1.10272-.31099.22274-.465.36853-.77184.51606.07641.44201.15164 1.25256.15164 1.25256zM24.4649 22.5973c-.1494-.1497-.2982-.2989-.5229-.4498-.3016-.0749-.4487-.2258-.6015-.5253-.0742-.1498-.1483-.3007-.2994-.4517-.1471 0-.2223.0761-.3717.151-.1511.1509-.4522.1509-.6016.3755.0741.1498.1494.3007.2999.4505.0764.0748.1506.2258.4511.3749.5217.2995.6745.3744.6745.3744.4487.0761.9716-.2995.9716-.2995zm-3.7046-3.2717s.073.3741.2237.7465c.0765.1499.2249.2986.3019.2986.1473.0743.4498.1487.6729.1487v-.1487c-.2231-.2243-.5256-.7454-.5256-.8952-.1473-.0732-.1473-.0732-.3727-.0732-.0765-.0767-.2272-.0767-.3002-.0767zm4.7401 2.2044h.376c.1519 0 .1519-.2879 0-.2879-.5279-.1451-.9784-.2885-1.2794-.7227-.0745.0731-.5279.2159-.6769.361 0 0 .149.3617.5256.7227.2247.216.6792.072 1.0547-.0731zm-3.3236-2.4488c.2268.2995.4519.5224.6765.7458.0729.1497.298.1497.4462.1497h.7494c.2252-.0766.3745-.0766.525-.2246-.2998-.1485-.6731-.2983-.9746-.448-.2998-.1486-.5226-.2971-.746-.5212-.1516 0-.2246.0743-.3021.0743-.1476.0767-.224.1498-.3744.224zm-7.954-3.5937s.3002-.0689.5276-.0689c.1521 0 .3026 0 .453.0689-.077.0689-.3784.2068-.3784.2068-.1481.0689-.225.1373-.4524.2062-.0746-.1373-.1498-.413-.1498-.413zm-.0485-1.57994c.1488-.2201.4512-.36683.6754-.4402.2989-.07337.2225-.66204.2225-.7354.0764-.14789 0-.368 0-.51589-.1483.07453-.1483 0-.4467.07453-.3024 0-.4512-.14789-.5995-.29578-.153-.14616-.5255-.44078-.6749-.7331.3725-.07567.6749-.07567 1.0485-.07567h.9744c.2224.07567.3742.22241.3742.36799 0 .07336-.0742.5153-.0742.58867-.0776.44136-.0776.58924-.1506 1.25128v.2201c-.0753.14789-.3748.22126-.5242.36799-.0753.22011-.0753.36799-.3007.44136-.2259.07452-.3754.29405-.5242.22068-.2248-.14616-.1483-.5153 0-.73656zm-1.23502-3.80678c-.15557-.14319-.46613-.36082-.62051-.6506-.2298-.28922-.15439-.57786-.15439-.65116.15439-.43411.69593-.57957 1.00762-.65173.1532 0 .3088 0 .5404.14546.31.14432.4655.14432.6193.65059 0 .07444 0 .14433-.0772.14433 0 0-.4655.28921-.6205.43581-.3854.21648-.462.5773-.69472.5773zm2.20212-.04008c.2241-.15342.4453-.30564.5962-.30564.1498-.07611.4464-.15342.4464 0 0 .30564-.2229.45787-.4464.76231-.1509.22774-.2235.07731-.5962.07731h-.3738c0-.22833.1503-.30564.3738-.53398zm3.1233-.35938c.1457 0 1.4018.28346.5903.63639-.1497.14228-.5172.07058-.8875.07058 0-.14006 0-.42351-.1463-.42351-.1502-.14229-.3697-.14229-.3697-.28346-.2977-.28346.4429-.07059.8132 0zm1.5133-1.41226c.2346-.22263.548-.29646.8572-.22263.3892.07382.4662.14764.6226.29645.234.29646.157.88822.077 1.25792-.077.22264-.3104.37145-.5432.37145-.3898-.44411-.779-.74115-1.3234-.88996-.0782-.2953.1582-.59176.3098-.81323zm.502 3.12254c-.0767.14764-.2314.22205-.3848.2988-.0785 0-.1523.14763-.1523.22204-.1564.2238-.3859.2982-.6928.2982-.1552 0-.4621 0-.6162-.2982 0 0 .0756.89579.0756 1.119 0 .07441.0785.07441.0785.07441.3069.0744.3842.37378.537.52259 0 0 .0773.0744.1558.0744.3057.22322.9992.52201.6917.52201 0 .14998-.2296.52259-.3057.52259-.2337-.22263-.6167-.37261-.9266-.52259-.0761-.14881-.1522-.29879-.2307-.44643-.1517-.14998-.229-.14998-.4609-.29879 0-.52142-.0762-.52142-.0762-1.0446 0-.0744-.154-.89579-.154-.89579 0-.0744.2302-.29645.4621-.37319 0 0 1.4624 0 2.1529.07674 0 0-.0749.14881-.1534.14881zm-.903 4.5496c-.3018-.0786-.5273-.3152-.9048-.3152 0-.2347 0-.2347.0769-.3146.4527-.0787.6788.0799.9037.1585 0 .0787-.0758.4713-.0758.4713zm-4.927 1.0604c.2282 0 .4557-.2214.6827-.2967.4522-.1484.8325-.2968 1.2847-.3709.1538-.0766.1538-.2238.1538-.3733.0761-.1478.0761-.1478.0761-.3703 0-.0742-.3036-.1484-.4557-.4475-.151-.22368 0-.44623-.0761-.44623-.2252.14837-.5306.29673-.6043 0-.076-.22196-.076-.52103.1521-.59522.7541-.29673 1.5883-.29673 2.347 0 .1498 0 .2259.14954.2259.2979.0748.14837 0 .29732-.1521.44569-.227.07418-.4558-.22255-.4558 0 0 .22256-.1497.52166-.5294.67116-.0737.0742 0 .2967.0778.5199 0 .0741 0 .2213.0749.2213.303.0766.7587.1507.9846.2991.3012.1484.8307.5935.9079.5205.2258-.1484.3007-.3721.4545-.5205.8313.3721 1.5117.5935 2.5729 1.2652.1509 0 .1509-.2979.1509-.4474-.3802-.2243-1.5163-.8178-1.6655-.8931-.3019-.0731-.4528-.2238-.7576-.2968v-.594c.5306.1483 1.5872.2225 2.6507.8177.0737-.2237.227-.372.1509-.4474-1.2144-.594-2.1177-.8178-2.8765-.8178 0-.0753-.1532-.1495 0-.22368.227-.14837.3025-.22255.3797-.29673.2258-.29732.3791-.59522.4528-.89195.2264-.44627.4534-.2979.6061-1.26521-.2276 0-.3048.14837-.5306.22372.0737-.22372.1509-.44627.1509-.66999.0749-.44685.227-.74358.227-1.2652.2276-.07535.6066-.29732.6815-.59405 0-.07535 0-.2979.0767-.5958 0-.44569.0737-.81777-.0767-1.11567 0-.07418-.5288-.81777-.9085-1.04032-.5283-.22372-.7564-.14837-1.1349-.07535-.4545 0-1.0612.44627-1.0612 1.2652-.451 0-1.3607.07419-1.8902.52045-.4533-.22371-.8318-.29673-1.2121-.37208h-.6792c-.0749-.2979-.2275-.5958-.5294-.81835-.3774-.22197-.8342-.51987-1.3637-.51987-.22694 0-.45276-.07535-.68032.07535-.22698.1472-.60548.29557-.68037.59288-.15209.37209-.30303.66999-.30303 1.04207 0 .37267.22814.66941.45513 1.04149.07314.14953.15035.14953.30129.22255.07604 0 .37966.14953.45454.22313.07489.07302-.07488.29791-.07488.74534 0 .37092 0 .37092.07488.66823 0 .29791.07489.59464.15094.81719-.22582 0-.3785-.22255-.52944-.07302 0 .14954.15094.52104.30362.81777.37791.37209.75524.74417.98344 1.18985 0 .07419 0 .22255.0737.22255-.5295.0742-1.05714.0742-1.58774.2249-.45454.1484-.98398.3721-1.4362.5946 0 .2973.07373.5211.07373.5211.07604 0 .75699-.3733 1.36247-.5211.9834-.2967 1.51404-.2225 1.51404-.2225.0737.1483.1503.3703.0737.4457-.90737.372-1.8153.8183-2.65009 1.3382.07837.1495 0 .3721.15442.5204.75758-.4462 1.81644-.9661 2.57227-1.264.303-.0742.303 0 .4551 0 .0749.0742.2253.3709.3762.3709zm14.4822 6.5788s-.145-.2892-.145-.3598c-.0719-.1447-.1439-.361-.3625-.4328 0-.0717-.0731.2881-.145.4328-.0742.1435-.0742.0706-.2192.3598.145.2147.2192.3582.3642.5746 0 .0718.2186.3599.2186.3599s.2889-.5763.2889-.7198v-.2147zm-.8717-1.5978c0-.6515-.1581-.6515-.475-.9406 0 0-.2391.4345-.3966.6509.3169.2897.3966.6514.3966.6514.3169-.2896.3169-.2175.475-.3617zm2.9419 2.6142c0-.2213-.077-.4414-.2281-.5893-.0782-.2201-.1541-.5142-.1541-.6621-.0793-.1456-.3839-.5881-.5374-.8082-.1528-.1462-.1528-.5142-.2298-.7355l-.9208.1468c.4616.5887.8461 1.1768 1.0724 1.7661.0782.2207.7697 2.4282.7697 2.4282.2281-.0745-.0782-1.178 0-1.2514.0741-.1467.0741-.2213.2281-.2946zm-5.7217-5.9078c-.0765-.1449-.232-.4352-.3097-.5077-.0759-.1449-.1548-.2898-.2337-.3634-.0754-.0713-.3851 0-.5387 0-.1555 0-.232 0-.3875.0736.1555.1449.3085.6526.3875.6526.0765.1449.0765.2174.2313.2921.3863.0713.6954 0 1.0828.1438.1524-.2185-.1555-.2185-.232-.291zm2.0171 1.6813s-.9261-.5185-1.0813-.7391c-.2309 0-.2309 0-.4625.2206-.1563 0-.2315.0761-.3085.2224.2322.1498.3085.2224.5401.3699.0781.0737.1545.0737.3861 0h.6188c.1516 0 .3073.0737.3073-.0738zm-2.7177-3.3822c.2316 0 .3842.1469.5385.1469 0-.2192-.0783-.3661-.1543-.5876-.0772-.3685-.231-.59-.3094-.8098 0-.2204 0-.3684-.0748-.5153-.076 0-.1544 0-.2304-.0747-.2298 0-.5386-.0746-.5386-.0746 0 .2227.0784.59.0784.8109 0 .0735.3064.7369.383.8104.0772.1481.1532.2215.3076.2938zm7.294 4.8894c-.0758-.2274-.3044-.3044-.4577-.4559 0 0-.9942-.3796-1.1493-.3796-.1533.0752.3837.3796.4595.5311.3061.3044 1.0717.9883 1.0717.9883l.0758-.6839zm-9.3724-9.3006c-.0757.07344-.1538.22147-.1538.29375-.1539.22146-.3811.36892-.2308.59038.0769.29491.0769.58865.3089.81012.2302.22147.5344.14688.8403.36776 0 0-.2302-.95757-.3805-1.39934-.0769-.29317-.2296-.4412-.3841-.66267zm3.0528 2.5001c.1544.5919.3831 1.3318.4603 2.2167 0 .2234-.0772.4444 0 .6667l1.0651.3684s-.1497-.8866-.303-1.92c-.1526-.8861-.2293-1.182-.458-1.55283-.1532.07369-.2287.07369-.3813.07369-.2287.07374-.3831.14734-.3831.14734zm2.5051 4.3143c.153.1463.2283.4395.3048.9528.0758.2938.2288.3669.3794.8064.2294-.1457.61-.0725.61-.0725 0-.367-.2294-.7339-.2294-.8059-.0777-.1486-.3042-.5882-.3806-.7345.0764 0 .3029.2932.6853.2932.0776 0 .3064.072.457 0 0 0 .2271.1475.2271.2927.1523.2206.1523.3669.2311.5875.1483 0 .2271 0 .3024-.0731.3041 0 .4559-.0743.4559-.0743-.0741-.1464-.1518-.2915-.1518-.4401-.0764-.1452-.2265-.5127-.2265-.5127l1.3677-.2195c0-.2218-.0753-.5156-.3053-.6619-.6841.2218-1.4424.2938-1.977.2938-.763 0-1.5218-.1475-2.5871-.5858-.0759.1457 0 .4383 0 .4383.4565.3693.4565.1475.837.5156zM11.26499 7.17983c.53462-.30087 1.44629-.82828 1.74981-1.12797.0782.15103.9916.67725 1.371.90084.3035.22713.6087.30087.9122.45072.1524-.22359.3029-.45072.457-.97576.2282.15102.5323.15102.7594.22476 0 .30028 0 .60115.0782.9032 0 .14867.1517.07374.4564-.0761.4558-.14985.9116-.22595 1.141-.29969.53-.30087.8352-.90202 1.2916-.90202.3817 0 1.0658.22477 1.2187.37461.2276.07669.3805.15044.6093.15044.3035 0 .5317-.30028.7582-.45131-.6829-.44953-1.4416-.90025-2.2045-1.20053-.457.37402-.7616.67489-.9892.67489-.2294 0-.0765-.44953-.0765-.75099-.2282 0-.3811 0-.6076-.07492-.1506.52505-.2294 1.20289-.6087 1.35155-.1518.07611-.2294.07611-.3047.07611v-.60174c0-.07492.3047-.59997.2282-.67489 0 0-.6852.14925-.8358.22536-.0764.07492-.5346.30087-.6099.30087 0 0-.2288-.0761-.3041-.0761-.2282-.14985-.3799-.14985-.6087-.30087-.3035.90261-.3817 1.12738-.3817.97753 0 0-1.0652-.67666-1.4434-1.12679-.99046.14925-.99046.30028-1.82742.59997-.30408.30087-.7605.67667-1.06458 1.12797-.15175.30087-.30467.45071-.45583.7504l.75991.30087c.07646-.07611.45642-.60057.53171-.75041zm13.00691 5.01982c-.0765 0-.3083-.07269-.6196-.14539h-.386c.0765.21922.3095.4373.386.58268 0 .07384 0 .29306.0795.4373.1529 0 .3848.07269.5401.14595.0771 0 .5407.07384.6955.21922.1541 0 .6937.58268.7737.65538.2306.14652.463.29191.616.21922.1553 0 0-.21922 0-.29192-.3077-.43729-.5395-1.23862-.616-1.23862-.2324-.07269-.3878 0-.6961-.14653-.1535-.14538-.6184-.36346-.7731-.43729zm-1.2923-1.74675c.0762.15152.2246.15152.3747.22609.1489.15034.2996.22551.5236.37703.298.30186.4475.68007.8205.97897.1495.07635.2246.15152.2985.15152.0762 0 .3741.22669.4486.30186 0-.60312-.2246-1.05414-.3724-1.35718 0-.07517-.0762-.15034-.2252-.22669-.2257-.22551-.4486-.4516-.5225-.4516-.2234-.22551-.3735-.45102-.5976-.67771-.2246 0-.3735.22669-.5236.30186-.0739.15034-.3713.30186-.2246.37585zm-.276-1.91945c0 .21921.0766.44071.1521.65877.3735.21978.826.36592.826.36592.0743-.22036-.0773-.43899-.0773-.65935-.1475-.51263-.3752-1.02469-.4495-1.61039v-.29457c-.2992-.14499-.6024-.21921-.9781-.36592 0 0 0 .44014.151.66049.151.36535.3758.95162.3758 1.24505z" clip-rule="evenodd"/>
</svg>