<svg xmlns="http://www.w3.org/2000/svg" fill="none" width="32" height="24" viewBox="0 0 32 24">
  <path fill="#21262E" d="M28 0H4a4 4 0 00-4 4v16a4 4 0 004 4h24a4 4 0 004-4V4a4 4 0 00-4-4z"/>
  <path fill="#fff" d="M15.6 7.4l-.7 4.4c.8 0 2.7.3 3-2.2.4-2-1-2.3-2.3-2.2z"/>
  <path fill="#fff" d="M22.6 17.5c.4.7 0 1.6-.6 2l-1.3.4a11 11 0 01-2.1.3c-1.2 0-2.4-.7-2.9-1.5-.1.3-.6.9-1.4 1.1-.6.2-1.2.4-2.5.4-1.2 0-1.9-.5-2.2-1-.6-.7-.7-1.5-.6-2.1.5-2.2 1.1-6 1.4-8l.2-1.6v-.9V6c0-.3 0-.5.2-.7.2-.4.5-.7.9-.8l1.3-.2a35.8 35.8 0 013-.2c.9 0 1.8 0 2.7.2 1 .2 1.9.5 2.6 1.1.5.5.9 1 1.2 1.6.3.5.4 1 .4 1.4a5.8 5.8 0 010 2.2l-.7 1.5-1.4 1.5 1.8 4zM12.2 6a10.3 10.3 0 010 2.1L12 9.2v.1l-.5 3.4-.6 3.6c-.1.5-.3 1.2 0 1.7.2.5 1 .6 1.4.5 1.7-.2 2-.5 2-.5-.3-.4 0-2 .3-4.3H16l1.3 3.7s.4 1.2 1.4 1.1c1.4 0 2.4-.3 2.5-.5-.4-.2-1.6-3-2.2-5.2l.9-.6 1-1a3.1 3.1 0 00.5-1.6 4.2 4.2 0 00-.3-2 3 3 0 00-1.2-1.3c-.9-.5-1.9-.6-3-.6-1-.1-2.1 0-3.2 0l-1.4.3z"/>
</svg>