<svg xmlns="http://www.w3.org/2000/svg" fill="none" viewBox="0 0 32 24"><path fill="#4858BB" d="M28 0H4a4 4 0 00-4 4v16a4 4 0 004 4h24a4 4 0 004-4V4a4 4 0 00-4-4z"/><path fill="#fff" d="M15.996 19.996a8 8 0 100-16 8 8 0 000 16z"/><path fill="url(#paint0_linear)" d="M0 1.645L2.967 0l4.72 3.85L0 1.645" transform="translate(15.989 10.344)"/><path fill="#E53121" d="M18.956 10.344l4.72 3.85-.47-.247-4.261-3.475.01-.128z"/><path fill="#F08465" d="M15.989 11.99l2.967-1.646-.011.128-2.679 1.485-.277.032z"/><path fill="#B82B18" d="M23.675 14.193L15.99 11.99l.277-.032 6.94 1.99.47.246z"/><path fill="#F5B0AC" d="M15.989 11.989l2.967-1.645-.763-6.042-2.204 7.687"/><path fill="#D47785" d="M18.192 4.302l-2.203 7.687.174-.22 1.99-6.939.04-.528z"/><path fill="#D99E9B" d="M18.956 10.344l-.764-6.042-.04.528.69 5.455.114.059z"/><path fill="#F9D1CD" d="M15.989 11.99l2.967-1.646-.115-.06-2.678 1.486-.174.22z"/><path fill="#F9F9FC" d="M17.634 14.956l-3.85 4.72.246-.47 3.475-4.261.129.011z"/><path fill="#F3F2F9" d="M15.989 11.989l1.645 2.967-.128-.011-1.485-2.679-.032-.277z"/><path fill="#DCDAEE" d="M13.784 19.675l2.205-7.686.032.277-1.99 6.94-.247.47z"/><path fill="#2B2B85" d="M15.989 11.989l1.645 2.967 6.041-.763-7.686-2.204z"/><path fill="#484293" d="M23.675 14.193L15.99 11.99l.219.174 6.94 1.989.527.041z"/><path fill="#24236F" d="M17.634 14.956l6.041-.763-.528-.041-5.455.69-.058.114z"/><path fill="#8F88C0" d="M15.989 11.989l1.645 2.967.06-.115-1.486-2.678-.22-.174z"/><path fill="url(#paint1_linear)" d="M7.687 2.204L4.719 3.85 0 0l7.687 2.204z" transform="translate(8.302 9.784)"/><path fill="#BBB7DB" d="M13.021 13.633L8.302 9.784l.47.246 4.26 3.476-.01.127z"/><path fill="#B0AAD4" d="M15.989 11.989l-2.968 1.645.012-.128 2.678-1.485.278-.032z"/><path fill="#D1CCE6" d="M8.302 9.784l7.687 2.205-.278.031-6.939-1.99-.47-.246z"/><path fill="#FD0" d="M15.989 11.989l-2.968 1.644.763 6.042 2.205-7.686z"/><path fill="#DBBB85" d="M13.784 19.675l2.205-7.686-.175.219-1.989 6.939-.04.528z"/><path fill="#EBC536" d="M13.021 13.633l.764 6.042.04-.529-.69-5.454-.114-.059z"/><path fill="#FFE167" d="M15.989 11.989l-2.968 1.645.115.06 2.678-1.486.175-.22z"/><path fill="#E53121" d="M15.989 11.989L14.343 9.02l3.85-4.719-2.204 7.687"/><path fill="#EA583C" d="M14.343 9.021l3.85-4.719-.246.47-3.475 4.26-.129-.011z"/><path fill="#D42F1E" d="M15.99 11.989L14.342 9.02l.129.011 1.485 2.679.032.278z"/><path fill="#C22C1A" d="M18.192 4.302l-2.203 7.687-.032-.278 1.99-6.94.245-.47z"/><path fill="#F3F2F9" d="M15.989 11.989L14.344 9.02l-6.042.763 7.687 2.205"/><path fill="#F9F8FB" d="M8.302 9.784l7.687 2.205-.22-.175-6.939-1.99-.528-.04z"/><path fill="#DCDAEE" d="M14.344 9.02l-6.042.764.528.041 5.455-.689.059-.115z"/><path fill="#F9F9FC" d="M15.99 11.989L14.343 9.02l-.058.115 1.485 2.678.22.175z"/><path fill="url(#paint2_linear)" d="M3.55 2.131A7.961 7.961 0 000 0l.764 6.042L3.55 2.13z" transform="translate(18.192 4.302)"/><path fill="#8F88C0" d="M18.192 4.302l.764 6.042.071-.285-.717-5.723-.117-.034z"/><path fill="#A59FCE" d="M21.666 6.356l-2.64 3.703-.07.285 2.786-3.911a2.79 2.79 0 00-.076-.077z"/><path fill="url(#paint3_linear)" d="M3.55 2.131A7.961 7.961 0 000 0l.145.267A7.739 7.739 0 013.348 2.23l.201-.1v.001z" transform="translate(18.192 4.302)"/><path fill="url(#paint4_linear)" d="M0 3.91L2.786 0a8.032 8.032 0 012.007 3.621L0 3.911z" transform="translate(18.956 6.433)"/><path fill="#ED6F50" d="M21.742 6.433l-2.786 3.91.216-.12 2.645-3.711a6.646 6.646 0 00-.075-.079z"/><path fill="#A62714" d="M23.722 9.948l-4.55.276-.216.12 4.793-.29a7.602 7.602 0 00-.027-.106z"/><path fill="url(#paint5_linear)" d="M1.814 3.528A7.825 7.825 0 000 .256L.051 0a8.034 8.034 0 012.007 3.621l-.244-.093z" transform="translate(21.69 6.433)"/><path fill="url(#paint6_linear)" d="M0 .29L4.793 0a7.964 7.964 0 01-.074 4.14L0 .29z" transform="translate(18.956 10.054)"/><path fill="#D1CEE8" d="M23.749 10.054l-4.793.29.279.09 4.54-.275-.026-.105z"/><path fill="#F3F2F9" d="M23.675 14.193c.011-.038.022-.076.031-.113l-4.471-3.647-.279-.09 4.72 3.85z"/><path fill="url(#paint7_linear)" d="M0 3.879A7.735 7.735 0 00.033.119L.224 0A7.96 7.96 0 01.15 4.14L0 3.878z" transform="translate(23.525 10.054)"/><path fill="url(#paint8_linear)" d="M2.13 0A7.96 7.96 0 000 3.55l6.042-.764L2.13 0z" transform="translate(8.302 6.235)"/><path fill="#FFCB00" d="M8.302 9.784l6.042-.763-.285-.071-5.723.718-.034.116z"/><path fill="#FD0" d="M10.356 6.31l3.703 2.64.285.07-3.91-2.785-.078.075z"/><path fill="#FFF8C7" d="M10.432 6.235a7.961 7.961 0 00-2.13 3.55l.266-.145a7.74 7.74 0 011.964-3.203l-.1-.202z"/><path fill="url(#paint9_linear)" d="M3.91 4.793L0 2.007A8.032 8.032 0 013.62 0l.29 4.793z" transform="translate(10.433 4.228)"/><path fill="#E53121" d="M10.434 6.235l3.91 2.786-.12-.215-3.712-2.645-.079.074zm3.514-1.98l.276 4.55.12.216-.29-4.793-.106.028z"/><path fill="url(#paint10_linear)" d="M3.528.245A7.822 7.822 0 00.256 2.058L0 2.007A8.035 8.035 0 013.621 0l-.093.245z" transform="translate(10.432 4.228)"/><path fill="url(#paint11_linear)" d="M.29 5.03L0 .239a7.957 7.957 0 014.139.074L.289 5.031z" transform="translate(14.054 3.99)"/><path fill="#1E398E" d="M14.053 4.228l.29 4.793.09-.28-.274-4.538-.106.025z"/><path fill="#2F2482" d="M18.192 4.302l-.112-.031-3.647 4.471-.09.279 3.85-4.719z"/><path fill="url(#paint12_linear)" d="M3.879.462A7.736 7.736 0 00.119.43L0 .239a7.954 7.954 0 014.139.073l-.26.15z" transform="translate(14.054 3.99)"/><path fill="#2B2B85" d="M10.235 17.544a7.961 7.961 0 003.55 2.131l-.764-6.042-2.786 3.911z"/><path fill="#24236F" d="M13.785 19.675l-.764-6.042-.07.285.717 5.723.117.034z"/><path fill="#5B549F" d="M10.31 17.621l2.64-3.703.071-.285-2.786 3.911.076.077z"/><path fill="url(#paint13_linear)" d="M0 .1a7.964 7.964 0 003.549 2.13l-.145-.266A7.743 7.743 0 01.201 0L0 .1z" transform="translate(10.235 17.445)"/><path fill="url(#paint14_linear)" d="M4.793 0L2.007 3.91A8.035 8.035 0 010 .29L4.793 0z" transform="translate(8.228 13.633)"/><path fill="#B0AAD4" d="M10.235 17.544l2.786-3.91-.216.119-2.645 3.712.075.08z"/><path fill="#DAD8ED" d="M8.256 14.029l4.55-.276.215-.12-4.792.29c.008.036.017.071.027.106z"/><path fill="url(#paint15_linear)" d="M.245.093a7.824 7.824 0 001.814 3.272l-.052.256A8.037 8.037 0 010 0l.245.093z" transform="translate(8.228 13.924)"/><path fill="#E53121" d="M13.021 13.633l-4.793.29a7.965 7.965 0 01.074-4.139l4.719 3.85z"/><path fill="#CA2D0A" d="M8.228 13.923l4.793-.29-.279-.089-4.539.274.025.105z"/><path fill="#ED6F50" d="M8.302 9.784c-.01.038-.022.076-.031.113l4.471 3.647.279.09-4.72-3.85zm.15.26a7.742 7.742 0 00-.034 3.76l-.19.12a7.962 7.962 0 01.074-4.14l.15.26z"/><path fill="url(#paint16_linear)" d="M3.91 3.549A7.96 7.96 0 006.043 0L0 .763l3.91 2.786z" transform="translate(17.634 14.193)"/><path fill="#7B73B3" d="M23.675 14.193l-6.041.763.284.071 5.723-.717.034-.117z"/><path fill="#D1CEE8" d="M21.621 17.666l-3.703-2.64-.284-.07 3.91 2.786.077-.075z"/><path fill="#655EA5" d="M21.544 17.742a7.96 7.96 0 002.131-3.55l-.266.146a7.739 7.739 0 01-1.964 3.202l.1.202z"/><path fill="url(#paint17_linear)" d="M0 0l3.91 2.786A8.038 8.038 0 01.29 4.793L0 0z" transform="translate(17.634 14.956)"/><path fill="#E53121" d="M21.544 17.742l-3.91-2.786.12.216 3.711 2.645.08-.075zm-3.515 1.98l-.276-4.55-.12-.216.29 4.793.106-.027z"/><path fill="url(#paint18_linear)" d="M.093 1.814A7.822 7.822 0 003.365 0l.256.052A8.044 8.044 0 010 2.06l.093-.245z" transform="translate(17.924 17.69)"/><path fill="url(#paint19_linear)" d="M3.85 0l.29 4.793A7.973 7.973 0 010 4.719L3.85 0z" transform="translate(13.784 14.956)"/><path fill="#F5B0AC" d="M17.923 19.749l-.29-4.793-.09.279.276 4.54.104-.026z"/><path fill="#FAD9D5" d="M13.784 19.675l.113.032 3.647-4.472.09-.279-3.85 4.72z"/><path fill="url(#paint20_linear)" d="M.26 0a7.74 7.74 0 003.759.034l.12.19A7.963 7.963 0 010 .151L.26 0z" transform="translate(13.785 19.525)"/><defs><linearGradient id="paint0_linear" x2="1" gradientTransform="matrix(3.0529 .862 -1.7212 1.52894 4.689 -.877)" gradientUnits="userSpaceOnUse"><stop stop-color="#E53121"/><stop offset="1" stop-color="#C22C1A"/></linearGradient><linearGradient id="paint1_linear" x2="1" gradientTransform="scale(8.79531 4.40426) rotate(29.417 2.099 .206)" gradientUnits="userSpaceOnUse"><stop stop-color="#DCDAEE"/><stop offset="1" stop-color="#8F88C0"/></linearGradient><linearGradient id="paint2_linear" x2="1" gradientTransform="matrix(-4.06283 -1.08863 .63956 -6.91549 2.421 9.288)" gradientUnits="userSpaceOnUse"><stop stop-color="#7B73B3"/><stop offset="1" stop-color="#C6C2E2"/></linearGradient><linearGradient id="paint3_linear" x2="1" gradientTransform="matrix(-3.66385 -2.1153 3.36696 -2.30181 .88 5.12)" gradientUnits="userSpaceOnUse"><stop stop-color="#6C62A8"/><stop offset="1" stop-color="#CBCAE6"/></linearGradient><linearGradient id="paint4_linear" x2="1" gradientTransform="scale(5.12209 4.17956) rotate(64.774 .692 .68)" gradientUnits="userSpaceOnUse"><stop stop-color="#E53121"/><stop offset="1" stop-color="#A62714"/></linearGradient><linearGradient id="paint5_linear" x2="1" gradientTransform="matrix(2.11542 3.66407 -2.08266 3.7217 2.88 -2.871)" gradientUnits="userSpaceOnUse"><stop stop-color="#E84D2C"/><stop offset="1" stop-color="#811F08"/></linearGradient><linearGradient id="paint6_linear" x2="1" gradientTransform="scale(6.50699 5.3535) rotate(73.329 .883 .599)" gradientUnits="userSpaceOnUse"><stop stop-color="#F3F2F9"/><stop offset="1" stop-color="#BBB7DB"/></linearGradient><linearGradient id="paint7_linear" x2="1" gradientTransform="scale(.86776 7.77155) rotate(2.644 7.137 -5.117)" gradientUnits="userSpaceOnUse"><stop stop-color="#fff"/><stop offset="1" stop-color="#BBB7DB"/></linearGradient><linearGradient id="paint8_linear" x2="1" gradientTransform="matrix(5.06657 1.43057 -2.43528 2.97627 2.892 -2.194)" gradientUnits="userSpaceOnUse"><stop stop-color="#FFF098"/><stop offset="1" stop-color="#FFD530"/></linearGradient><linearGradient id="paint9_linear" x2="1" gradientTransform="matrix(4.56152 1.6602 -1.35473 5.59005 1.779 -3.952)" gradientUnits="userSpaceOnUse"><stop stop-color="#F4A286"/><stop offset="1" stop-color="#E53121"/></linearGradient><linearGradient id="paint10_linear" x2="1" gradientTransform="scale(5.38887 3.06329) rotate(-45.445 -.642 .537)" gradientUnits="userSpaceOnUse"><stop stop-color="#F4A286"/><stop offset="1" stop-color="#E53121"/></linearGradient><linearGradient id="paint11_linear" x2="1" gradientTransform="scale(3.93367 4.78134) rotate(13.078 2.084 .687)" gradientUnits="userSpaceOnUse"><stop stop-color="#4464AC"/><stop offset="1" stop-color="#1D3584"/></linearGradient><linearGradient id="paint12_linear" x2="1" gradientTransform="matrix(4.1389 0 0 .4622 .05 -1.506)" gradientUnits="userSpaceOnUse"><stop stop-color="#4464AC"/><stop offset=".373" stop-color="#2F4B97"/><stop offset=".728" stop-color="#223B89"/><stop offset="1" stop-color="#1D3584"/></linearGradient><linearGradient id="paint13_linear" x2="1" gradientTransform="scale(4.32148 2.71587) rotate(24.526 2.362 .19)" gradientUnits="userSpaceOnUse"><stop stop-color="#5B62A2"/><stop offset=".152" stop-color="#4C579A"/><stop offset=".482" stop-color="#31438C"/><stop offset=".776" stop-color="#213783"/><stop offset="1" stop-color="#1B3380"/></linearGradient><linearGradient id="paint14_linear" x2="1" gradientTransform="matrix(.34938 3.99303 -4.89348 .28509 6.83 -.29)" gradientUnits="userSpaceOnUse"><stop stop-color="#fff"/><stop offset="1" stop-color="#DAD8ED"/></linearGradient><linearGradient id="paint15_linear" x2="1" gradientTransform="scale(2.93578 5.16392) rotate(9.259 3.084 .106)" gradientUnits="userSpaceOnUse"><stop stop-color="#fff"/><stop offset="1" stop-color="#D1CEE8"/></linearGradient><linearGradient id="paint16_linear" x2="1" gradientTransform="matrix(5.36398 1.51456 -2.57851 3.1507 2.492 -3.752)" gradientUnits="userSpaceOnUse"><stop stop-color="#D1CEE8"/><stop offset="1" stop-color="#7B73B3"/></linearGradient><linearGradient id="paint17_linear" x2="1" gradientTransform="matrix(2.46599 4.2713 -3.48555 3.0219 3.79 -2.74)" gradientUnits="userSpaceOnUse"><stop stop-color="#E53121"/><stop offset="1" stop-color="#B02916"/></linearGradient><linearGradient id="paint18_linear" x2="1" gradientTransform="matrix(3.78068 -2.1828 3.83832 2.15 -3.058 -.797)" gradientUnits="userSpaceOnUse"><stop stop-color="#E53121"/><stop offset="1" stop-color="#9D2511"/></linearGradient><linearGradient id="paint19_linear" x2="1" gradientTransform="matrix(2.70143 2.70143 -2.22285 3.28306 4.143 -.877)" gradientUnits="userSpaceOnUse"><stop stop-color="#F5B0AC"/><stop offset="1" stop-color="#EF8495"/></linearGradient><linearGradient id="paint20_linear" x2="1" gradientTransform="matrix(4.13882 0 0 .4624 .052 -1.506)" gradientUnits="userSpaceOnUse"><stop stop-color="#F5B0AC"/><stop offset="1" stop-color="#EE788F"/></linearGradient></defs></svg>