<svg xmlns="http://www.w3.org/2000/svg" viewBox="0 0 38 24"><path d="M35 0H3a2.946 2.946 0 00-3 3v18a3.009 3.009 0 003 3h32a2.946 2.946 0 003-3V3a3.009 3.009 0 00-3-3z" style="isolation:isolate" opacity=".07"/><path fill="#fff" d="M35 1a2.006 2.006 0 012 2v18a2.006 2.006 0 01-2 2H3a2.006 2.006 0 01-2-2V3a2.006 2.006 0 012-2h32"/><path fill="#fd0" d="M32.352 6.512a1.402 1.402 0 011.379 1.414v2.993a1.402 1.402 0 01-1.379 1.414h-4.15l.924-1.052.456-.526.923-1.052h-9.14l-4.874 5.493H7.409l6.51-7.363.246-.281A3.571 3.571 0 0116.48 6.5h15.873z"/><path fill="#004e91" d="M30.517 9.703h-9.14l-.935 1.052-3.016 3.4-.935 1.053H7.468l.912-1.064.432-.503.912-1.063h-4.15a1.403 1.403 0 00-1.38 1.414v2.992a1.403 1.403 0 001.38 1.415h15.92a3.521 3.521 0 002.302-1.052l2.408-2.735 4.313-4.91"/></svg>