<svg xmlns="http://www.w3.org/2000/svg" width="38" height="24"><path d="M34.83 23.96H3.17a3.09 3.09 0 01-3.17-3v-18a3.08 3.08 0 013.17-3h31.66a3.08 3.08 0 013.17 3v18a3.1 3.1 0 01-3.17 3zM13.1 7.36a1 1 0 00-1-1.05H5a1 1 0 00-1 1.05v4.22a1 1 0 001 1.05h7.13a1 1 0 001-1.05z" fill="#515e80" opacity=".2"/><path d="M32.76 18.96h-3.93c-.85 0-1.31-.38-1.31-1.26s.46-1.26 1.31-1.26h3.93c.85 0 1.31.38 1.31 1.26s-.46 1.26-1.31 1.26zm-7.86 0H21c-.86 0-1.31-.38-1.31-1.26s.45-1.26 1.31-1.26h3.9c.85 0 1.31.38 1.31 1.26s-.46 1.26-1.31 1.26zm-7.9 0h-3.9c-.85 0-1.31-.38-1.31-1.26s.46-1.26 1.31-1.26H17c.86 0 1.31.38 1.31 1.26s-.42 1.26-1.31 1.26zm-7.83 0H5.24c-.85 0-1.31-.38-1.31-1.26s.46-1.26 1.31-1.26h3.93c.85 0 1.31.38 1.31 1.26s-.48 1.26-1.31 1.26z" fill="#515e80" opacity=".3"/></svg>