<svg xmlns="http://www.w3.org/2000/svg" viewBox="0 0 38 24" width="38" height="24" role="img">
    <title>Visa</title>
    <path d="M35 0H3C1.3 0 0 1.3 0 3v18a3 3 0 0 0 3 3h32c1.7 0 3-1.3 3-3V3a3 3 0 0 0-3-3Z" opacity=".07"/>
    <path fill="#fff" d="M35 1a2 2 0 0 1 2 2v18a2 2 0 0 1-2 2H3a2 2 0 0 1-2-2V3c0-1.1.9-2 2-2h32"/>
    <path fill="#1434cb" d="m15.1 7.95-3.4 8.12H9.48L7.8 9.59c-.1-.4-.19-.55-.5-.71a8.96 8.96 0 0 0-2.07-.69l.05-.24h3.57c.46 0 .87.3.97.83l.88 4.7 2.19-5.53h2.21Zm8.7 5.47c0-2.14-2.96-2.26-2.94-3.22 0-.29.28-.6.89-.68.3-.04 1.13-.07 2.07.36l.37-1.72a5.78 5.78 0 0 0-1.97-.36c-2.08 0-3.54 1.1-3.55 2.68-.01 1.17 1.04 1.82 1.84 2.21.82.4 1.09.65 1.09 1.01 0 .54-.65.79-1.26.79-1.06.02-1.67-.29-2.16-.51l-.38 1.78c.49.23 1.4.42 2.34.43 2.21 0 3.65-1.09 3.66-2.78m5.48 2.65h1.94l-1.7-8.12h-1.79c-.4 0-.74.23-.89.6l-3.15 7.53h2.21l.44-1.21h2.7l.25 1.21Zm-2.34-2.88 1.11-3.05.64 3.05h-1.74ZM18.1 7.94l-1.74 8.12h-2.1L16 7.94h2.1Z"/>
</svg>