<svg xmlns="http://www.w3.org/2000/svg" xml:space="preserve" style="enable-background:new 0 0 662.8 662.8" viewBox="144 144 374.8 374.8"><circle cx="331.4" cy="331.4" r="187.4" style="fill:#b2fce4"/><path d="m438.3 265.5-34.6-19.8-35.1-20.1c-23.2-13.3-52.2 3.4-52.2 30.2v4.5c0 2.5 1.3 4.8 3.5 6l16.3 9.3c4.5 2.6 10.1-.7 10.1-5.9V259c0-5.3 5.7-8.6 10.3-6l32 18.4 31.9 18.3c4.6 2.6 4.6 9.3 0 11.9l-31.9 18.3-32 18.4c-4.6 2.6-10.3-.7-10.3-6V327c0-26.8-29-43.6-52.2-30.2l-35 20.2-34.6 19.8c-23.3 13.4-23.3 47.1 0 60.5l34.6 19.8 35.1 20.1c23.2 13.3 52.2-3.4 52.2-30.2v-4.5c0-2.5-1.3-4.8-3.5-6l-16.3-9.3c-4.5-2.6-10.1.7-10.1 5.9v10.7c0 5.3-5.7 8.6-10.3 6l-32-18.4-31.9-18.3c-4.6-2.6-4.6-9.3 0-11.9l31.9-18.3 32-18.4c4.6-2.6 10.3.7 10.3 6v5.3c0 26.8 29 43.6 52.2 30.2l35.1-20.1 34.6-19.8c23.2-13.5 23.2-47.2-.1-60.6z"/></svg>