<svg xmlns="http://www.w3.org/2000/svg" viewBox="0 0 150 29" width="124" height="24" role="img">
    <title>Amazon Pay</title>
    <g fill="none" fill-rule="evenodd">
        <path fill="#fff" d="M11.66 16.63a.6.6 0 0 1-.7.07c-.98-.81-1.16-1.19-1.69-1.96-1.62 1.65-2.76 2.14-4.86 2.14-2.48 0-4.41-1.53-4.41-4.6a5 5 0 0 1 3.13-4.8c1.6-.71 3.83-.84 5.54-1.03v-.38c0-.7.06-1.53-.36-2.14-.36-.54-1.04-.77-1.65-.77-1.12 0-2.13.58-2.37 1.77a.62.62 0 0 1-.52.55L.93 5.17a.52.52 0 0 1-.43-.62C1.15 1.09 4.28.04 7.09.04c1.43 0 3.3.38 4.43 1.47 1.43 1.34 1.3 3.13 1.3 5.07v4.59c0 1.38.58 1.99 1.12 2.73.19.26.23.59 0 .78-.6.5-1.67 1.43-2.26 1.96h-.02ZM8.68 9.45c0 1.15.03 2.1-.55 3.13-.47.83-1.2 1.34-2.04 1.34-1.13 0-1.79-.86-1.79-2.14 0-2.5 2.25-2.97 4.38-2.97v.64Zm11.05 7.07h-2.95a.55.55 0 0 1-.52-.5V.89c.01-.3.26-.54.56-.54h2.75c.28.02.5.24.52.52v1.98h.06C20.86.93 22.2.05 24.03.05c1.81 0 3 .88 3.82 2.8a4.35 4.35 0 0 1 7.5-1.16c.93 1.27.74 3.13.74 4.74v9.54a.56.56 0 0 1-.57.55h-2.95a.55.55 0 0 1-.52-.54V7.96c0-.64.06-2.23-.08-2.84-.22-1.01-.88-1.3-1.73-1.3-.78.02-1.48.51-1.76 1.24-.3.77-.28 2.04-.28 2.9v8.01a.56.56 0 0 1-.57.55h-2.95a.55.55 0 0 1-.52-.54V7.96c0-1.7.26-4.18-1.83-4.18-2.08 0-2.03 2.42-2.03 4.18v8.01a.56.56 0 0 1-.57.55m32.83-2.63c-.54-.74-1.11-1.35-1.11-2.73v-4.6c0-1.94.14-3.72-1.3-5.07C49 .41 47.14.03 45.7.03c-2.8 0-5.94 1.04-6.6 4.5a.52.52 0 0 0 .45.63l2.85.3a.62.62 0 0 0 .53-.54c.24-1.19 1.24-1.77 2.37-1.77.6 0 1.3.23 1.65.77.41.6.36 1.44.36 2.14v.37c-1.71.2-3.95.32-5.54 1.02a5 5 0 0 0-3.15 4.82c0 3.06 1.94 4.59 4.42 4.59 2.08 0 3.24-.5 4.85-2.14.54.78.72 1.15 1.7 1.96.22.13.5.1.69-.07.59-.52 1.66-1.45 2.26-1.95.25-.18.21-.5.01-.77Zm-5.79-1.32c-.47.82-1.21 1.33-2.04 1.33-1.13 0-1.79-.86-1.79-2.13 0-2.51 2.25-2.97 4.38-2.97v.64c0 1.15.03 2.1-.55 3.13ZM55.06 3V.84a.52.52 0 0 1 .55-.55h9.68a.54.54 0 0 1 .56.55v1.85c0 .31-.26.72-.73 1.36l-5.02 7.16a10.7 10.7 0 0 1 5.53 1.2c.31.16.51.48.52.83v2.32c0 .32-.35.69-.71.5a11.15 11.15 0 0 0-10.24.01c-.33.18-.69-.18-.69-.5v-2.2a2.6 2.6 0 0 1 .36-1.48l5.82-8.35h-5.07a.54.54 0 0 1-.56-.55m19.15.12c-2.17 0-2.3 2.96-2.3 4.8 0 1.85-.03 5.8 2.28 5.8 2.3 0 2.4-3.19 2.4-5.13 0-1.27-.06-2.8-.45-4-.33-1.05-1-1.47-1.93-1.47ZM74.2.02c4.37 0 6.74 3.76 6.74 8.53 0 4.62-2.61 8.28-6.74 8.28-4.3 0-6.63-3.76-6.63-8.44S69.92.02 74.19.02Zm12.43 16.47h-2.94a.55.55 0 0 1-.52-.55V.81c.03-.28.28-.5.57-.5h2.73c.25.02.46.19.52.43v2.31h.06C87.87 1 89.03 0 91.06 0a3.9 3.9 0 0 1 3.45 1.78c.76 1.21.76 3.25.76 4.71v9.52a.56.56 0 0 1-.56.48h-2.96a.55.55 0 0 1-.53-.48V7.8c0-1.66.2-4.08-1.84-4.08-.76.04-1.42.51-1.7 1.21a6.74 6.74 0 0 0-.47 2.87v8.14a.56.56 0 0 1-.58.55M110.6 2.62a6.9 6.9 0 0 0-4.13 1.42v8.6a6.7 6.7 0 0 0 4.08 1.5c2.84 0 4.26-1.92 4.26-5.75 0-3.82-1.4-5.75-4.2-5.78Zm-4.35-.4a8.7 8.7 0 0 1 2.5-1.55 7.34 7.34 0 0 1 2.72-.52 5.67 5.67 0 0 1 4.73 2.14 7.48 7.48 0 0 1 1.28 2.58c.32 1.1.47 2.24.45 3.39.02 1.17-.15 2.33-.48 3.46a7.87 7.87 0 0 1-1.34 2.62 6.08 6.08 0 0 1-2.1 1.69c-.86.4-1.8.6-2.75.57a6.89 6.89 0 0 1-4.79-1.82v7.24a.55.55 0 0 1-.62.62h-1.82a.55.55 0 0 1-.62-.62V1.22a.55.55 0 0 1 .62-.61h1.36a.65.65 0 0 1 .7.62l.16.98Zm19.39 12.15a6.43 6.43 0 0 0 2.13-.4 8.09 8.09 0 0 0 2.13-1.18V9.64a15.62 15.62 0 0 0-3.27-.4c-2.33 0-3.5.9-3.5 2.69 0 .78.22 1.38.65 1.8.44.43 1.05.64 1.86.64ZM122.02 3.3l-.23.08a.82.82 0 0 1-.26.05c-.26 0-.4-.19-.4-.56v-.83c-.02-.2.02-.42.12-.6.14-.15.3-.26.5-.33.78-.32 1.6-.55 2.43-.68a16.3 16.3 0 0 1 2.9-.26c1.96 0 3.4.4 4.33 1.2.93.8 1.4 2.05 1.4 3.74v10.56a.55.55 0 0 1-.62.61h-1.33a.62.62 0 0 1-.68-.58l-.16-1.02a8.43 8.43 0 0 1-2.45 1.48c-.85.34-1.76.52-2.68.52a4.86 4.86 0 0 1-3.52-1.25 4.46 4.46 0 0 1-1.3-3.35c0-1.5.53-2.7 1.6-3.6A6.51 6.51 0 0 1 126 7.13c1.31.02 2.62.2 3.9.52V5.62c0-1.1-.25-1.9-.75-2.34-.5-.46-1.36-.68-2.6-.68-1.53.01-3.06.25-4.53.7Zm20.84 15.72a7.6 7.6 0 0 1-1.93 3.06c-.73.62-1.69.93-2.87.93a6.9 6.9 0 0 1-1.76-.22.9.9 0 0 1-.5-.3 1.04 1.04 0 0 1-.15-.63v-.8c0-.4.15-.59.46-.59.16.01.31.03.47.06.27.05.55.07.83.07.65.04 1.3-.16 1.82-.56a4.8 4.8 0 0 0 1.18-2.04l.58-1.57-5.95-14.71a2.35 2.35 0 0 1-.21-.74c0-.25.14-.37.43-.37h1.85c.24-.03.48.03.68.15.18.2.3.43.37.68l4.33 11.99 4.17-11.99c.07-.25.2-.49.37-.68.2-.12.44-.18.68-.15h1.73c.3 0 .43.12.43.37-.03.25-.1.5-.21.74l-6.8 17.3"/>
        <path fill="#F90" d="M59.05 22.45c-5.53 4.08-13.56 6.26-20.46 6.26a37.03 37.03 0 0 1-25-9.53c-.51-.47-.05-1.11.58-.75a50.3 50.3 0 0 0 25 6.64 49.79 49.79 0 0 0 19.08-3.92c.93-.4 1.72.62.8 1.3m2.3-2.62c.71.9-.78 4.64-1.45 6.3-.2.51.23.72.69.34 2.97-2.49 3.73-7.69 3.13-8.44-.6-.75-5.8-1.39-8.96.84-.49.34-.4.81.14.74 1.78-.2 5.75-.69 6.46.22"/>
    </g>
</svg>