<svg xmlns="http://www.w3.org/2000/svg" viewBox="0 0 165.5211 105.9651">
  <path d="M150.698 0H14.8233c-.566 0-1.1328 0-1.6977.0033-.4775.0034-.954.0087-1.4303.0217-1.039.0281-2.087.0894-3.113.2738C7.54.4864 6.57.7924 5.6237 1.2742a9.9317 9.9317 0 00-2.5201 1.8303 9.9162 9.9162 0 00-1.8302 2.52c-.482.9463-.7881 1.9166-.9744 2.9598-.1854 1.0263-.2471 2.074-.2751 3.1119a70.2918 70.2918 0 00-.0214 1.4291c-.0033.5661-.0022 1.1318-.0022 1.6989V91.142c0 .5671-.0011 1.1318.0022 1.699.003.4763.0086.9527.0214 1.4291.028 1.037.0897 2.0847.275 3.1107.1864 1.0436.4926 2.0135.9745 2.9599a9.8969 9.8969 0 001.8302 2.52 9.8736 9.8736 0 002.52 1.8302c.9464.4831 1.9164.7892 2.9588.9767 1.026.1832 2.0739.2456 3.1129.2737a79.179 79.179 0 001.4303.0194 218.218 218.218 0 001.6977.0044H150.698c.5649 0 1.1318 0 1.6966-.0044a79.711 79.711 0 001.4314-.0194c1.0368-.0281 2.0845-.0905 3.113-.2737 1.041-.1875 2.0112-.4936 2.9576-.9767.9313-.4719 1.7805-1.0906 2.52-1.8302a9.9554 9.9554 0 001.8303-2.52c.483-.9464.7889-1.9163.9743-2.9599.1855-1.026.2457-2.0737.2738-3.1107.013-.4764.0194-.9528.0216-1.429.0044-.5673.0044-1.132.0044-1.6991V14.8242c0-.5671 0-1.1328-.0044-1.6989a63.0673 63.0673 0 00-.0216-1.4291c-.0281-1.0379-.0883-2.0856-.2738-3.1119-.1854-1.0432-.4913-2.0135-.9743-2.9598a9.975 9.975 0 00-1.8302-2.52c-.7396-.7384-1.5888-1.3572-2.5201-1.8303-.9464-.4818-1.9166-.7878-2.9576-.9754-1.0285-.1844-2.0762-.2457-3.113-.2738-.4786-.013-.955-.0183-1.4314-.0217C151.8299 0 151.263 0 150.698 0z"/>
  <path fill="#FFF" d="M150.698 3.532l1.6716.0032c.4528.0032.9056.0081 1.3609.0205.792.0214 1.7185.0643 2.582.2191.7508.1352 1.3804.3408 1.9846.6484A6.3916 6.3916 0 01159.9173 5.6a6.4337 6.4337 0 011.1838 1.6302c.3059.5995.5102 1.2261.6446 1.9823.1544.8542.197 1.7832.2188 2.5801.0122.4498.0182.8996.0204 1.3601.0043.5569.0042 1.1135.0042 1.6715V91.142c0 .558 0 1.1136-.0043 1.6824a59.7281 59.7281 0 01-.0204 1.3501c-.0216.7957-.0643 1.7242-.2206 2.5885-.1325.7458-.3367 1.3725-.6443 1.975a6.3968 6.3968 0 01-1.1802 1.6251 6.3582 6.3582 0 01-1.6282 1.1819c-.5997.3061-1.2282.5115-1.9715.6453-.8811.157-1.8464.2002-2.5734.2199a77.2118 77.2118 0 01-1.379.0187c-.5556.0043-1.1133.0042-1.6691.0042H14.801c-.5494 0-1.1 0-1.6593-.0043a75.0859 75.0859 0 01-1.3512-.0182c-.7436-.0201-1.7095-.0632-2.5834-.2193-.7497-.1348-1.3782-.3402-1.9858-.6503a6.3367 6.3367 0 01-1.6223-1.1797 6.355 6.355 0 01-1.1784-1.6232c-.3064-.6019-.5114-1.2305-.6462-1.9852-.1558-.8626-.1986-1.7874-.22-2.5777a66.0167 66.0167 0 01-.0202-1.3547l-.0022-1.3279v-77.019l.002-1.3251c.003-.4525.0082-.9049.0204-1.357.0214-.7911.0642-1.7163.2213-2.5861.1336-.7479.3385-1.3765.6465-1.9814a6.3726 6.3726 0 011.1792-1.6225 6.3855 6.3855 0 011.6248-1.1799c.601-.3061 1.2308-.5116 1.9805-.6465.8638-.1552 1.7909-.198 2.5849-.2195.4526-.0123.9052-.0172 1.3544-.0203l1.677-.0033h135.875"/>
  <path d="M45.1862 35.6405c1.4172-1.7726 2.379-4.1528 2.1253-6.585-2.0746.1031-4.6063 1.3687-6.072 3.1427-1.3161 1.5192-2.481 3.999-2.1773 6.3293 2.329.202 4.6557-1.164 6.124-2.887M47.285 38.9825c-3.382-.2014-6.2577 1.9195-7.8728 1.9195-1.616 0-4.0893-1.818-6.7644-1.769-3.4818.0512-6.7124 2.0198-8.4793 5.1508-3.634 6.2636-.959 15.5547 2.575 20.656 1.7161 2.5239 3.7844 5.3028 6.5097 5.203 2.575-.101 3.5842-1.6674 6.7142-1.6674 3.1276 0 4.0368 1.6674 6.7625 1.6169 2.8266-.0506 4.5938-2.5251 6.31-5.0514 1.9687-2.877 2.7747-5.655 2.8254-5.8074-.0507-.0506-5.4506-2.122-5.5007-8.3336-.051-5.201 4.2395-7.675 4.4415-7.8283-2.4229-3.5835-6.2086-3.9876-7.521-4.089M76.7339 31.9438c7.351 0 12.4696 5.067 12.4696 12.4444 0 7.4036-5.224 12.497-12.654 12.497h-8.1389v12.9432h-5.8804V31.9438H76.734zm-8.3233 20.0055h6.7473c5.1198 0 8.0336-2.7564 8.0336-7.5348 0-4.778-2.9138-7.5084-8.0073-7.5084h-6.7736v15.0432zM90.74 61.9786c0-4.831 3.7018-7.7976 10.2658-8.1652l7.5606-.4462v-2.1264c0-3.0718-2.0742-4.9095-5.539-4.9095-3.2826 0-5.3305 1.5749-5.8288 4.043H91.843c.315-4.9885 4.5678-8.664 11.3941-8.664 6.6947 0 10.9738 3.5443 10.9738 9.0839v19.0342h-5.4347v-4.542h-.1307c-1.6012 3.072-5.0934 5.0145-8.7162 5.0145-5.4084 0-9.1892-3.3605-9.1892-8.3223zm17.8264-2.494v-2.179l-6.8.4198c-3.3868.2364-5.303 1.7329-5.303 4.0957 0 2.415 1.9952 3.9905 5.0407 3.9905 3.9641 0 7.0623-2.7305 7.0623-6.327zM119.3417 79.9889v-4.5946c.4193.1048 1.3642.1048 1.8372.1048 2.6252 0 4.0431-1.1024 4.909-3.9378 0-.0526.4994-1.6802.4994-1.7065L116.611 42.209h6.1427l6.9843 22.4737h.1044l6.9843-22.4737h5.9857l-10.3448 29.063c-2.362 6.6952-5.0924 8.848-10.8158 8.848-.473 0-1.891-.0527-2.3102-.1312z"/>
</svg>