<svg xmlns="http://www.w3.org/2000/svg" viewBox="72.75830078125 72.75830078125 612.839111328125 421.9225769042969">
  <defs>
    <linearGradient id="a" x1="178.2697" x2="362.5096" y1="283.7994" y2="215.3675" gradientUnits="userSpaceOnUse">
      <stop offset="0" stop-color="#005ab9"></stop>
      <stop offset="1" stop-color="#1e3764"></stop>
    </linearGradient>
    <linearGradient id="b" x1="394.4283" x2="590.0529" y1="237.3048" y2="170.5623" gradientUnits="userSpaceOnUse">
      <stop offset="0" stop-color="#fba900"></stop>
      <stop offset="1" stop-color="#ffd800"></stop>
    </linearGradient>
  </defs>
  <path fill="#fff" d="M93.8545 72.7584h570.6468a21.0961 21.0961 0 0121.0961 21.0961v379.7303a21.0961 21.0961 0 01-21.096 21.0961H93.8544a21.0961 21.0961 0 01-21.0961-21.096V93.8544a21.0961 21.0961 0 0121.0961-21.0961z"></path>
  <path fill="#1e3764" d="M127.3282 438.8651v-72.7584h22.4512c16.3187 0 26.8167 6.1325 26.8167 18.8133 0 7.172-3.326 12.1611-8.0034 15.0713 6.756 3.118 10.7057 9.1466 10.7057 17.358 0 14.656-10.7057 21.5159-27.3362 21.5159zm14.4477-42.512h10.706c6.5481 0 9.3547-3.2222 9.3547-9.1464 0-6.3407-5.0932-8.4192-11.9534-8.4192h-8.1073zm0 29.8312h8.9388c8.7312 0 13.8242-2.1828 13.8242-9.0427 0-6.756-4.3653-9.5624-12.5767-9.5624h-10.1863zm65.5405 13.928c-14.24 0-21.412-6.9638-21.412-16.3185 0-10.2904 8.4194-16.319 20.8923-16.4228a65.088 65.088 0 019.2506.8318v-2.4949c0-6.3401-3.6379-9.3547-10.6019-9.3547a36.4665 36.4665 0 00-13.7203 2.4948l-2.5984-11.2254c4.4694-1.8713 11.6413-3.1185 17.9818-3.1185 15.2792 0 22.8668 8.1076 22.8668 22.1394v28.8955c-4.2614 2.1828-12.265 4.5733-22.6589 4.5733zm8.731-11.7452v-11.1217a34.9099 34.9099 0 00-7.3797-.8318c-4.7815 0-8.5232 1.8713-8.5232 6.7566 0 4.3656 3.1182 6.6522 8.627 6.6522a16.2716 16.2716 0 007.2758-1.4553zm24.0266 10.498v-49.7877a63.469 63.469 0 0123.4907-4.5733c15.1751 0 23.9063 7.4835 23.9063 21.3077v33.0533h-14.344v-32.0139c0-7.172-3.3261-10.498-9.6665-10.498a21.7996 21.7996 0 00-9.1468 1.8713v40.6407zm97.5236-51.2425l-2.7026 11.3293a31.661 31.661 0 00-11.7452-2.5987c-8.4191 0-12.9926 5.9248-12.9926 15.6954 0 10.7057 4.7812 16.2146 13.7203 16.2146a29.4253 29.4253 0 0011.5372-2.7025l2.2867 11.5375a34.9838 34.9838 0 01-14.9675 3.014c-17.2541 0-27.2324-10.7057-27.2324-27.6482 0-16.8382 9.8745-27.9599 26.4011-27.9599a40.0639 40.0639 0 0115.695 3.1184zm30.9872 52.4897c-16.007 0-25.9852-11.1217-25.9852-27.856 0-16.6305 9.9783-27.7522 25.9852-27.7522 16.1108 0 25.8812 11.1217 25.8812 27.7522 0 16.7343-9.7704 27.856-25.8812 27.856zm0-11.849c7.3799 0 11.2255-6.1326 11.2255-16.007 0-9.7706-3.8456-15.9031-11.2255-15.9031-7.2758 0-11.3296 6.1325-11.3296 15.903 0 9.8745 4.0538 16.007 11.3296 16.007zm34.1818 10.6018v-49.7877a63.469 63.469 0 0123.4906-4.5733c15.1752 0 23.9063 7.4835 23.9063 21.3077v33.0533h-14.344v-32.0139c0-7.172-3.326-10.498-9.6664-10.498a21.7996 21.7996 0 00-9.1468 1.8713v40.6407zm79.7455 1.2472c-12.3687 0-18.7092-6.756-18.7092-20.4764V397.185h-7.068v-11.4337h7.068v-11.5375l14.3437-.7274v12.2649h11.5374v11.4337h-11.5375v22.2432c0 6.0287 2.4948 8.835 7.172 8.835a25.2043 25.2043 0 005.5089-.6235l.7277 11.5375a39.6473 39.6473 0 01-9.043.935zm36.205 0c-14.24 0-21.412-6.9638-21.412-16.3185 0-10.2904 8.4193-16.319 20.8922-16.4228a65.0877 65.0877 0 019.2506.8318v-2.4949c0-6.3401-3.6379-9.3547-10.6019-9.3547a36.4665 36.4665 0 00-13.7203 2.4948l-2.5984-11.2254c4.4694-1.8713 11.6414-3.1185 17.9818-3.1185 15.2792 0 22.8668 8.1076 22.8668 22.1394v28.8955c-4.2615 2.1828-12.265 4.5733-22.6589 4.5733zm8.7308-11.7452v-11.1217a34.9102 34.9102 0 00-7.3799-.8318c-4.7812 0-8.523 1.8713-8.523 6.7566 0 4.3656 3.1183 6.6522 8.6271 6.6522a16.2707 16.2707 0 007.2758-1.4553zm63.0033-40.7445l-2.7025 11.3293a31.661 31.661 0 00-11.7452-2.5987c-8.4191 0-12.9926 5.9248-12.9926 15.6954 0 10.7057 4.7812 16.2146 13.7203 16.2146a29.4253 29.4253 0 0011.5373-2.7025l2.2868 11.5375a34.9856 34.9856 0 01-14.9674 3.014c-17.2544 0-27.2327-10.7057-27.2327-27.6482 0-16.8382 9.8745-27.9599 26.4009-27.9599a40.0643 40.0643 0 0115.695 3.1184zm31.5364 52.4897c-12.3688 0-18.7092-6.756-18.7092-20.4764V397.185h-7.0681v-11.4337h7.068v-11.5375l14.3437-.7274v12.2649h11.5375v11.4337H617.622v22.2432c0 6.0287 2.4948 8.835 7.172 8.835a25.2043 25.2043 0 005.5089-.6235l.7277 11.5375a39.6473 39.6473 0 01-9.043.935z"></path>
  <path fill="url(#a)" d="M227.3793 329.7277c75.9 0 113.85-50.6002 151.8-101.2003H127.3282v101.2003z"></path>
  <path fill="url(#b)" d="M530.9794 127.327c-75.9 0-113.85 50.6002-151.8 101.2004h251.851V127.327z"></path>
</svg>