<svg xmlns="http://www.w3.org/2000/svg" xmlns:xlink="http://www.w3.org/1999/xlink" viewBox="0 0 306 161">
<defs>
	<linearGradient id="black" x1="153" y1="161" x2="153" gradientUnits="userSpaceOnUse">
		<stop offset="0" stop-color="#262626"/>
		<stop offset="1"/>
	</linearGradient>
	<radialGradient id="red" cx="78.33" cy="17.33" r="60.65" gradientUnits="userSpaceOnUse">
		<stop offset="0" stop-color="red"/><stop offset="0.49" stop-color="#e83e49"/>
		<stop offset="1" stop-color="#f0f"/>
	</radialGradient>
</defs>
<rect fill="url(#black)" width="306" height="161" rx="25.42"/>
<g fill="#fff">
	<rect x="126" y="24.08" width="20.75" height="116.25"/>
	<rect x="164.5" y="63.33" width="20.75" height="77"/>
	<polygon points="278.25 140.33 247.07 99.58 247.07 99.58 275.75 63.33 251.25 63.33 223.75 98.5 223.75 24.08 203 24.08 203 140.33 223.75 140.33 223.75 100.8 251.25 140.33 278.25 140.33"/><path class="cls-2" d="M73.13,62.46A39.15,39.15,0,0,0,54.5,67.14V24.08H33.75v77.75A39.38,39.38,0,1,0,73.13,62.46Zm0,58a18.63,18.63,0,1,1,18.62-18.63A18.63,18.63,0,0,1,73.13,120.46Z"/>
</g>
<circle fill="url(#red)" cx="93.38" cy="36.83" r="18.5"/>
</svg>