<svg xmlns="http://www.w3.org/2000/svg" xml:space="preserve" style="enable-background:new 0 0 591 407" viewBox="92.67 84.36 405.75 236.66"><path d="M113.33 305.42c2.29-1.24 3.74-3.49 3.74-6.39 0-4.52-3.62-7.56-10.65-7.56H92.67v29.06h14.55c7.39.01 11.25-2.9 11.25-7.93.01-3.65-2-6.14-5.14-7.18zm-14.18-8.88h6.47c3.18 0 4.9 1.13 4.9 3.4 0 2.28-1.73 3.45-4.9 3.45h-6.47v-6.85zm7.59 18.93h-7.6v-7.18h7.6c3.38 0 5.19 1.16 5.19 3.61s-1.81 3.57-5.19 3.57zm3.16-110.15c4.87 4 10.5 6.97 16.55 8.72l.01-.01a46.404 46.404 0 0 0 33.82-3.21c23.16-11.85 32.34-40.23 20.49-63.39a47.063 47.063 0 0 0-20.49-20.49v.01a46.38 46.38 0 0 0-33.83-3.21 46.293 46.293 0 0 0-15.12 7.6V84.36H92.67v84.53c0 .79.02 1.57.06 2.35h-.06v42.26h16.32l.91-8.18zm16.55-64.4c3.67-1.69 7.65-2.56 11.69-2.56 8.86 0 16.8 4.15 22.14 10.69 4.56 5.6 7.03 12.61 7 19.84.03 7.22-2.45 14.24-7.01 19.84-5.35 6.54-13.28 10.68-22.14 10.68-4.04 0-8.02-.87-11.69-2.56-10.27-4.72-17.45-15.48-17.45-27.96s7.2-23.25 17.46-27.97zm5.81 150.56-5.81 13.45-6.73 15.6h6.67l.06-.15 2.43-6.08h13.06l2.49 6.23h6.83l-12.58-29.06h-6.42zm-1.28 17.73 4.45-11.13 4.46 11.13h-8.91zm42.6-.09-13.29-16.77-.7-.87h-5.38v29.06h6.43v-17.65l14.02 17.65h5.35v-29.06h-6.43zm38.52-17.64h-7.24l-10.75 11.71-1.71 1.86v-13.57h-6.47v29.06h6.47v-7.35l1.71-1.85 2.07-2.22 9 11.42h7.6l-12.34-16.11zm48.87 0v29.06h6.51v-10.59h13.02v-5.4h-13.02v-7.68h14.75v-5.39h-20.5zm-20.3-.5c-5.49 0-10.08 2.45-12.78 6.35a15.146 15.146 0 0 0-2.62 8.67c-.03 3.09.88 6.12 2.62 8.67 2.7 3.91 7.29 6.35 12.78 6.35 8.84.01 15.39-6.35 15.39-15.03s-6.55-15.01-15.39-15.01zm.75 24.33.01-.01c-5.03 0-8.8-3.78-8.8-9.29s3.78-9.29 8.8-9.29c5.03 0 8.8 3.78 8.8 9.29s-3.78 9.3-8.81 9.3zm26.14-141.73a27.38 27.38 0 0 1-5.83 17.08c-4.27 5.36-10.52 8.75-17.49 8.75-6.35 0-12.11-2.82-16.32-7.39l-.03-.05c-4.3-4.67-6.97-11.19-6.97-18.39v-49.31h-18.65v49.31c-.02 16.94 10.06 32.26 25.63 38.93a41.742 41.742 0 0 0 33.83-.51 42.314 42.314 0 0 0 24.48-38.43v-49.31h-18.66l.01 49.32zm28.04 123.38h9v23.58h6.52v-23.58h9v-5.48H295.6zm48.81 5.98h-12.78v-11.46h-6.51v29.06h6.51v-11.92h12.78v11.92h6.51v-29.06h-6.51zm50.02-11.46v29.06h6.51v-10.59h13.03v-5.4h-13.03v-7.68h14.75v-5.39h-18.7zm-31.26-166.23v.02l-.01-.01a41.426 41.426 0 0 0-16.32-3.33c-6.04-.01-12.02 1.3-17.51 3.84a42.332 42.332 0 0 0-24.47 38.43v49.31h18.65V164.2a27.397 27.397 0 0 1 5.81-17.05v.01c4.27-5.38 10.54-8.78 17.51-8.78 6.35 0 12.12 2.81 16.32 7.39l.01-.01c4.31 4.69 6.99 11.22 6.99 18.43v49.31h18.65v-49.31a42.277 42.277 0 0 0-25.63-38.94zm.14 183.16h13.06v-5.23h-13.06v-6.31h14.79v-5.39h-21.26v29.06h21.79v-5.4h-15.32zm92.82 6.73v-6.73h13.06v-5.23h-13.06v-6.31h14.79v-5.39h-21.27v29.06h21.79v-5.4h-6.84zm-11.62-13.12c0-6.52-4.7-10.54-12.22-10.54h-12.17v29.06h6.51v-8.1h4.15l.01-.01h1.83l5.43 8.09h6.99l-6.31-9.33c3.65-1.61 5.78-4.81 5.78-9.17zm-12.58 5.07h-5.3v-10.13h5.31c3.98 0 5.99 1.87 5.99 5.07-.01 3.15-2.02 5.06-6 5.06zm66.49-182.82H482.1l-.9 8.18a46.52 46.52 0 0 0-16.58-8.72v.02l-.01-.02a46.428 46.428 0 0 0-33.83 3.22c-23.16 11.86-32.31 40.25-20.44 63.41a47.099 47.099 0 0 0 20.44 20.44v.01a46.428 46.428 0 0 0 33.83 3.22l.01-.02v.02a46.439 46.439 0 0 0 15.15-7.6v46.97h18.65v-84.52c0-.79-.02-1.57-.06-2.35h.06v-42.26zm-33.8 72.59h-.01a27.972 27.972 0 0 1-11.67 2.55c-8.86 0-16.81-4.16-22.15-10.7l-.01-.02a31.23 31.23 0 0 1-6.98-19.8 31.305 31.305 0 0 1 6.98-19.82v-.01c5.35-6.55 13.29-10.7 22.16-10.7 4.03 0 8.01.87 11.67 2.55h.01c10.28 4.72 17.48 15.48 17.48 27.98s-7.2 23.25-17.48 27.97zm18.47 111.55h13.07v-5.23h-13.07v-6.31h14.8v-5.39h-21.27v29.06h21.79v-5.4h-15.32z"/></svg>