<svg xmlns="http://www.w3.org/2000/svg" viewBox="0 0 96 24">
    <g style="opacity:.07;isolation:isolate">
        <path d="M35-.05H3a2.95 2.95 0 00-3 3v18a3 3 0 003 3h32a2.95 2.95 0 003-3v-18a3 3 0 00-3-3z"/>
        <path d="M93 0H61a2.95 2.95 0 00-3 3v18a3 3 0 003 3h32a2.95 2.95 0 003-3V3a3 3 0 00-3-3z"/>
    </g>
    <g fill="#fff">
        <path d="M35 .95a2 2 0 012 2v18a2 2 0 01-2 2H3a2 2 0 01-2-2v-18a2 2 0 012-2h32" class="cls-2"/>
        <path d="M93 1a2 2 0 012 2v18a2 2 0 01-2 2H61a2 2 0 01-2-2V3a2 2 0 012-2h32" class="cls-2"/>
    </g>
    <g id="visa">
        <path fill="#142688" d="M28.3 10.05H28a13.08 13.08 0 00-1 3h1.9a22.11 22.11 0 00-.6-3zm2.9 5.9h-1.7c-.1 0-.1 0-.2-.1l-.2-.9-.1-.2h-2.4c-.1 0-.2 0-.2.2l-.3.9a.1.1 0 01-.1.1h-2.1l.2-.5 2.9-6.8c0-.5.3-.7.8-.7h1.5c.1 0 .2 0 .2.2l1.4 6.5a4.25 4.25 0 01.2 1.1c.1.1.1.1.1.2zm-13.4-.3l.4-1.8a.35.35 0 01.2.1 3.95 3.95 0 002.1.4 1.85 1.85 0 00.7-.2c.5-.2.5-.7.1-1.1a5.58 5.58 0 00-.8-.5 4.13 4.13 0 01-1.1-.7 2.04 2.04 0 01-.1-3.1c.6-.4.9-.8 1.7-.8a13.28 13.28 0 013.1.2h.1a10.46 10.46 0 01-.4 1.7 4.2 4.2 0 00-1.5-.4 2.77 2.77 0 00-.9.1.52.52 0 00-.4.2.48.48 0 000 .7l.5.4a10.9 10.9 0 011.1.6 2.2 2.2 0 011.1 1.4 2.15 2.15 0 01-.9 2.3 1.82 1.82 0 01-1.4.6 11.69 11.69 0 01-3.4-.2c-.1.2-.1.2-.2.1zm-3.5.3a4.07 4.07 0 01.2-1c.5-2.2 1-4.5 1.4-6.7.1-.2.1-.3.3-.3H18a30.05 30.05 0 01-.7 3.2c-.3 1.5-.6 3-1 4.5 0 .2-.1.2-.3.2M5 8.15c0-.1.2-.2.3-.2h3.4a.97.97 0 011 .8l.9 4.4c0 .1 0 .1.1.2a.1.1 0 01.1-.1l2.1-5.1c-.1-.1 0-.2.1-.2h2.1c0 .1 0 .1-.1.2l-3.1 7.3c-.1.2-.1.3-.2.4s-.3 0-.5 0H9.7c-.1 0-.2 0-.2-.2l-1.6-6.2a2.03 2.03 0 00-.9-.6 6.66 6.66 0 00-1.9-.5z"/>
    </g>
    <g id="mastercard">
        <circle cx="73" cy="12" r="7" fill="#eb001b"/>
        <circle cx="81" cy="12" r="7" fill="#f79e1b"/>
        <path fill="#ff5f00" d="M80 12a6.83 6.83 0 00-3-5.7 7.1 7.1 0 00-3 5.7 6.96 6.96 0 003 5.7 6.83 6.83 0 003-5.7z"/>
    </g>
</svg>