<svg xmlns="http://www.w3.org/2000/svg" viewBox="0 0 118 24" width="118" height="24" role="img">
    <title>Cards</title>
    <defs>
        <style>
            .cards-outline{isolation:isolate;opacity:.07}.cards-bg{fill:#fff}
        </style>
    </defs>
    <path d="M115 0H83c-1.7 0-3 1.3-3 3v18c0 1.7 1.4 3 3 3h32c1.7 0 3-1.3 3-3V3c0-1.7-1.4-3-3-3Z" class="cards-outline"/>
    <path fill="#006fcf" d="M115 1c1.1 0 2 .9 2 2v18c0 1.1-.9 2-2 2H83c-1.1 0-2-.9-2-2V3c0-1.1.9-2 2-2h32"/>
    <path d="m88.97 10.27.77 1.88H88.2l.77-1.88Zm16.08.08h-2.98v.83H105v1.24h-2.92v.92h2.98v.74l2.08-2.24-2.08-2.34v.86ZM90.98 8.01h3.99l.89 1.94.82-1.94h10.37l1.08 1.19 1.12-1.19h4.76l-3.52 3.85 3.48 3.83h-4.83l-1.08-1.19-1.12 1.19H90.03l-.49-1.19h-1.13l-.49 1.19h-3.91l3.29-7.68H91Zm8.67 1.07h-2.24l-1.5 3.54-1.63-3.54h-2.22v4.81L90 9.08h-1.99l-2.38 5.51h1.55l.49-1.19h2.6l.49 1.19h2.72v-3.93l1.75 3.94h1.19l1.74-3.93v3.93h1.46l.02-5.52Zm9.34 2.77 2.53-2.77h-1.82l-1.6 1.73-1.55-1.73h-5.89v5.52h5.81l1.61-1.74 1.55 1.74h1.88L109 11.85Z" class="cards-bg"/>
    <path d="M35 0H3C1.3 0 0 1.3 0 3v18c0 1.66 1.34 3 3 3h32c1.7 0 3-1.3 3-3V3c0-1.66-1.34-3-3-3Z" class="cards-outline"/>
    <path d="M35 1c1.1 0 2 .9 2 2v18c0 1.1-.9 2-2 2H3c-1.1 0-2-.9-2-2V3c0-1.1.9-2 2-2h32" class="cards-bg"/>
    <path fill="#1434cb" d="m15.1 7.95-3.4 8.12H9.48L7.8 9.59c-.1-.4-.19-.55-.5-.71-.66-.31-1.35-.55-2.07-.69l.05-.24h3.57c.46 0 .87.3.97.83l.88 4.7 2.19-5.53h2.21Zm8.7 5.47c0-2.14-2.96-2.26-2.94-3.22 0-.29.28-.6.89-.68.3-.04 1.13-.07 2.07.36l.37-1.72c-.63-.23-1.3-.36-1.97-.36-2.08 0-3.54 1.1-3.55 2.68-.01 1.17 1.04 1.82 1.84 2.21.82.4 1.09.65 1.09 1.01 0 .54-.65.79-1.26.79-1.06.02-1.67-.29-2.16-.51l-.38 1.78c.49.23 1.4.42 2.34.43 2.21 0 3.65-1.09 3.66-2.78m5.48 2.65h1.94l-1.7-8.12h-1.79c-.4 0-.74.23-.89.6l-3.15 7.53h2.21l.44-1.21h2.7l.25 1.21h-.01Zm-2.34-2.88 1.11-3.05.64 3.05h-1.75ZM18.1 7.94l-1.74 8.12h-2.1L16 7.94h2.1Z"/>
    <path d="M75 0H43c-1.7 0-3 1.3-3 3v18c0 1.7 1.4 3 3 3h32c1.7 0 3-1.3 3-3V3c0-1.7-1.4-3-3-3Z" class="cards-outline"/>
    <path d="M75 1c1.1 0 2 .9 2 2v18c0 1.1-.9 2-2 2H43c-1.1 0-2-.9-2-2V3c0-1.1.9-2 2-2h32" class="cards-bg"/>
    <circle cx="55" cy="12" r="7" fill="#eb001b"/>
    <circle cx="63" cy="12" r="7" fill="#f79e1b"/>
    <path fill="#ff5f00" d="M62 12c0-2.4-1.2-4.5-3-5.7-1.8 1.3-3 3.4-3 5.7s1.2 4.5 3 5.7c1.8-1.2 3-3.3 3-5.7Z"/>
</svg>