<svg xmlns="http://www.w3.org/2000/svg" version="1.0" viewBox="0 0 1300 413">
	<g fill="#ff6416">
		<path d="M170.4 57.4c-11.9 3-22.9 13.4-23.3 22.1-.3 6.6 0 9.6 1.4 12.8 1.5 3.7 10.8 13.9 12.2 13.5.4-.1 2.4.6 4.3 1.7 4.2 2.2 16.8 3 22.6 1.3 7.4-2.2 14.5-7.8 18.3-14.3 6.7-11.5 1.5-26.4-11.7-33.8-1.8-1-3.2-1.5-3.2-1.1 0 .3-.6.1-1.4-.5-1.3-1.1-4.4-1.8-11.1-2.6-1.6-.2-5.3.2-8.1.9z"/>
		<path d="M165 138.6c-6.6.6-25.3 3.4-27 4.1-.8.3-3.1.8-5 1-1.9.2-4 .9-4.7 1.5-.7.6-1.3.8-1.3.4 0-.3-1.2-.1-2.7.5-1.6.6-3.9 1.3-5.3 1.6-1.4.2-2.9.8-3.4 1.4-.6.5-1.7.9-2.5.9-2.6.1-15.2 6.6-14.4 7.4.4.4 0 .4-.8.1-.9-.3-2.2.1-2.9 1-.7.8-1.9 1.5-2.6 1.5-.8 0-1.4.4-1.4.9s-1.2 1.4-2.8 2c-1.5.6-4.2 2.5-5.9 4.1-1.8 1.7-3.6 3-4 3-1.1 0-4.3 3.7-4.3 5 0 .6-.4.9-.9.7-3-.8-17.2 23-18.6 31.3-1.4 8.6-1.5 21.2-.1 27.7 1.5 7.2 7.3 21.3 8.7 21.3.5 0 .9.6.9 1.3 0 1.3 12.7 14.9 16.6 17.7 7.1 5.2 8.6 6 9.6 5.4.6-.4.8-.3.5.3-.6 1 8.8 5.5 17.3 8.3 14 4.6 24.2 5.5 29.8 2.6 1.7-.9 3.2-2.1 3.2-2.6s.6-1.5 1.3-2.2c3.2-3.4 3.6-8.1 3.7-41 0-30.6.2-33.5 2.1-39.2 3.7-10.9 11.9-19.4 23.6-24.4 2.8-1.2 5.9-2.2 6.8-2.2.9 0 1.4-.3 1.2-.8-.3-.4.5-.7 1.6-.8 1.2 0 3.8-.4 5.7-.9 4.2-.9 39.1-1.5 40.5-.7.6.4 1.9.8 3 .9 5.8.9 19.7 4.9 24.5 7 13.2 6 16.5 7.7 17.2 8.7.5.7.8.7.8.1s.3-.6.8 0c1.6 2.3 6.5 5.4 7.6 4.8.6-.3.8-.3.4.2-.4.4 1.8 2.7 4.8 5.2 3 2.4 6.9 5.9 8.7 7.8 3.8 3.9 5.4 4.4 8.6 2.6 2-1.1 2.3-1.8 1.8-5.3-.3-2.3-1.1-4.5-1.9-4.9-.7-.5-1-.9-.5-.9 1 0-1.7-5.2-6.7-12.8-2.2-3.4-4.6-6-5.3-5.8-.7.3-1-.1-.7-.7.5-1.3-10.5-12.3-15.3-15.4-1.6-1-3-2.1-3.3-2.4-1-1.3-16.6-10.4-21-12.3-2.5-1-6.3-2.6-8.5-3.6-3.9-1.7-16.6-5.9-19.5-6.5-.8-.2-2.6-.6-4-.9-1.4-.3-4.3-.9-6.5-1.2-2.2-.3-5.1-.7-6.5-1-7.6-1.4-32.5-2.5-41-1.8z"/>
		<path d="M220.3 202.6c-2.4.9-4.5 2.4-4.8 3.5-.4 1-1 1.9-1.5 1.9-1.9 0-2.4 7.1-2.6 36.5-.2 33.9-.4 37.4-3.4 45.4-2.6 7.1-10.7 17.2-14.5 18.1-.5.1-2.2 1.1-3.7 2.1-1.4 1-3 1.9-3.6 1.9-.5 0-2.7.8-4.8 1.7-4 1.7-5.3 2.1-8.9 2.7-1.1.2-3.6.6-5.5.9-3.5.6-13.6 1.9-15.5 1.9-.8.1-7.1-.4-23.6-1.7-1.4-.1-3-.4-3.5-.7-.5-.3-2.5-.9-4.5-1.2-2-.3-4.8-1-6.3-1.5-1.4-.6-2.6-.8-2.6-.5 0 .4-.6.1-1.3-.5-.8-.6-2.2-1.2-3.3-1.4-1-.2-2.9-.8-4.1-1.5-1.2-.7-2.8-1.2-3.5-1.2-1.7 0-21.9-12-26.2-15.6-1.7-1.4-5.9-5.3-9.3-8.5-3.4-3.2-6.9-5.9-7.7-5.9-2.7 0-5.6 4.1-4.9 6.9 1.9 7.9 9.4 20 17.7 28.7 2.3 2.4 4 4.6 3.8 4.9-.3.3 0 .5.6.5s2.4 1.2 4 2.7c5.2 4.9 12.2 9.4 13.4 8.7.6-.4.8-.3.5.3-.6.9 4.5 4.5 5.9 4.3.4-.1 1 .2 1.3.7.8 1.2 12.2 6.5 20.6 9.6 11.1 4.2 27.5 8 34.8 8.1 2 .1 3.7.4 3.7.7 0 1.3 31 1.7 39.3.4 2.3-.3 6.5-.8 9.2-1.1 2.8-.3 5.7-.7 6.5-1 .8-.3 3.5-.8 6-1.1 2.5-.3 4.7-.9 4.8-1.4.2-.5.7-.7 1.1-.5.8.5 14.6-3.4 19.6-5.4 9.5-4 16.4-7.4 16-8-.2-.3.6-.7 1.8-.7 1.2-.1 2.3-.7 2.5-1.3.2-.5.9-1 1.6-1 .7 0 2.2-.9 3.4-2 1.2-1.2 2.2-1.7 2.2-1.3 0 .4.6 0 1.3-.8.6-.9 3.6-3.5 6.5-5.9 3.3-2.6 5.1-4.8 4.8-5.7-.3-.8-.1-1.1.4-.8 2.7 1.7 14.4-16.6 17.4-27 2.4-8.6 3-19.3 1.6-27.2-1.7-9.2-6.5-22.3-8.2-22.3-.4 0-.8-.6-.8-1.3 0-1.2-1.2-2.8-8.4-11.3-1.5-1.9-3.3-3.1-4-2.7-.6.3-.8.3-.4-.2.4-.4-.2-1.7-1.5-2.8-16.1-14.2-47-24.6-59.4-20.1z"/>
	</g>
	<g fill="#000">
		<path d="M478.5 139c-12.7 1.5-26.8 5.5-38 10.9-39.1 18.6-60.5 53.2-60.5 97.6 0 17.6 3.2 33.6 9.6 47.3 14.3 31.1 43.2 52.7 79.9 59.8 11.1 2.2 34 2.4 44.5.5 8.8-1.6 25.2-6.7 26.1-8.2.3-.5-.6-7.8-2-16.2-3-17.7-2.1-16.9-14.6-11.4-11.6 5.2-22.5 7.1-36 6.4-30.4-1.6-53.8-16.2-66-41.2-6.3-13.1-7.9-20.4-8-36.5 0-16.3 1.7-24.3 8.2-38 3.9-8.2 5.8-10.7 13.7-18.6 6.5-6.4 11.1-10 16.1-12.6 23.3-11.9 49.6-13 72-3.1 12.5 5.5 11.6 6.3 14.6-11.5l2.6-15.3-2.1-1.4c-10-6.4-40.4-10.7-60.1-8.5z"/>
		<path d="M585.5 198.2c-1.3 5-4.2 25.3-3.8 26 .2.5 13.6.8 29.7.8 32.9 0 37.5.7 43.2 6.4 3.4 3.4 5.4 10.1 5.4 18.1v4.5h-14.7c-25.3 0-39.8 2.3-52.2 8-20.1 9.4-29.6 24.3-29.5 46.5.1 8 .5 11.2 2.4 16 4.8 12.4 12.3 21 23.2 26.6 21.4 10.9 47.8 6.3 66.4-11.5 2.6-2.5 4.9-4.6 5.1-4.6.2 0 .3 4.1.3 9v9.1l14.3-.3 14.2-.3v-55c0-49.9-.2-55.7-1.8-63-4.6-19.9-14.7-30.8-33.2-36.1-4.9-1.4-11.8-1.8-37.2-2.1l-31.2-.5-.6 2.4zm74.2 91.3c-.7 11.5-4 19.6-10.8 26.4-12 11.9-34.7 16.3-46.5 9-9.9-6.1-13.2-20.1-7.1-30.1 6.2-10.3 20.2-14.4 50.1-14.7l14.9-.1-.6 9.5z"/>
		<path d="M720.5 197.2c-.3.7-.4 35.9-.3 78.3l.3 77h30l.5-51.5c.5-50.4.5-51.6 2.7-57 4.4-10.8 12.4-16.3 26.4-18.1 4.6-.6 8.9-1.3 9.5-1.4 1.2-.4 4.7-17.5 4.8-24 .1-3.9 0-4-3.7-4.3-6.4-.5-17.8 1.7-24.5 4.8-3.7 1.7-8.2 5-11.2 8l-4.9 5.1-.3-8.8-.3-8.8-14.3-.3c-10.8-.2-14.4 0-14.7 1z"/>
		<path d="M850 163.9l-13.5 4.8-.3 13.6-.3 13.7h-10.4c-9 0-10.4.2-10.9 1.7-1.4 5-4.7 24.7-4.2 25.9.4 1.1 3.3 1.4 13 1.4h12.4l.5 48.7c.3 30.5.9 50.7 1.6 53.8 1.7 7.8 6.7 17 11.3 21 8.6 7.3 21.9 9.8 37.5 7.1 5-.9 10.3-2.1 11.7-2.7l2.6-1.2v-15c0-13.8-.1-14.9-1.7-14.4-1 .3-5.1 1.7-9.1 3.2-9 3.2-14.8 2.7-19.6-1.6l-3.1-2.7-.3-48.1-.3-48.1 16.3-.2 16.3-.3 2.1-13.5c1.6-9.8 1.8-13.7 1-14.2-.6-.4-8.9-.8-18.3-.8H867l-.2-18.2c-.3-15.3-.5-18.3-1.8-18.5-.8-.1-7.6 1.9-15 4.6z"/>
		<path d="M937.1 198.2c-1.1 2.7-4.1 20.3-4.1 24.2v2.6h29c33.6 0 37.8.6 43.2 5.9 3.8 3.8 5.2 7.6 6.3 17.2l.6 5.6-21.3.6c-23.1.7-32.8 2-42.7 6.1-22.2 9-33.1 24.6-33.1 47.1 0 15.1 4.2 25.6 14.3 35.6 9.8 9.7 23.7 14.5 39.2 13.6 14.5-.9 26.4-6.1 37.6-16.4l5.9-5.5V353h29.1l-.4-57.3c-.3-41.1-.7-58.6-1.6-62.2-3.5-13.9-12.3-26-22.5-31-11-5.4-13.8-5.7-47.3-6.2l-31.3-.5-.9 2.4zm73.9 89.6c0 4.3-.7 10.1-1.5 12.8-4.4 14.7-18.8 25.6-37.2 27.9-6.4.8-16.4-1.6-20.9-5-6.5-5-9.5-16.7-6.5-25.8 1.8-5.4 8.8-11 16.8-13.6 9.1-2.9 17-3.8 34.6-4l14.7-.1v7.8z"/>
		<path d="M1118.5 139.4c-12.8 2.5-22.4 6.6-31.1 13.2-13.4 10.1-20.2 23.3-21.1 40.5-.5 8-.2 10.9 1.5 16.5 5.4 17.5 16.7 28 51.2 47.4 32.1 18 38 23.8 38 37.4 0 13.5-7.4 24.8-19.6 29.7-5.3 2.2-7.4 2.4-20.9 2.4-17.3-.1-22.2-1.2-35.2-8-4.6-2.4-8.5-4.1-8.7-3.7-.6 1-5.6 27.6-5.6 30 0 1.6 1.5 2.6 8.3 5 14 5 24.3 6.6 41.7 6.6 12.5-.1 17-.5 23.5-2.2 24.8-6.7 41.5-22.2 47-43.7.8-3.3 1.5-10.2 1.5-15.5 0-17.1-4.2-27.3-16.5-39.6-9.2-9.2-16.3-14.1-36.5-25-30.4-16.3-38-23.4-38-35 0-14.9 10.5-24.8 29.1-27.4 12.3-1.8 28.7.6 40.1 5.7 3.2 1.4 6.1 2.3 6.4 2 .7-.7 5.2-29 4.7-29.9-.4-.9-12.5-4.4-19.8-5.8-9.7-1.8-32-2.2-40-.6z"/>
		<path d="M1225 136c-10.5 2-17 10-17 21 0 11.5 9.1 20.3 21 20.3 8.7 0 15.2-4.4 19.1-12.8 6.7-14.6-7.1-31.7-23.1-28.5z"/>
		<path d="M1214 275.5V353h30V198h-30v77.5z"/>
	</g>
</svg>