<svg xmlns="http://www.w3.org/2000/svg" viewBox="0 0 64 64"><g fill="#FFF"><path fill="#00D632" d="M41.7 0c6.4 0 9.6 0 13.1 1.1a13.6 13.6 0 0 1 8.1 8.1C64 12.7 64 15.9 64 22.3v19.4c0 6.4 0 9.6-1.1 13a13.6 13.6 0 0 1-8.1 8.2C51.3 64 48.1 64 41.7 64H22.3c-6.4 0-9.6 0-13.1-1.1a13.6 13.6 0 0 1-8.1-8.1C0 51.3 0 48.1 0 41.7V22.3c0-6.4 0-9.6 1.1-13.1a13.6 13.6 0 0 1 8.1-8.1C12.7 0 15.9 0 22.3 0h19.4z"/><path d="M42.5 23.8c.5.5 1.3.5 1.8 0l2.5-2.6c.5-.5.5-1.4 0-2a19.7 19.7 0 0 0-6.8-3.8l.8-3.8c.1-.8-.5-1.6-1.3-1.6h-4.8a1.3 1.3 0 0 0-1.3 1l-.7 3.4c-6.5.4-12 3.6-12 10.3 0 5.9 4.6 8.3 9.4 10 4.5 1.8 6.9 2.4 6.9 4.8 0 2.5-2.4 4-6 4-3.1 0-6.5-1-9.1-3.7a1.3 1.3 0 0 0-1.8 0l-2.7 2.7a1.4 1.4 0 0 0 0 2c2 2 4.7 3.5 7.8 4.3l-.8 3.6c-.2.8.5 1.6 1.3 1.6h4.8a1.3 1.3 0 0 0 1.3-1l.7-3.4c7.8-.5 12.5-4.8 12.5-11 0-5.8-4.7-8.2-10.4-10.2-3.3-1.2-6-2-6-4.5 0-2.4 2.6-3.4 5.2-3.4 3.4 0 6.6 1.4 8.7 3.3z"/></g></svg>