<svg xmlns="http://www.w3.org/2000/svg" viewBox="0 0 183.7713 143.31265">
    <defs>
        <style>.cls-1{fill:#009fe2;}.cls-2{fill:#0e3963;}</style>
    </defs>
    <circle class="cls-1" cx="192.28116" cy="44.65975" r="31.72427"
            transform="translate(-100.11826 -9.36336) rotate(-1.06285)"/>
    <path class="cls-1"
          d="M215.68,70.32528a41.80645,41.80645,0,0,1-55.9351,4.39788c-34.63531,3.63474-60.39378,8.78556-60.39378,8.78556v14.025l183.7431-.02V68.5984S251.61076,68.40349,215.68,70.32528Z"
          transform="translate(-99.32294 -12.93768)"/>
    <path class="cls-2"
          d="M283.09424,153.74866a65.55092,65.55092,0,0,1-17.97847,2.50167c-21.5946,0-37.44838-6.13771-37.44838-23.98861,0-16.132,15.3664-23.141,36.37224-23.141,5.83824,0,13.2537.6447,19.05461,2.49656l-.00758,15.62528a26.54463,26.54463,0,0,0-14.75456-4.22661c-8.01207,0-16.019,3.94523-16.019,9.67244,0,5.74141,7.97149,9.67367,16.019,9.67367a27.78556,27.78556,0,0,0,14.75456-4.16141Z"
          transform="translate(-99.32294 -12.93768)"/>
    <path class="cls-2"
          d="M154.74979,153.74866a65.55085,65.55085,0,0,1-17.97846,2.50167c-21.59461,0-37.44839-6.13771-37.44839-23.98861,0-16.132,15.3664-23.141,36.37224-23.141,5.83824,0,13.2537.6447,19.05461,2.49656l-.00758,15.62528a26.54461,26.54461,0,0,0-14.75456-4.22661c-8.01206,0-16.019,3.94523-16.019,9.67244,0,5.74141,7.97149,9.67367,16.019,9.67367a27.78556,27.78556,0,0,0,14.75456-4.16141Z"
          transform="translate(-99.32294 -12.93768)"/>
    <path class="cls-2"
          d="M163.89745,110.16612H208.02c11.46129,0,15.21756,4.45732,15.21756,11.39641,0,7.767-6.941,11.1423-14.07121,11.52338v.12783c7.3214.57353,14.45294,1.40025,14.45294,10.56878,0,5.98577-3.75693,11.84366-16.3634,11.84366H163.89745ZM185.724,146.38421h11.38058c4.26558,0,5.719-1.76609,5.719-4.37537,0-2.61058-1.468-4.48551-5.67023-4.48551H185.72274Zm0-16.95209H196.5954c4.20192,0,5.84712-1.7018,5.84712-4.31238,0-2.99159-1.66011-4.48486-5.54364-4.48486H185.72274Z"
          transform="translate(-99.32294 -12.93768)"/>
</svg>