<svg xmlns="http://www.w3.org/2000/svg" viewBox="0 0 99.9986 37.5904">
    <circle cx="62.4986" cy="12.5" r="12.5" fill="#335e9f"/>
    <path fill="#fff" d="m56.943 20.169 1.862-6.0486-2.028.619.5384-1.4896 1.862-.5787 2.6016-8.5598c.0553-.1811.2264-.307.4177-.307h2.657c.2918 0 .4981.2819.4176.5586l-2.1135 7.0653 1.9072-.5385-.3472 1.4392-1.9676.5938-1.3738 4.388h6.9948c.2113 0 .3623.2014.307.4027l-.609 2.2242c-.0402.1359-.161.2315-.307.2315H56.943Z"/>
    <circle cx="87.4986" cy="25.0905" r="12.5" fill="#2775ca"/>
    <path fill="#fff" d="M85.1526 33.7846c0 .292-.2366.458-.5084.3725-3.7858-1.2132-6.5193-4.7523-6.5193-8.9408 0-4.1784 2.7335-7.7225 6.5243-8.9358.282-.0855.5085.0806.5085.3726v.73c0 .1963-.146.4178-.3323.4883-3.0004 1.1025-5.1349 3.982-5.1349 7.3449 0 3.3679 2.1396 6.2425 5.135 7.3349.1862.0705.3322.292.3322.4883v.745h-.005Z"/>
    <path fill="#fff" d="M88.2789 31.0761a.3932.3932 0 0 1-.3927.3927h-.7803a.3932.3932 0 0 1-.3927-.3927v-1.2283c-1.7066-.2366-2.5372-1.183-2.7637-2.492-.0403-.2265.1359-.4178.3624-.4178h.891c.1863 0 .3424.136.3827.3121.1661.7703.6142 1.3693 1.9835 1.3693 1.0068 0 1.7267-.5688 1.7267-1.4045 0-.8407-.4178-1.163-1.903-1.4046-2.1898-.292-3.2218-.9565-3.2218-2.6681 0-1.319 1.0068-2.356 2.5473-2.5675v-1.2132a.3932.3932 0 0 1 .3926-.3927h.7804a.3932.3932 0 0 1 .3926.3927v1.2384c1.2586.2265 2.059.9364 2.3258 2.1295.0504.2265-.1258.4279-.3624.4279h-.8206c-.1762 0-.3222-.1158-.3725-.282-.2266-.75-.7602-1.0823-1.7016-1.0823-1.037 0-1.5707.4984-1.5707 1.2032 0 .74.302 1.1126 1.8929 1.3391 2.1496.292 3.2622.9062 3.2622 2.7336 0 1.3844-1.037 2.512-2.648 2.7638v1.2485h-.0101v-.005Z"/>
    <path fill="#fff" d="M90.348 34.152c-.282.0857-.5085-.0805-.5085-.3725v-.73c0-.2164.1259-.4178.3323-.4882 2.9903-1.0925 5.1349-3.977 5.1349-7.335 0-3.3678-2.1396-6.2424-5.135-7.3348-.1862-.0705-.3322-.292-.3322-.4883v-.73c0-.292.2366-.4581.5085-.3725 3.7907 1.1931 6.5243 4.7372 6.5243 8.9156 0 4.1885-2.7336 7.7276-6.5243 8.9358Z"/>
    <path fill="#f7931a" d="M24.6232 15.5238c-1.6695 6.6965-8.452 10.7719-15.1492 9.102C2.7795 22.9563-1.2958 16.1734.3744 9.4775 2.043 2.7803 8.8256-1.2954 15.5208.374c6.6968 1.6694 10.7719 8.453 9.1022 15.1499l.0001-.0002h.0001Z"/>
    <path fill="#fff" d="M18.0105 10.719c.2488-1.6634-1.0176-2.5576-2.7494-3.154l.5618-2.2534-1.3717-.3418-.5469 2.194c-.3606-.09-.7309-.1747-1.099-.2587l.5509-2.2085-1.3708-.3418-.5621 2.2526c-.2984-.068-.5915-.135-.8759-.2058l.0016-.0071-1.8915-.4724-.365 1.465s1.0177.2333.9963.2477c.5554.1386.6559.5063.6392.7978l-.64 2.567c.0383.0097.088.0238.1427.0458-.0458-.0114-.0945-.0238-.145-.0359l-.897 3.5961c-.0679.1688-.2402.422-.6285.3259.0137.0199-.997-.2488-.997-.2488l-.681 1.57 1.785.445c.332.0834.6575.1705.978.2524l-.5677 2.2792 1.3701.3418.5621-2.255c.3743.1016.7376.1953 1.0932.2837l-.5603 2.2443 1.3718.3418.5675-2.2749c2.339.4427 4.0977.2642 4.838-1.8514.5965-1.7033-.0297-2.6858-1.2602-3.3265.8962-.2067 1.5713-.7962 1.7513-2.0139l-.0004-.0003v.0002Zm-3.1339 4.3947c-.4239 1.7033-3.2918.7825-4.2216.5516l.7533-3.0195c.9297.2321 3.9113.6915 3.4684 2.4679Zm.4242-4.4193c-.3867 1.5493-2.7736.7622-3.548.5692l.683-2.7385c.7743.193 3.2678.5532 2.8651 2.1693Z"/>
    <path fill="#8a92b2" d="M37.4962 21.833v-9.2426l-7.6724 12.7297 7.6724-3.487Z"/>
    <path fill="#62688f" d="M37.4962 29.857v-8.024l-7.6724 3.487 7.6724 4.537Zm0-8.024 7.6725 3.487-7.6725-12.7296v9.2426Z"/>
    <path fill="#454a75" d="M37.4962 21.833v8.024l7.6725-4.537-7.6725-3.487Z"/>
    <path fill="#8a92b2" d="m37.4962 31.31-7.6724-4.5323 7.6724 10.8127V31.31Z"/>
    <path fill="#62688f" d="M45.1734 26.7777 37.4962 31.31v6.2804l7.6772-10.8127Z"/>
</svg>