<svg xmlns="http://www.w3.org/2000/svg" viewBox="0 0 300 200">
  <g fill="#C8036F">
    <path d="M58.872 148.243c-15.607 0-28.729-11.121-32.279-25.649 0 0-1.026-4.805-1.026-7.968s.972-8.017.972-8.017c3.576-14.493 16.681-25.285 32.262-25.285 18.326 0 33.363 14.897 33.363 33.223v8.06H43.477c2.875 5.618 8.689 8.779 15.396 8.779h43.769l.06-47.523c0-7.085-5.797-12.882-12.882-12.882H27.784c-7.085 0-12.883 5.622-12.883 12.707v62.035c0 7.085 5.797 13.058 12.883 13.058h62.034c6.359 0 11.663-4.565 12.688-10.536H58.872z"/>
    <path d="M58.801 97.094c-6.679 0-12.489 4.09-15.375 9.357h30.752c-2.887-5.267-8.697-9.357-15.377-9.357zM86.896 50.807c0-15.141-12.583-27.414-28.104-27.414-15.264 0-27.679 11.873-28.086 26.666-.007.063-.001.123-.001.188v8.239c0 .985.802 1.959 1.813 1.959h10.339c1.01 0 1.896-.974 1.896-1.959v-7.678c0-7.561 6.297-13.711 14.048-13.711 7.75 0 14.048 6.15 14.048 13.711v7.678c0 .985.819 1.959 1.83 1.959h10.34c1.01 0 1.878-.974 1.878-1.959v-7.679h-.001z"/>
  </g>
  <g fill="#fff">
  <path d="M226.672 106.451H205.16c-2.392 0-4.338-1.906-4.338-4.292 0-2.387 1.946-4.488 4.338-4.488h32.75V81.516h-32.75c-11.43 0-20.73 9.318-20.73 20.721 0 11.401 9.301 20.72 20.73 20.72h21.22c2.393 0 4.34 1.898 4.34 4.284 0 2.388-1.947 4.145-4.34 4.145h-45.502c-3.862 7.375-7.619 13.697-15.244 16.857h61.038c11.238-.162 20.432-9.672 20.432-20.974 0-11.3-9.194-20.656-20.432-20.818z"/>
  <path d="M144.21 81.516c-18.232 0-33.082 14.938-33.082 33.293v69.255h16.506v-35.821h16.541c18.232 0 33.029-15.137 33.029-33.493.001-18.354-14.762-33.234-32.994-33.234zm0 49.87h-16.575V114.75c0-9.295 7.4-16.857 16.575-16.857 9.175 0 16.639 7.563 16.639 16.857.001 9.297-7.463 16.636-16.639 16.636z"/>
    <path d="M162.729 169.666l-1.494 8.464c-.747 4.277-3.55 6.236-7.349 6.236-3.219 0-5.709-2.098-4.983-6.23l1.495-8.47h2.306l-1.496 8.464c-.456 2.637.728 4.14 2.969 4.14 2.305 0 4.276-1.371 4.755-4.134l1.494-8.47h2.303zm-9.051-2.649c0 .705.54 1.038 1.121 1.038.727 0 1.517-.52 1.517-1.495 0-.685-.458-1.037-1.06-1.037-.747-.001-1.578.476-1.578 1.494zm4.983-.021c0 .726.56 1.059 1.162 1.059.644 0 1.494-.52 1.494-1.474 0-.686-.498-1.059-1.059-1.059-.746 0-1.597.477-1.597 1.474zM168.299 169.666l-1.037 5.848c.893-1.203 2.677-1.84 3.923-1.84 2.574 0 4.359 1.509 4.359 4.311 0 3.966-2.762 6.35-6.29 6.35-1.37 0-2.533-.509-3.238-1.795l-.395 1.525h-2.015l2.554-14.398h2.139zm-1.619 9.868c-.082 1.704 1.017 2.804 2.615 2.804a4.114 4.114 0 004.09-3.924c.083-1.724-1.037-2.74-2.594-2.74-1.994 0-3.987 1.598-4.111 3.86zM179.742 179.85c-.083 1.406 1.017 2.553 2.887 2.553 1.037 0 2.406-.405 3.154-1.111l1.163 1.344c-1.267 1.162-3.135 1.74-4.712 1.74-2.948 0-4.672-1.766-4.672-4.465 0-3.592 2.823-6.269 6.436-6.269 3.302 0 5.17 1.994 4.049 6.208h-8.305zm6.56-1.754c.166-1.757-.87-2.471-2.594-2.471-1.557 0-2.99.714-3.612 2.471h6.206zM193.76 173.881l-.104 1.354c.997-1.31 2.2-1.577 3.301-1.577.997 0 1.89.354 2.367.873l-1.288 1.868c-.455-.413-.913-.621-1.701-.621-1.475 0-2.928.884-3.26 2.774l-.976 5.513h-2.139l1.806-10.184h1.994zM209.623 173.881l1.079 8.054 3.903-8.054h2.387l-5.354 10.184h-2.513l-1.018-6.719-1.64 3.339-1.785 3.38h-2.491l-1.807-10.184h2.408l1.06 8.054 3.923-8.054h1.848zM219.739 179.85c-.083 1.406 1.018 2.553 2.886 2.553 1.038 0 2.408-.405 3.154-1.111l1.163 1.344c-1.266 1.162-3.135 1.74-4.712 1.74-2.948 0-4.671-1.766-4.671-4.465 0-3.592 2.823-6.269 6.436-6.269 3.301 0 5.17 1.994 4.049 6.208h-8.305zm6.561-1.754c.165-1.757-.872-2.471-2.596-2.471-1.557 0-2.989.714-3.612 2.471h6.208zM233.901 173.881l-1.806 10.184h-2.138l1.806-10.184h2.138zm-1.888-2.775c0 .726.54 1.101 1.121 1.101.831 0 1.599-.541 1.599-1.558 0-.686-.52-1.08-1.08-1.08-.767 0-1.64.499-1.64 1.537zM243.391 176.399c-.664-.747-1.515-.955-2.532-.955-1.412 0-2.408.478-2.408 1.371 0 .747.81 1.059 2.014 1.162 1.868.166 4.256.789 3.758 3.426-.354 1.91-2.263 3.031-4.921 3.031-1.66 0-3.259-.373-4.339-1.89l1.391-1.515c.769 1.058 2.118 1.495 3.322 1.515 1.017 0 2.222-.374 2.409-1.328.187-.913-.623-1.267-2.119-1.412-1.744-.166-3.652-.809-3.652-2.739 0-2.555 2.76-3.447 4.837-3.447 1.577 0 2.739.353 3.694 1.371l-1.454 1.41zM250.141 173.881l-.975 5.484c-.313 1.744.477 2.95 2.262 2.95 1.682 0 3.114-1.394 3.404-3.097l.935-5.338h2.139l-1.806 10.184h-1.931l.145-1.476c-1.204 1.142-2.388 1.681-3.819 1.681-2.513 0-4.007-1.801-3.468-4.895l.976-5.494h2.138zM267.294 184.064l.976-5.451c.311-1.765-.29-2.934-2.242-2.934-1.702 0-3.136 1.369-3.426 3.051l-.935 5.334h-2.138l1.807-10.184h1.951l-.146 1.487c1.185-1.1 2.408-1.642 3.737-1.642 2.491 0 4.111 1.732 3.551 4.868l-.976 5.47h-2.159zM274.541 185.47c-.145 1.405.934 1.974 2.741 1.974 1.578 0 3.281-.882 3.676-3.124l.311-1.748c-.936 1.308-2.637 1.824-3.902 1.824-2.617 0-4.443-1.558-4.443-4.383 0-4.025 2.989-6.353 6.373-6.353 1.433 0 2.72.68 3.177 1.843l.353-1.622h2.076l-1.786 10.487c-.663 3.883-3.55 5.087-6.186 5.087-3.156 0-4.899-1.526-4.465-3.985h2.075zm.603-5.871c0 1.742 1.143 2.802 2.783 2.802 4.421 0 5.604-6.789 1.182-6.789-2.098-.001-3.965 1.556-3.965 3.987z"/>
  </g>
</svg>