<svg xmlns="http://www.w3.org/2000/svg" viewBox="0 0 195.5905 95.8111">
  <path fill="none" d="M193.0433 0H2.5472C1.1464 0 0 1.6034 0 3.5629v88.6853c0 1.9594 1.1464 3.5629 2.5472 3.5629h190.496c1.4013 0 2.5473-1.6034 2.5473-3.5629V3.5629c0-1.9595-1.146-3.5629-2.5472-3.5629z"/>
  <path fill="#5dc4e9" d="M27.0388 9.1598h-9.6102a1.0626 1.0626 0 00-1.0611 1.0607v9.4256h.8926v-9.4256a.1706.1706 0 01.1685-.1681h1.9324v6.8485h-1.7938l2.5708 2.7452h4.1916l2.5708-2.7452H25.106v-6.8485h1.9327a.1707.1707 0 01.1692.1681v9.4256h.8911v-9.4256a1.0617 1.0617 0 00-1.0602-1.0607z"/>
  <g fill="#1f3a6a">
    <path d="M30.479 17.913h-2.494v.667h1.963l4.879 20.066H9.641l4.878-20.066h1.963v-.667h-2.494L8.504 39.539h27.459l-5.484-21.626z"/>
    <path d="M20.2146 31.2898h4.0381a.4562.4562 0 00.4598-.4875l-.1546-2.646a.5252.5252 0 00-.5167-.4875h-3.615a.5256.5256 0 00-.5167.4875l-.1546 2.646a.4563.4563 0 00.4597.4875zm-2.0158-3.621h-3.6476a.6227.6227 0 00-.5845.4789l-.5362 2.6632a.3853.3853 0 00.392.4789h4.0666a.5429.5429 0 00.5298-.4864l.2265-2.6483a.4417.4417 0 00-.4466-.4863zm2.1783-1.0521h3.7131a.365.365 0 00.3677-.3898l-.1236-2.117a.4206.4206 0 00-.4134-.3898h-3.3743a.42.42 0 00-.4134.3898l-.1239 2.117a.3654.3654 0 00.3678.3898zm-1.7249-2.8965h-3.4117a.4981.4981 0 00-.4676.3827l-.4287 2.1308a.3078.3078 0 00.3134.383h3.7464a.4346.4346 0 00.4242-.389l.1812-2.1185a.3532.3532 0 00-.3572-.389zm11.1479 2.8965a.3073.3073 0 00.313-.3827l-.4306-2.1312a.499.499 0 00-.468-.3827h-3.399a.353.353 0 00-.3572.389l.1808 2.1185a.4346.4346 0 00.4242.389h3.7368zm-9.2609-3.8236h3.3889a.3195.3195 0 00.322-.3411l-.0955-1.6343a.368.368 0 00-.3621-.3411h-3.1178a.3677.3677 0 00-.3617.3411l-.0959 1.6343a.3198.3198 0 00.3221.3411zm8.5443 0a.2692.2692 0 00.2741-.3351l-.3329-1.6467a.4367.4367 0 00-.4096-.3347h-3.1436a.309.309 0 00-.3126.3403l.14 1.6358a.3798.3798 0 00.3707.3403h3.4139zm-10.0876-2.3165h-3.1593a.4355.4355 0 00-.4089.3351l-.3314 1.6463a.2696.2696 0 00.2744.3351h3.4271a.3795.3795 0 00.3707-.3403l.14-1.6358a.309.309 0 00-.3126-.3404zm11.6437 10.8132a.3842.3842 0 00.3913-.4785l-.5384-2.664a.6235.6235 0 00-.5848-.4785h-3.639a.4418.4418 0 00-.4467.4864l.2265 2.6483a.543.543 0 00.5302.4864h4.0609zm-6.4269 1.1992h-3.958a.6307.6307 0 00-.62.5852l-.1962 3.3563a.5476.5476 0 00.5519.5848h4.4867a.5476.5476 0 00.5519-.5848l-.1962-3.3563a.6307.6307 0 00-.6201-.5852zm-6.5415 0h-3.9849a.748.748 0 00-.7013.5747l-.6796 3.3773a.462.462 0 00.4703.5744h4.508a.652.652 0 00.6361-.5837l.2872-3.3585a.5303.5303 0 00-.5358-.5842zm13.8074.5744a.7487.7487 0 00-.702-.5744h-3.9801a.5303.5303 0 00-.5362.5841l.2876 3.3585a.6513.6513 0 00.6358.5837h4.508a.4617.4617 0 00.4699-.5744zm50.265-15.1475H77.941v21.623h3.8026zM69.387 28.8699a8.716 8.716 0 01-1.2502 4.642 5.6266 5.6266 0 01-8.897 1.4269c-1.5239-1.5093-1.9683-3.9299-1.9683-6.2412.0273-3.2631.9679-5.0992 2.5108-6.5119a4.9005 4.9005 0 013.3874-1.382 5.939 5.939 0 013.587 1.3288c2.7542 2.3017 2.6303 6.5281 2.6303 6.7374m1.9391 16.7219c1.6107-2.1278 1.7377-4.3358 1.8537-8.8666l-.0483-18.8093h-3.6206v3.3406a8.953 8.953 0 00-1.7459-2.0376 7.6885 7.6885 0 00-5.1703-1.7264 8.78 8.78 0 00-7.2656 3.864 12.6853 12.6853 0 00-2.1439 7.5135 14.9517 14.9517 0 00.6414 4.5597 10.1067 10.1067 0 003.0279 4.7611 8.1021 8.1021 0 005.7402 1.7976 9.0125 9.0125 0 005.1703-1.8762 8.0004 8.0004 0 001.4557-1.6302l-.0303 2.9669a10.2614 10.2614 0 01-.5025 2.88 4.6844 4.6844 0 01-.9697 1.6396c-1.039 1.2015-2.3678 1.8264-4.9172 1.9166a17.332 17.332 0 01-5.5021-.9181 12.7186 12.7186 0 01-2.1357-1.0405l-.4025 3.7655c.6088.2449 1.0562.4107 1.7055.6331a20.8786 20.8786 0 006.0899.9132 12.4929 12.4929 0 006.1816-1.3835 7.7361 7.7361 0 002.5884-2.263m6.3603-32.82h4.1635V8.5034h-4.1635zm18.1795 8.3544a7.3192 7.3192 0 012.6206.5167v-3.7977c-.1917 0-1.3576-.1805-2.3274-.1805a6.3023 6.3023 0 00-5.0928 2.2181 14.8189 14.8189 0 00-1.0566 1.6381l-.1951-3.6049h-3.6367c.116 2.7108.2142 4.6001.2142 7.2705 0 3.1328-.0595 5.3426-.0595 8.4446v5.9046h3.9269V28.9523c.1176-2.0503.2366-4.7645 2.3386-6.6085a4.7476 4.7476 0 013.2678-1.2176m19.8771 7.3929c0 2.3626-.7346 5.8241-3.6371 7.4618a6.2322 6.2322 0 01-5.6163.1708 7.5263 7.5263 0 01-1.0596-.6829 6.985 6.985 0 01-2.0537-2.8411 9.9482 9.9482 0 01-.7185-4.1811 8.3085 8.3085 0 012.6206-6.2236 6.432 6.432 0 014.2474-1.5463 5.9171 5.9171 0 015.5646 4.0961 11.161 11.161 0 01.6526 3.7463m.8454 8.6378a12.052 12.052 0 003.1811-8.7105c-.1176-5.3119-2.8991-8.4817-5.5328-9.8685a11.2957 11.2957 0 00-14.1672 4.0606 12.9058 12.9058 0 00-1.504 6.1528 11.1287 11.1287 0 003.3548 8.6959 10.6915 10.6915 0 001.377 1.0064 10.1273 10.1273 0 005.8096 1.4546 10.7489 10.7489 0 004.5694-.8443 9.5524 9.5524 0 002.912-1.947m6.5334-14.6442c.116 4.1796.116 7.1514.116 11.3516 0 5.2396-.0871 10.4822-.116 15.7155h3.861V36.614a11.3795 11.3795 0 001.2206 1.3752 7.9137 7.9137 0 005.328 1.962 9.2432 9.2432 0 006.8275-2.9635c3.2294-3.4679 2.962-8.1582 2.962-8.8587a14.1571 14.1571 0 00-.8664-4.7401 8.8316 8.8316 0 00-8.5963-5.9753 8.2944 8.2944 0 00-5.771 2.2274 8.0428 8.0428 0 00-1.3366 1.5767l-.1674-3.3016h-3.6386c.1 1.7248.1161 2.8877.1772 4.5966zm3.7932 6.0285a10.6683 10.6683 0 01.4444-3.0133c1.0098-3.0556 3.2971-4.724 5.8484-4.724a5.7672 5.7672 0 015.2587 3.5611 9.3657 9.3657 0 01.7971 4.426 10.0496 10.0496 0 01-.562 3.3342 5.9733 5.9733 0 01-5.6582 4.4099c-2.4562 0-4.7113-1.6493-5.6841-4.6372a11.1674 11.1674 0 01-.4443-3.3567zm56.2422-10.6275l-4.8221 11.7032-2.1803 5.6679-.1501.3055c-.5478-1.6224-1.303-3.6468-1.9923-5.5706l-4.4702-12.1061h-4.1493l8.685 21.6185-4.2317 10.0475h3.8715l13.5356-31.6661h-4.0961zm-20.6047 2.8029c-1.1274-1.8874-4.0351-3.2166-7.4299-3.2166a11.6818 11.6818 0 00-6.7807 1.8272v3.3982a12.4871 12.4871 0 016.0529-2.0488c2.6236 0 4.684 1.5093 5.225 2.9216a8.948 8.948 0 01.3902 2.8523c-1.0005-.0494-2.0668-.0902-3.1058-.0902-2.132 0-5.1288.0902-7.2626 1.1356a6.139 6.139 0 00-3.927 5.7938 6.5724 6.5724 0 002.1826 5.0198 7.547 7.547 0 004.4923 1.5273 9.8931 9.8931 0 005.6518-1.437 14.907 14.907 0 002.2907-2.2963v3.4319h3.3035V25.5777a9.6578 9.6578 0 00-1.083-4.8611zm-2.4479 9.0793a9.7983 9.7983 0 01-.3284 2.922 5.6285 5.6285 0 01-.9682 1.847 6.1186 6.1186 0 01-4.895 2.2903c-1.7782 0-4.1442-.9256-4.1442-3.4641 0-2.5206 2.9418-3.8505 4.5728-4.1223a16.8234 16.8234 0 012.8576-.1764c.968 0 1.9376.0288 2.9055.1108v.5927z"/>
  </g>
  <g fill="#fff">
    <path d="M178.5032 57.0973H112.604a5.9568 5.9568 0 00-5.959 5.9538v22.6312a5.9575 5.9575 0 005.959 5.954h65.8992z"/>
    <path d="M147.9916 59.5997h-35.5623a3.4215 3.4215 0 00-3.418 3.4148v22.6716a3.4219 3.4219 0 003.418 3.4148h35.5623z"/>
  </g>
  <path fill="#0b3677" d="M180.4902 57.0502h-68.061a5.967 5.967 0 00-5.9693 5.9643v22.6716a5.9678 5.9678 0 005.9694 5.9642h68.0609a5.9679 5.9679 0 005.9697-5.9642V63.0145a5.967 5.967 0 00-5.9697-5.9643zm-71.4789 28.636V63.0144a3.4215 3.4215 0 013.418-3.4148h35.5623V89.101h-35.5623a3.4219 3.4219 0 01-3.418-3.4148z"/>
  <path fill="#fff" d="M157.4452 74.0875c0 1.376-.6804 2.3206-1.8078 2.3206a2.0242 2.0242 0 01-1.8259-2.2048c0-1.2927.7306-2.2542 1.8259-2.2542a1.9117 1.9117 0 011.8078 2.1384m-6.6195 7.8901h2.9858V77.287h.0332a2.9985 2.9985 0 002.7375 1.4084c2.5712 0 3.948-2.1216 3.948-4.6747 0-2.088-1.3095-4.3592-3.6987-4.3592a3.4064 3.4064 0 00-3.2187 1.7572h-.0332v-1.5583h-2.7539zm13.7822-6.2156c0-.829.796-1.1438 1.808-1.1438.4482 0 .8795.033 1.2612.0495a1.9456 1.9456 0 01-1.842 2.0397c-.6963 0-1.2272-.3497-1.2272-.9454m6.022 2.7341a10.5898 10.5898 0 01-.1662-2.0386v-3.2157c0-2.6357-1.9074-3.5803-4.1137-3.5803a8.9227 8.9227 0 00-3.4506.6135l.049 2.022a5.6271 5.6271 0 012.7538-.6465c1.0786 0 1.9584.315 1.975 1.4922a8.6822 8.6822 0 00-1.3934-.1172c-1.5926 0-4.4625.316-4.4625 2.9515 0 1.8737 1.5263 2.719 3.235 2.719a2.965 2.965 0 002.7367-1.5585h.0325c0 .4476.0508.8958.067 1.3586zm1.3412 3.4815a8.7217 8.7217 0 001.8583.1994c2.738 0 3.3844-2.1062 4.23-4.276l3.169-8.0406h-2.9862l-1.7752 5.6357h-.0331l-1.8582-5.6357h-3.2174l3.499 8.835a1.5147 1.5147 0 01-1.5075 1.1937 3.5365 3.5365 0 01-1.1787-.1826z"/>
  <path fill="#e20613" d="M116.3286 74.1035c0-1.1764.5807-2.1545 1.6921-2.1545a1.8896 1.8896 0 011.9078 2.0384 2.0175 2.0175 0 01-1.9078 2.2218c-.8957 0-1.692-.7633-1.692-2.1057m6.486-4.2431h-2.7045v1.5577h-.0325a3.3749 3.3749 0 00-2.9364-1.7566c-2.687 0-3.8983 1.9225-3.8983 4.4922 0 2.5536 1.4763 4.3424 3.8489 4.3424a3.3627 3.3627 0 002.9024-1.4752h.0334v.465c0 1.6909-.9285 2.5028-2.654 2.5028a5.9408 5.9408 0 01-2.9194-.7127l-.1496 2.3542a10.1003 10.1003 0 003.3013.5469c3.4836 0 5.2088-1.1443 5.2088-4.6912zm5.0463-3.5974h-2.9859v2.1882h2.986zm-2.9859 12.233h2.986v-8.6356h-2.986zm11.3003-8.7357a6.4215 6.4215 0 00-1.0116-.0988 2.667 2.667 0 00-2.555 1.7897h-.033v-1.5908h-2.7207v8.6357h2.9861V74.85c0-1.6913.78-2.7023 2.1732-2.7023a3.4555 3.4555 0 011.0115.099zm5.1415 6.8467c-1.377 0-1.9409-1.1435-1.9409-2.4198 0-1.2933.5639-2.437 1.9409-2.437 1.3767 0 1.941 1.1437 1.941 2.437 0 1.2763-.5643 2.4197-1.941 2.4197m0 2.0886c2.8527 0 5.026-1.6572 5.026-4.5083 0-2.8685-2.1733-4.5257-5.026-4.5257-2.8532 0-5.0264 1.6572-5.0264 4.5257 0 2.851 2.1732 4.5083 5.0264 4.5083"/>
</svg>