<svg xmlns="http://www.w3.org/2000/svg" width="193" height="36" fill="none">
    <path fill="#A7E23D" d="m10.4478 6.8795 1.7044 22.9368-10.4478-.6175L0 6.2621l10.4478.6174Z"/>
    <path fill="#A7E23D" d="M16.5246 12.6053 18.229 35.542l-10.4478-.6174-1.7044-22.9368 10.4478.6175Z"/>
    <path fill="#A7E23D" d="m19.7974 1.4456 1.7044 22.9367-10.4478-.6174L9.3496.8281l10.4478.6175Z"/>
    <path fill="#1F1F1F" d="M31.4355 26.5178h6.0754v-6.6339h9.1944v6.6339h6.0753V9.8515h-6.0753v5.9123h-9.1944V9.8515h-6.0754v16.6663ZM66.9005 27.0998c7.3323 0 12.2205-3.5614 12.2205-8.9152 0-5.3537-4.8882-8.915-12.2205-8.915-7.309 0-12.1972 3.5613-12.1972 8.915 0 5.3538 4.8882 8.9152 12.1972 8.9152Zm0-4.283c-3.6545 0-6.1219-1.8622-6.1219-4.6322 0-2.7699 2.4674-4.6321 6.1219-4.6321s6.1452 1.8622 6.1452 4.6321c0 2.77-2.4907 4.6322-6.1452 4.6322ZM92.8372 27.0998c7.3318 0 12.2208-3.5614 12.2208-8.9152 0-5.3537-4.889-8.915-12.2208-8.915-7.309 0-12.1972 3.5613-12.1972 8.915 0 5.3538 4.8882 8.9152 12.1972 8.9152Zm0-4.283c-3.6545 0-6.1219-1.8622-6.1219-4.6322 0-2.7699 2.4674-4.6321 6.1219-4.6321s6.1451 1.8622 6.1451 4.6321c0 2.77-2.4906 4.6322-6.1451 4.6322ZM106.972 26.5178h11.848c6.471 0 10.079-2.9794 10.079-8.3332 0-5.3537-3.608-8.3331-10.079-8.3331h-11.848v16.6663Zm5.913-4.12v-8.4496h5.097c3.213 0 5.028 1.5363 5.028 4.2364 0 2.7002-1.815 4.2132-5.028 4.2132h-5.097ZM130.84 26.5178h6.076v-5.0976h7.309c4.748 0 7.379-2.0251 7.402-5.7029 0-3.7709-2.63-5.8658-7.356-5.8658H130.84v16.6663Zm6.076-8.5194v-4.7252h5.33c2.118 0 3.282.838 3.282 2.351 0 1.5363-1.164 2.3742-3.282 2.3742h-5.33ZM149.613 26.5178h6.284l1.281-2.9096h8.31l1.303 2.9096h6.308l-8.123-16.6663h-7.053l-8.31 16.6663Zm8.752-6.3313 2.979-6.5874h.047l2.933 6.5874h-5.959ZM178.125 26.5178h6.076v-5.6796l7.984-10.9867h-6.471l-4.516 7.0296h-.023l-4.749-7.0296h-6.401l8.1 10.9867v5.6796Z"/>
</svg>