<svg xmlns="http://www.w3.org/2000/svg" viewBox="0 0 202.7 158.1">
  <path fill="#00AEEF" d="M102.5 70c19.3 0 35-15.7 35-35s-15.7-35-35-35-35 15.7-35 35 15.7 35 35 35"/>
  <path fill="#00AEEF" d="M128.3 63.3a46.12 46.12 0 01-33.5 14.5c-11.7 0-21.8-4.5-28.2-9.6C28.4 72.2 0 77.8 0 77.8v15.5h202.7V61.4s-34.7-.2-74.4 1.9"/>
  <path fill="#003665" d="M24.1 138.6v18.8H0v-50.1h24.1v22.5h.1l14.2-22.5h28.9l-21.2 25.9 20 24.2H38.5l-14.3-18.8h-.1M71.2 107.3h48.7c12.6 0 16.8 4.9 16.8 12.6 0 8.6-7.7 12.3-15.5 12.7v.1c8.1.6 15.9 1.5 15.9 11.7 0 6.6-4.1 13.1-18.1 13.1H71.2v-50.2m24.1 39.9h12.6c4.7 0 6.3-1.9 6.3-4.8s-1.6-4.9-6.3-4.9H95.3v9.7zm0-18.7h12c4.6 0 6.5-1.9 6.5-4.8 0-3.3-1.8-4.9-6.1-4.9H95.3v9.7zM202.7 155.3c-5.7 1.7-13.2 2.8-19.8 2.8-23.8 0-41.3-6.8-41.3-26.5 0-17.8 17-25.5 40.1-25.5 6.4 0 14.6.7 21 2.8v17.2c-4.7-2.9-9.5-4.7-16.3-4.7-8.8 0-17.7 4.4-17.7 10.7 0 6.3 8.8 10.7 17.7 10.7 6.7 0 11.5-1.8 16.3-4.6v17.1"/>
</svg>