<svg width="142" height="24" fill="none" xmlns="http://www.w3.org/2000/svg"><g clip-path="url(#a)" fill="#3200FF"><path d="M100.913 9.6v6.89a2.573 2.573 0 0 0 .847 1.976 3.08 3.08 0 0 0 2.259.79h4.461v-1.242h-4.405a1.631 1.631 0 0 1-1.299-.565 2.029 2.029 0 0 1-.508-1.355V9.882a1.577 1.577 0 0 1 .508-1.242 1.668 1.668 0 0 1 1.243-.508h4.405V6.833h-4.405a3.956 3.956 0 0 0-2.09.621 2.291 2.291 0 0 0-1.016 2.146ZM121.468 9.318a2.82 2.82 0 0 0-.847-1.977 1.37 1.37 0 0 0-.79-.508 3.81 3.81 0 0 0-1.073-.057h-7.059v1.3h6.776c1.412 0 1.638.79 1.638 1.298v1.581h-5.591c-1.92 0-2.823 1.13-2.823 3.558v1.807c-.001.78.303 1.53.847 2.09a2.59 2.59 0 0 0 1.976.903h4.236a2.599 2.599 0 0 0 1.863-.847 2.74 2.74 0 0 0 .847-1.977V9.318Zm-1.355 7.059c-.011.26-.089.512-.226.734a1.425 1.425 0 0 1-.847.79 2.483 2.483 0 0 1-1.016.113H115.2a2.884 2.884 0 0 1-1.468-.282 1.76 1.76 0 0 1-.508-.621 1.942 1.942 0 0 1-.17-.678v-2.372c0-.678.282-1.75 2.09-1.75h5.025l-.056 4.066ZM128.245 8.132h.621V6.776h-.791a2.825 2.825 0 0 0-2.146.735c-.395.395-.564 1.129-.564 2.202v9.543h1.299V9.77a1.47 1.47 0 0 1 .942-1.546c.204-.078.422-.109.639-.091ZM141.176 2.146h-1.298v4.63h-5.252c-2.033 0-2.993.904-2.993 2.824v6.777c-.028.366.017.735.133 1.084.117.35.302.672.545.948a2.826 2.826 0 0 0 2.032.904h4.123a2.399 2.399 0 0 0 1.92-.904c.549-.62.833-1.431.79-2.258V2.146Zm-1.298 13.948a1.818 1.818 0 0 1-.509 1.355 1.728 1.728 0 0 1-1.298.565H134.4a1.306 1.306 0 0 1-1.073-.508 1.772 1.772 0 0 1-.395-1.186V9.939c0-1.186.621-1.807 1.75-1.807h5.196v7.962ZM25.525 10.73c0-.509-.226-.735-.678-.735h-2.372a.892.892 0 0 0-.903.904v4.292c0 .62.339.903.96.903h2.202a.785.785 0 0 0 .565-.282.566.566 0 0 0 .226-.508v-4.575Zm-7.172-.622c-.009-.9.29-1.777.847-2.484.268-.252.573-.461.904-.622a2.778 2.778 0 0 1 1.129-.282h4.405c1.92 0 2.936 1.073 2.936 3.219v6.494a2.4 2.4 0 0 1-.903 1.92 3.072 3.072 0 0 1-2.033.903h-4.18v4.688h-3.105V10.107ZM34.165 15.53a.514.514 0 0 0 .226.451.955.955 0 0 0 .564.17h2.372c.508 0 .79-.226.847-.622v-.903c0-.508-.282-.734-.847-.734h-2.372a.909.909 0 0 0-.62.17.983.983 0 0 0-.17.677v.79Zm4.01-4.857c0-.452-.283-.678-.848-.678h-6.212V6.833h7.003c2.033.056 3.05 1.016 3.105 2.936v6.607a2.998 2.998 0 0 1-.79 2.09 2.603 2.603 0 0 1-2.033.847h-4.235c-2.033 0-3.106-.96-3.106-2.824v-2.54c0-1.977 1.016-2.937 2.993-2.994h4.122v-.282ZM49.864 20.838a.91.91 0 0 0 .62-.283.69.69 0 0 0 .227-.508v-.734h-3.953a3.88 3.88 0 0 1-1.243-.17 2.511 2.511 0 0 1-.96-.677 4.297 4.297 0 0 1-.677-1.073 3.757 3.757 0 0 1-.226-1.242V6.776h3.106v8.358c0 .678.282 1.017.847 1.017h2.202a.937.937 0 0 0 .678-.283.78.78 0 0 0 .282-.508V6.776h3.05v13.78a3.852 3.852 0 0 1-.791 2.484 2.552 2.552 0 0 1-2.09.96h-7.228v-3.162h6.156ZM56.188 16.15h5.478c.508 0 .79-.225.79-.62v-.283a.616.616 0 0 0-.056-.282.531.531 0 0 0-.452-.34h-2.71a2.903 2.903 0 0 1-2.09-.846 2.449 2.449 0 0 1-.903-1.807V9.6c.056-1.864 1.016-2.767 2.993-2.824h6.38V9.94h-5.42c-.621 0-.96.17-.96.565v.282c0 .395.339.621.96.621h2.71a2.411 2.411 0 0 1 1.864.847c.5.515.784 1.202.79 1.92v2.315a3.016 3.016 0 0 1-.903 1.92 2.976 2.976 0 0 1-.847.678c-.4.132-.822.19-1.243.17h-6.38V16.15ZM70.927 15.53a.515.515 0 0 0 .226.451.955.955 0 0 0 .565.17h2.371c.509 0 .791-.226.847-.622v-.903c0-.508-.282-.734-.847-.734h-2.371a.909.909 0 0 0-.621.17.982.982 0 0 0-.17.677v.79Zm4.01-4.857c0-.452-.283-.678-.848-.678h-6.211V6.833h7.002c2.033.056 3.05 1.016 3.106 2.936v6.607a2.999 2.999 0 0 1-.79 2.09 2.604 2.604 0 0 1-2.034.847h-4.235c-2.033 0-3.106-.96-3.106-2.824v-2.54c0-1.977 1.017-2.937 2.993-2.994h4.123v-.282ZM80.47 5.026a2.518 2.518 0 0 1 .96-2.033 3.637 3.637 0 0 1 2.372-.79h1.977v3.049h-1.186a.892.892 0 0 0-1.017.903v.678h2.203v3.162h-2.203v9.374h-3.105V5.026ZM1.299 6.325c.236-.101.482-.177.734-.226a4.67 4.67 0 0 1 9.148 0c.64.094 1.235.39 1.694.847.01-.396-.01-.793-.056-1.186a6.251 6.251 0 0 0-12.48.282v.904c.298-.24.62-.448.96-.621Z"/><path d="M10.278 6.776H2.767a2.225 2.225 0 0 0-1.13.283c-.35.125-.66.34-.903.621A3.665 3.665 0 0 0 0 10.108v5.873a3.953 3.953 0 0 0 .734 2.485c.268.251.573.46.904.621.352.173.737.27 1.129.282h7.51c1.92 0 2.937-1.072 2.937-3.218V9.995c0-2.146-.96-3.162-2.936-3.219ZM94.475 10.617v-.057a.424.424 0 0 0-.226-.395.91.91 0 0 0-.508-.17h-2.146a.898.898 0 0 0-.677.226.69.69 0 0 0-.34.565v1.299l3.897-1.469Zm-3.783 4.46v.17a.774.774 0 0 0 .226.621c.113.17.225.283.395.283h6.325v3.162h-6.72a4.558 4.558 0 0 1-1.412-.17 2.75 2.75 0 0 1-1.017-.62 2.667 2.667 0 0 1-.677-1.017 4.972 4.972 0 0 1-.17-1.468V9.713c.057-1.92 1.017-2.88 2.993-2.937h4.18c1.92.057 2.88 1.017 2.936 3.05v2.485l-7.06 2.767Z"/></g><defs><clipPath id="a"><path fill="#fff" d="M0 0h141.176v24H0z"/></clipPath></defs></svg>
