<svg xmlns="http://www.w3.org/2000/svg" viewBox="0 0 293.9136 89.06627" fill="#003a8d">
    <rect x="272.69739" y="2.54641" width="21.21622" height="83.97364"/>
    <path d="M41.29113.156C20.98478.156,0,7.25283,0,7.25283V86.52005H21.97907V22.0693a54.739,54.739,0,0,1,19.31206-3.26894c14.21211,0,20.1599,7.73849,20.1599,19.7348V86.52005h21.6829c0-1.17964-.00705-46.77524,0-47.98489C83.13393,12.61867,71.11936.156,41.29113.156Z"/>
    <path d="M266.66162,2.54641H240.44118l-19.8847,24.58533L209.64687,13.415a29.91621,29.91621,0,0,0-23.096-10.86857H173.65269l33.15973,41.57845-34.2891,42.39519h26.00437l21.22923-26.16457L231.98251,75.6851a29.90956,29.90956,0,0,0,23.06468,10.83495H267.791L233.5046,43.41155Z"/>
    <path d="M176.40993,70.40478l-14.3375-11.62835a31.57181,31.57181,0,0,1-24.93394,11.64571,25.00775,25.00775,0,0,1-23.01894-14.536l64.49794-11.353a45.90824,45.90824,0,0,0-3.50943-17.70029A43.24465,43.24465,0,0,0,134.8501,0C110.04454,0,91.08253,17.63664,91.08253,44.53314c0,25.86785,18.56747,44.53313,46.056,44.53313C157.63959,89.06627,169.96805,78.43077,176.40993,70.40478ZM134.84251,18.16841c9.5611,0,17.51549,4.46684,20.76942,12.10733l-43.2913,7.64483C114.63252,25.20679,123.696,18.16841,134.84251,18.16841Z"/>
</svg>