<svg xmlns="http://www.w3.org/2000/svg" viewBox="0 0 195.5905 95.811">
  <path fill="none" d="M193.0433 0H2.5472C1.1464 0 0 1.6034 0 3.5629v88.6853c0 1.9594 1.1464 3.5629 2.5472 3.5629h190.4961c1.4012 0 2.5472-1.6034 2.5472-3.5629V3.5629c0-1.9595-1.146-3.5629-2.5472-3.5629z"/>
  <path fill="#5dc4e9" d="M27.0388 9.1598h-9.6102c-.5848 0-1.0611.4763-1.0611 1.0607v9.4256h.8926v-9.4256c0-.091.0771-.1681.1685-.1681h1.9324v6.8485h-1.7938l2.5708 2.7452h4.1916l2.5708-2.7452H25.106v-6.8485h1.9327c.0921 0 .1692.0771.1692.1681v9.4256h.8911v-9.4256c.0001-.5845-.4754-1.0607-1.0602-1.0607z"/>
  <path fill="#1f3a6a" d="M30.4789 17.9129h-2.494v.6672h1.9631l4.8791 20.0659H9.6407l4.8786-20.0659h1.9631v-.6672H13.988L8.5039 39.5393h27.4595z M20.2146 31.2898h4.0381c.2688 0 .4755-.2194.4598-.4875l-.1546-2.646c-.0154-.2681-.2479-.4875-.5167-.4875h-3.615c-.2685 0-.501.2194-.5167.4875l-.1546 2.646a.4563.4563 0 00.4597.4875zm-2.0158-3.621h-3.6476c-.2685 0-.5317.2153-.5845.4789l-.5362 2.6632c-.0528.2632.1236.4789.392.4789h4.0666c.2685 0 .507-.219.5298-.4864l.2265-2.6483c.0229-.2673-.1782-.4863-.4466-.4863zm2.1783-1.0521h3.7131a.365.365 0 00.3677-.3898l-.1236-2.117c-.0127-.2145-.1988-.3898-.4134-.3898h-3.3743c-.2149 0-.401.1752-.4134.3898l-.1239 2.117a.3654.3654 0 00.3678.3898zm-1.7249-2.8965h-3.4117c-.2149 0-.4253.1722-.4676.3827l-.4287 2.1308c-.0423.2108.0985.383.3134.383h3.7464c.2149 0 .4059-.1752.4242-.389l.1812-2.1185c.0183-.2142-.1427-.389-.3572-.389zm11.1479 2.8965c.2149 0 .3557-.1722.313-.3827l-.4306-2.1312c-.0427-.2104-.2531-.3827-.468-.3827h-3.399c-.2149 0-.3755.1749-.3572.389l.1808 2.1185c.0183.2138.2093.389.4242.389h3.7368zm-9.2609-3.8236h3.3889a.3195.3195 0 00.322-.3411l-.0955-1.6343c-.0112-.1876-.1737-.3411-.3621-.3411h-3.1178c-.188 0-.3508.1535-.3617.3411l-.0959 1.6343a.3198.3198 0 00.3221.3411zm8.5443 0c.188 0 .3115-.1509.2741-.3351l-.3329-1.6467c-.0374-.1842-.2217-.3347-.4096-.3347h-3.1436c-.188 0-.3287.1531-.3126.3403l.14 1.6358c.0161.1872.1827.3403.3707.3403h3.4139zm-10.0876-2.3165h-3.1593c-.188 0-.3718.1505-.4089.3351l-.3314 1.6463c-.0371.1842.0865.3351.2744.3351h3.4271c.188 0 .3549-.1531.3707-.3403l.14-1.6358c.0161-.1873-.1247-.3404-.3126-.3404zm11.6437 10.8132c.2685 0 .4448-.2153.3913-.4785l-.5384-2.664c-.0532-.2632-.3164-.4785-.5848-.4785h-3.639c-.2685 0-.4695.219-.4467.4864l.2265 2.6483c.0228.2673.2613.4864.5302.4864h4.0609zm-6.4269 1.1992h-3.958c-.322 0-.6013.2632-.62.5852l-.1962 3.3563c-.0187.3216.2295.5848.5519.5848h4.4867c.3224 0 .5706-.2632.5519-.5848l-.1962-3.3563c-.0188-.3219-.2978-.5852-.6201-.5852zm-6.5415 0h-3.9849c-.322 0-.6376.2587-.7013.5747l-.6796 3.3773c-.0637.3156.1483.5744.4703.5744h4.508c.3224 0 .6084-.2628.6361-.5837l.2872-3.3585c.0273-.3213-.2138-.5842-.5358-.5842zm13.8074.5744c-.0637-.3156-.3797-.5744-.702-.5744h-3.9801c-.3224 0-.5635.2628-.5362.5841l.2876 3.3585c.0273.3209.3134.5837.6358.5837h4.508c.3224 0 .5335-.2587.4699-.5744l-.683-3.3775zm50.265-15.1475H77.941v21.623h3.8026v-21.623zM69.387 28.8699c0 .5429 0 2.6868-1.2502 4.642-1.2932 2.0391-3.2338 3.0118-4.93 3.0118-1.4546 0-2.9493-.6298-3.967-1.5849-1.5239-1.5093-1.9683-3.9299-1.9683-6.2412.0273-3.2631.9679-5.0992 2.5108-6.5119.5927-.5961 1.8039-1.382 3.3874-1.382 1.0839 0 2.4547.4156 3.5869 1.3288 2.7543 2.3017 2.6304 6.5281 2.6304 6.7374m1.9391 16.7219c1.6107-2.1278 1.7377-4.3358 1.8537-8.8666l-.0483-18.8093h-3.6206v3.3406c-.1239-.1996-.823-1.2917-1.7459-2.0376-.9585-.8421-2.7415-1.765-5.1703-1.7264-2.1713 0-3.8816.8312-4.724 1.385-1.4044.9278-2.1405 1.8815-2.5416 2.479-1.6942 2.3337-2.1439 5.1348-2.1439 7.5135 0 .5961 0 2.6415.6414 4.5597.1659.5429.8922 2.962 3.0279 4.7611 1.1839.9649 2.9942 1.9283 5.7402 1.7976 1.5332-.079 3.6367-.5815 5.1703-1.8762.4879-.4205.7762-.7039 1.4557-1.6302l-.0303 2.9669c-.0854.963-.1355 1.9264-.5025 2.88-.1936.5927-.5253 1.1352-.9697 1.6396-1.039 1.2015-2.3678 1.8264-4.9172 1.9166-2.5045 0-4.5615-.5927-5.5021-.9181-1.039-.3785-1.6879-.7908-2.1357-1.0405l-.4025 3.7655c.6088.2449 1.0562.4107 1.7055.6331 1.039.3302 3.3162.9132 6.0899.9132 2.9894 0 4.8899-.6829 6.1816-1.3835 1.427-.8346 2.1035-1.5883 2.5884-2.263m6.3603-32.82h4.1635V8.5034h-4.1635v4.2684zm18.1795 8.3544c1.0484 0 1.5834.185 2.6206.5167v-3.7977c-.1917 0-1.3576-.1805-2.3274-.1805-1.58 0-3.5611.3785-5.0928 2.2181-.24.2932-.6122.8761-1.0566 1.6381l-.1951-3.6049h-3.6367c.1161 2.7108.2142 4.6001.2142 7.2705 0 3.1328-.0595 5.3426-.0595 8.4446v5.9046h3.9269V28.9523c.1176-2.0503.2366-4.7645 2.3386-6.6085 1.4058-1.2176 2.7844-1.2176 3.2678-1.2176m19.8771 7.3929c0 2.3626-.7346 5.8241-3.6371 7.4618-.5815.2917-1.58.7571-2.9991.7571-.3186 0-1.4928-.0419-2.6172-.5863-.243-.1303-.4849-.2606-1.0596-.6829-.5897-.4429-1.4044-1.3352-2.0537-2.8411-.5639-1.3254-.7556-2.7509-.7185-4.1811.0693-2.9976 1.3176-5.1284 2.6206-6.2236.8537-.7136 2.2196-1.5463 4.2474-1.5463 3.3469.0404 4.8304 2.339 5.5646 4.0961.237.6326.6526 2.0404.6526 3.7463m.8454 8.6378c2.4996-2.5191 3.2181-5.945 3.1811-8.7105-.1176-5.3119-2.8991-8.4817-5.5328-9.8685-.9181-.4527-2.4981-1.0356-4.7109-1.0356-4.8498 0-7.9646 2.5127-9.4563 5.0962-1.0596 1.844-1.446 3.9752-1.504 6.1528-.0404 4.3406 1.504 6.8968 3.3548 8.6959.4478.3737.8922.7181 1.3771 1.0064 1.2112.7941 2.9493 1.4546 5.8095 1.4546 2.1937 0 3.6386-.4126 4.5694-.8443.9712-.4122 2.0278-1.0742 2.9121-1.947m6.5333-14.6442c.1161 4.1796.1161 7.1514.1161 11.3516 0 5.2396-.0872 10.4822-.1161 15.7155h3.861V36.614c.62.7518.7649.9548 1.2206 1.3752 1.0502.9166 2.7831 1.962 5.328 1.962.7458 0 4.1605-.0453 6.8275-2.9635 3.2294-3.4679 2.962-8.1582 2.962-8.8587-.0513-1.5059-.2464-3.1841-.8664-4.7401-1.039-2.6752-3.4986-5.9753-8.5963-5.9753-.5493 0-3.5222 0-5.7709 2.2274-.4107.3317-.6893.7024-1.3367 1.5767l-.1674-3.3016h-3.6386c.1 1.7248.1161 2.8877.1772 4.5966zm3.7932 6.0285c0-.3864.0288-1.6879.4444-3.0133 1.0098-3.0556 3.2971-4.724 5.8484-4.724 2.0582 0 4.1152 1.1259 5.2587 3.5611.6328 1.3625.881 2.9216.7971 4.426 0 .5414-.0288 1.7991-.562 3.3342-1.4078 4.0168-4.6001 4.4099-5.6582 4.4099-2.4562 0-4.7113-1.6493-5.6841-4.6372-.1642-.6362-.4926-1.8025-.4443-3.3567zm56.2422-10.6275l-4.8221 11.7032-2.1803 5.6679-.1501.3055c-.5478-1.6224-1.303-3.6468-1.9923-5.5706l-4.4702-12.1061h-4.1493l8.685 21.6185-4.2317 10.0475h3.8715l13.5356-31.6661h-4.0961zm-20.6047 2.8029c-1.1274-1.8874-4.0351-3.2166-7.4299-3.2166-4.122 0-6.2094 1.4778-6.7807 1.8272v3.3982c.8694-.5167 3.366-2.0488 6.0529-2.0488 2.6236 0 4.684 1.5093 5.225 2.9216.3111.884.3902 1.9496.3902 2.8523-1.0005-.0494-2.0668-.0902-3.1058-.0902-2.1319 0-5.1288.0902-7.2626 1.1356-1.6575.7941-3.9269 2.3293-3.9269 5.7938 0 2.3693 1.1053 4.1066 2.1825 5.0198 1.2128 1.0278 2.84 1.4273 4.4923 1.5273 2.4659.0723 4.5825-.6811 5.6518-1.437.92-.7005 1.4823-1.3737 2.2907-2.2963v3.4319h3.3035V25.5777c-.0001-2.1604-.503-3.988-1.083-4.8611zm-2.4479 9.0793c0 1.4269-.1269 2.2581-.3284 2.922-.079.2876-.3272 1.0064-.9682 1.847-1.2547 1.7077-3.3473 2.2903-4.8951 2.2903-1.7781 0-4.1441-.9256-4.1441-3.4641 0-2.5206 2.9418-3.8505 4.5728-4.1223.7298-.1213 1.5175-.1764 2.8576-.1764.9679 0 1.9376.0288 2.9055.1108v.5927z"/>
  <path fill="#004d86" d="M151.9395 61.9973v2.3709h-3.103v-2.3709h3.103zm-7.3581-1.6593v5.8328c-.5524-.5852-1.1078-.9911-1.638-1.2243-.6693-.2752-1.3634-.4143-2.0874-.4143-1.4408 0-2.7202.5144-3.8275 1.5448-1.2065 1.1182-1.8092 2.6451-1.8092 4.5794 0 1.6986.465 3.0756 1.3911 4.1305 1.0494 1.1916 2.4436 1.7915 4.1908 1.7915.9144 0 1.7292-.1894 2.4305-.5797.4517-.2449.9027-.6762 1.3498-1.285v1.4725h3.1064V60.338h-3.1065zm-.7348 12.6014c-.5852.7635-1.3444 1.143-2.2856 1.143-.8266 0-1.5298-.3015-2.1168-.9045-.6197-.6237-.9314-1.4639-.9314-2.5091 0-.8268.2061-1.5503.6061-2.1771.5875-.9038 1.4112-1.3562 2.4675-1.3562.8691 0 1.5822.333 2.1496.9987.5681.66.8454 1.4954.8454 2.5135 0 .8845-.2449 1.6514-.7348 2.2917zm8.0929-8.014v11.2607h-3.103V64.9254h3.103zm31.5553 2.5388v5.4015c0 .2864.071.4741.2046.572.1515.1005.378.153.6798.153h2.0806v2.5912h-4.0237c-.7193 0-1.2529-.18-1.6041-.5375-.2933-.3077-.4378-.8439-.4378-1.6126V60.8731h3.1007v3.9876h2.965v2.6035h-2.9651zm-3.3971-2.5431h-3.5841l-3.1486 4.3164v-8.3241h-3.1066v7.72c-.2217-.7345-.578-1.3983-1.0637-1.9891-1.1695-1.4133-2.7476-2.1163-4.7457-2.1163-1.1748 0-2.2251.261-3.1408.7846-.4411.2472-.8204.5468-1.1644.894v-1.3244h-3.5351c-.6537.0598-1.2437.2232-1.7633.4913-.4421.2215-.8434.5507-1.2098.9891-.3801.4379-.5631 1.0425-.5631 1.8126v7.9932h3.1085v-7.6149c.0534-.1749.145-.3387.2764-.4875.1178-.1199.2879-.2289.4993-.3338.2075-.104.483-.1546.8184-.1546h1.4032c-.4547.9077-.6764 1.8936-.6764 2.9545 0 1.6841.5065 3.0586 1.5167 4.1318 1.2068 1.2737 2.7462 1.9102 4.6177 1.9102 1.3954 0 2.6549-.4316 3.7732-1.3043.6907-.5412 1.252-1.2525 1.6976-2.1314l-2.8342-.7845c-.1915.3746-.4613.6763-.8004.9037-.5532.371-1.1479.5606-1.8009.5606-.9363 0-1.6954-.3428-2.282-1.0239-.3445-.3902-.5628-.8927-.6697-1.5108h8.5386v4.8982h3.1066v-4.672l3.1413 4.672h3.5915l-3.8429-5.8624 3.8427-5.3982zm-18.3883 4.5905c.1199-.5963.3305-1.0697.6317-1.4282.5417-.6254 1.2485-.9385 2.1426-.9385.9267 0 1.6688.313 2.2367.9385.3254.3585.5404.8319.6387 1.4282h-5.6497z"/>
  <path fill="#0d933a" d="M116.4274 88.0283c-.5533-1.7329.407-3.5945 2.1445-4.1452 1.7373-.5513 3.5956.4025 4.147 2.1443.5535 1.7363-.4077 3.596-2.1447 4.1456-1.7375.5592-3.5948-.4027-4.1468-2.1447zm-7.069.1699c-.3989-1.2557.2931-2.5885 1.5405-2.9841 1.2488-.3965 2.5831.2949 2.9811 1.5408.3957 1.2448-.2925 2.5813-1.5416 2.9841-1.2486.3946-2.5828-.2967-2.98-1.5408zm-5.464-2.8919c-.3189-1.0012.2322-2.0762 1.2366-2.3911 1.0015-.323 2.0736.2377 2.3926 1.2386.3184.9996-.2352 2.068-1.2384 2.39-1.0006.3213-2.0717-.236-2.3908-1.2375zm27.0831-20.3754l-2.6296 6.6952-2.2848-6.6952h-6.1575v1.4253c-.451-.5304-.8864-.9228-1.3074-1.1774-.697-.4202-1.4912-.6301-2.3796-.6301-1.0712 0-2.0331.2625-2.8901.7853-.848.5076-1.5036 1.1925-1.9629 2.0593-.1677.3086-.3065.6327-.4231.9591-.3961-1.1839-1.1385-2.1448-2.2295-2.8757-.9264-.6268-1.9693-.939-3.1277-.939-.9744 0-1.8121.2107-2.5089.629-.4129.2469-.8136.6303-1.2028 1.1546v-1.3904h-3.1023v15.7353h3.1023v-5.6999c.9355 1.0775 2.1938 1.6176 3.7714 1.6176 1.3089 0 2.4394-.3441 3.3905-1.0447.8916-.65 1.5148-1.4973 1.8764-2.5388.2152.6162.5248 1.173.9292 1.6733 1.0475 1.2737 2.4302 1.9102 4.1513 1.9102 1.5861 0 2.8918-.6425 3.9131-1.9364v1.5442h3.105V65.6006l3.7099 10.3349-1.0925 3.1176c1.113-.2388 2.2412.1571 2.9683.9708l5.6772-15.0929h-3.2959zm-23.614 7.8791c-.5803.8486-1.4089 1.2724-2.4861 1.2724-.8733 0-1.59-.3015-2.155-.9045-.5617-.6035-.8442-1.4325-.8442-2.4842 0-.8875.2044-1.6364.6076-2.238.5952-.88 1.4247-1.3202 2.4858-1.3202.8638 0 1.5826.3201 2.153.9642.5716.64.856 1.4978.856 2.5691 0 .8268-.2054 1.5388-.6171 2.1412zm11.7942.1131c-.6114.7754-1.3842 1.1649-2.3202 1.1649-.7767 0-1.4419-.2831-1.9987-.8446-.6581-.6564-.9859-1.5237-.9859-2.5901 0-.8987.2417-1.6843.726-2.3557.5461-.7539 1.307-1.131 2.2828-1.131 1.0071 0 1.7992.37 2.3783 1.1176.4766.6189.7148 1.3762.7148 2.2706 0 .8953-.267 1.6865-.7971 2.3683zm7.5574 11.9075c1.2574-.3981 1.9539-1.7381 1.5545-2.9987-.4021-1.2611-1.7484-1.9564-3.0043-1.5507-1.2563.3999-1.9507 1.7395-1.5523 3.0011.402 1.2603 1.746 1.9544 3.0021 1.5483z"/>
</svg>