<svg xmlns="http://www.w3.org/2000/svg" viewBox="-1.3557 -1.3557 180.8745 47.9014">
	<g fill="#fff">
		<path d="M32.6064 3.4075C30.514 1.0225 26.7314 0 21.8927 0H7.8489c-.99 0-1.8312.72-1.9862 1.6963L.0152 38.7824c-.1163.7312.45 1.3938 1.1912 1.3938h8.67L12.054 26.365l-.0675.4325c.155-.9763.99-1.6963 1.9788-1.6963h4.12c8.0937 0 14.4312-3.2875 16.2825-12.7975.055-.2812.1025-.555.1437-.8225-.2337-.1237-.2337-.1237 0 0 .5513-3.515-.004-5.9075-1.905-8.0737"/>
		<path d="M122.1824 20.9441h-4.6662a1.344 1.344 0 00-1.1138.5913l-6.4375 9.48-2.7275-9.11a1.3493 1.3493 0 00-1.2912-.9613h-4.5863c-.5537 0-.9437.545-.765 1.0688l5.1375 15.0825L100.9 43.914c-.3787.535.004 1.275.66 1.275h4.6613c.4412 0 .855-.2162 1.1075-.5787l15.5175-22.3975c.3712-.5363-.0113-1.2688-.6638-1.2688m-31.1958 9.0362c-.4488 2.6525-2.5538 4.4337-5.24 4.4337-1.3463 0-2.425-.4338-3.1175-1.2537-.6863-.8125-.945-1.9713-.7275-3.26.4175-2.63 2.5575-4.4675 5.2025-4.4675 1.3187 0 2.3887.4375 3.095 1.265.7112.8337.9912 1.9987.7875 3.2825m6.47-9.0363H92.814a.8086.8086 0 00-.7988.6825l-.2037 1.2975-.3238-.47c-1.0062-1.4587-3.2475-1.9475-5.485-1.9475-5.1287 0-9.51 3.8875-10.3625 9.3388-.4437 2.72.1863 5.3187 1.7288 7.1324 1.4162 1.6663 3.4375 2.36 5.8462 2.36 4.135 0 6.4275-2.655 6.4275-2.655l-.2075 1.29c-.0775.49.3013.9338.7988.9338h4.18a1.3465 1.3465 0 001.3312-1.1362l2.51-15.8925c.0775-.49-.3025-.9338-.7987-.9338m-27.8592.1115c-.53 3.48-3.1875 3.48-5.7587 3.48h-1.4625l1.0262-6.4975c.0612-.3925.4-.6812.7975-.6812h.6713c1.75 0 3.4025 0 4.255.9962.51.5963.6637 1.4813.4712 2.7025m-1.1187-9.08h-9.695a1.3476 1.3476 0 00-1.3313 1.1375l-3.92 24.86c-.0775.49.3013.9338.7975.9338h4.63c.6625 0 1.2263-.4825 1.33-1.1363l1.0588-6.7075c.1025-.655.6675-1.1375 1.33-1.1375h3.0675c6.3862 0 10.0725-3.09 11.035-9.2162.4337-2.6775.0175-4.7825-1.2363-6.2563-1.3787-1.62-3.8225-2.4775-7.0662-2.4775"/>
		<path d="M172.078 12.6586l-3.9787 25.315c-.0775.49.3013.9338.7975.9338h4.0025c.6625 0 1.2275-.4825 1.33-1.1375l3.9238-24.86c.0775-.49-.3013-.9338-.7988-.9338h-4.4775a.8067.8067 0 00-.7987.6825m-11.9418 17.3216c-.4487 2.6525-2.5537 4.4338-5.24 4.4338-1.3462 0-2.425-.4338-3.1175-1.2537-.6875-.8125-.945-1.9713-.7275-3.26.4175-2.63 2.5575-4.4675 5.2025-4.4675 1.3188 0 2.3888.4375 3.095 1.265.7113.8337.9913 1.9987.7875 3.2825m6.47-9.0363h-4.6425a.8086.8086 0 00-.7987.6825l-.2038 1.2975-.325-.47c-1.005-1.4587-3.2462-1.9475-5.4837-1.9475-5.1288 0-9.51 3.8875-10.3625 9.3388-.4438 2.72.1862 5.3187 1.7287 7.1324 1.4163 1.6663 3.4375 2.36 5.8463 2.36 4.135 0 6.4275-2.655 6.4275-2.655l-.2075 1.29c-.0775.49.3012.9338.7987.9338h4.18a1.3465 1.3465 0 001.3313-1.1362l2.51-15.8925c.0775-.49-.3025-.9338-.7988-.9338m-27.8592.1115c-.53 3.48-3.1875 3.48-5.7588 3.48h-1.4625l1.0263-6.4975a.8065.8065 0 01.7975-.6812h.6712c1.75 0 3.4025 0 4.255.9962.51.5963.6638 1.4813.4713 2.7025m-1.1188-9.08h-9.695a1.3476 1.3476 0 00-1.3312 1.1375l-3.92 24.86c-.0775.49.3025.9338.7975.9338h4.975a.943.943 0 00.9312-.795l1.1125-7.0488c.1025-.655.6675-1.1375 1.33-1.1375h3.0675c6.3863 0 10.0725-3.09 11.035-9.2162.4338-2.6775.0175-4.7825-1.2362-6.2563-1.3788-1.62-3.8225-2.4775-7.0663-2.4775"/>
	</g>		
	<path fill="#d8d8d8" d="M32.6064 3.4075C30.514 1.0225 26.7314 0 21.8927 0H7.8489c-.99 0-1.8312.72-1.9862 1.6963L.0152 38.7824c-.1163.7312.45 1.3938 1.1912 1.3938h8.67L12.054 26.365l-.0675.4325c.155-.9763.99-1.6963 1.9788-1.6963h4.12c8.0937 0 14.4312-3.2875 16.2825-12.7975.055-.2812.1025-.555.1437-.8225-.2337-.1237-.2337-.1237 0 0 .5513-3.515-.004-5.9075-1.905-8.0737"/>
	<path fill="#d8d8d8" d="M14.3942 11.5279a1.7595 1.7595 0 01.9775-1.3125c.2312-.11.4887-.1713.7587-.1713h11.01c1.3038 0 2.52.085 3.6313.2638.3187.0512.6275.11.9275.1775.3.0662.5912.1412.8737.2237.1413.0412.28.0838.4163.1288.5462.1825 1.055.395 1.5225.6437.5512-3.5162-.004-5.9075-1.905-8.0737-2.0938-2.385-5.875-3.4075-10.7138-3.4075H7.848c-.9887 0-1.83.72-1.985 1.6962L.0154 38.7816c-.1162.7325.45 1.3938 1.19 1.3938h8.6713l2.1775-13.8113 2.34-14.8362z"/>
	<path fill="#fff" d="M34.5117 11.4812a22.9795 22.9795 0 01-.1438.8225c-1.8512 9.5088-8.1887 12.7975-16.2825 12.7975h-4.1212c-.9888 0-1.8238.72-1.9775 1.6963l-2.11 13.3775-.5988 3.795c-.1012.64.3938 1.22 1.0413 1.22h7.3087c.865 0 1.6013-.63 1.7363-1.4837l.0713-.3726 1.3775-8.73.0888-.4825c.135-.8537.8712-1.4837 1.7362-1.4837h1.0938c7.08 0 12.6237-2.8763 14.2437-11.195.6763-3.4763.3263-6.3788-1.4625-8.4175-.5425-.6175-1.2162-1.1275-2.0012-1.5438"/>
	<path fill="#e0e0e0" d="M32.5733 10.7086a13.5043 13.5043 0 00-.8737-.2237c-.3-.0663-.61-.125-.9275-.1763-1.1125-.18-2.3275-.265-3.6325-.265H16.1308c-.2712 0-.5287.0613-.7587.1725a1.7545 1.7545 0 00-.9775 1.3125l-2.34 14.8363-.0675.4325c.1537-.9763.9887-1.6963 1.9775-1.6963h4.1212c8.0938 0 14.4313-3.2875 16.2825-12.7975.055-.2812.1013-.5537.1438-.8225-.4688-.2475-.9763-.4612-1.5225-.6425a12.3863 12.3863 0 00-.4163-.13"/>
</svg>