<svg xmlns="http://www.w3.org/2000/svg" width="298.021" height="73.005" role="img">
    <title>PayPal</title>
    <path fill="#fff9" d="M318.58 103.5c0 55.74-51.44 121.5-129.27 121.5h-74.97l-3.68 23.22L93.17 360H0L56.05 0H207c50.83 0 90.82 28.33 105.55 67.7a96.8692 96.8692 0 0 1 6.03 35.8z" transform="scale(.16357 .16223)"/>
    <path fill="#fff9" d="M318.58 103.5C302.54 95.11 283.09 90 261.92 90h-126.4l-21.18 135h74.97c77.73 0 129.27-65.76 129.27-121.5z" transform="scale(.16357 .16223)"/>
    <path fill="#fff" d="M372.28 207c-10.2713 62.4081-64.2924 108.1528-127.54 108h-52.06l-21.67 135H78.34l14.83-90 17.5-111.78 3.67-23.22h74.97c77.73 0 129.27-65.76 129.27-121.5 38.25 19.74 60.55 59.63 53.7 103.5z" transform="scale(.16357 .16223)"/>
    <path fill="#fff" d="M1305.9707-350.2791V2.4572h-72.8842v-352.7363Zm-99.7156 119.047V3.1017h-64.7861v-20.1993c-8.1957 8.8103-17.5624 15.4718-27.9046 20.1993-10.44 4.9424-21.7581 7.521-33.8567 7.521-15.2208 0-29.3682-3.1158-42.3449-9.3475-12.9767-6.554-24.2947-15.4719-33.8565-26.646-9.6593-11.2815-17.2697-24.3896-22.9288-39.3242-5.3663-15.257-8.0006-31.6958-8.0006-49.209 0-17.5133 2.6343-33.7373 8.0006-48.6719 5.659-15.257 13.2695-28.58 22.9288-39.8615 9.539-11.1957 21.062-20.1182 33.8565-26.2161 12.9768-6.554 27.1242-9.8848 42.3449-9.8848 12.0986 0 23.4167 2.4712 33.8567 7.521 10.4398 4.7275 19.8065 11.389 27.9046 20.1994v-20.1994h64.7861v-.2149zM1091.416-60.7195c13.2696 0 24.0996-4.9424 32.5881-15.042 8.7812-9.9923 13.1718-22.778 13.1718-38.3573 0-15.5793-4.3906-28.4725-13.1718-38.3573-8.4886-9.9922-19.4163-15.042-32.5881-15.042-13.1717 0-24.2947 4.9423-33.0758 15.042-8.4888 9.9922-12.6842 22.778-12.6842 38.3573 0 15.5792 4.2931 28.4724 12.6842 38.3572 8.7811 9.9923 19.8064 15.042 33.0758 15.042zM868.5681-350.2791c19.2212 0 35.6128 3.0084 49.175 8.9178 13.562 5.9093 24.9777 14.1825 34.3442 24.8194 9.5618 10.9592 17.0746 23.4226 22.441 37.4977 5.3663 14.075 8.0006 29.2245 8.0006 45.4485 0 16.224-2.6344 31.3735-8.0007 45.4485-5.267 13.9452-12.881 26.668-22.4409 37.4977-9.269 10.637-20.7822 18.91-34.3443 24.8194-13.562 5.9094-29.9537 8.9178-49.1749 8.9178h-35.1249V2.9945h-74.1526v-353.2736Zm-10.635 160.735c9.952 0 17.4649-1.0744 22.9288-3.3307 5.659-2.4712 10.3423-5.6945 13.9524-9.3475 7.6104-7.8434 11.4156-18.2654 11.4156-31.3735s-3.8052-23.5301-11.4156-31.3735c-3.7077-3.7605-8.2934-6.769-13.9524-8.9178-5.3663-2.4712-12.9768-3.7605-22.9288-3.7605h-24.5874v88.1035zm-371.8363-41.688h80.4947l54.6388 112.3858h.878l48.6871-112.3858h74.543L585.6175 122.0414H511.465l72.8843-161.5947L486.097-231.232Zm-14.3426 0V3.1017h-64.786v-20.1993c-8.1958 8.8103-17.5625 15.4718-27.9048 20.1993-10.44 4.9424-21.758 7.521-33.8566 7.521-15.2208 0-29.3683-3.1158-42.345-9.3475-12.9768-6.554-24.2948-15.4719-33.8566-26.646-9.5618-11.2815-17.2697-24.3896-22.9288-39.3242-5.3663-15.257-8.0006-31.6958-8.0006-49.209 0-17.5133 2.6343-33.7373 8.0006-48.6719 5.659-15.257 13.2695-28.58 22.9288-39.8615 9.5208-11.219 21.0485-20.1452 33.8566-26.2161 12.9767-6.554 27.1242-9.8848 42.345-9.8848 12.0987 0 23.4167 2.4712 33.8566 7.521 10.4399 4.7275 19.8065 11.389 27.9048 20.1994v-20.1994h64.786v-.2149zM356.9152-60.7195c13.2694 0 24.0996-4.9424 32.6857-15.042 8.7812-9.9923 13.1718-22.778 13.1718-38.3573 0-15.5793-4.3906-28.4725-13.1718-38.3573-8.4886-9.9922-19.4163-15.042-32.6857-15.042-13.2695 0-24.2948 4.9423-33.076 15.042-8.4885 9.9922-12.684 22.778-12.684 38.3573 0 15.5792 4.293 28.4724 12.684 38.3572 8.7812 9.9923 19.8065 15.042 33.076 15.042zM137.0917-350.2791c19.2212 0 35.6128 3.0084 49.1749 8.9178 13.5621 5.9093 24.9777 14.1825 34.3444 24.8194 9.5618 10.9592 17.0746 23.4226 22.4409 37.4977 5.3663 14.075 8.0007 29.2245 8.0007 45.4485 0 16.224-2.6344 31.3735-8.0007 45.4485-5.267 13.9452-12.881 26.668-22.441 37.4977-9.269 10.637-20.7822 18.91-34.3443 24.8194-13.5621 5.9094-29.9537 8.9178-49.1749 8.9178h-35.125V2.9945H27.8143v-353.2736Zm-10.5375 160.735c9.952 0 17.465-1.0744 22.9288-3.3307 5.659-2.4712 10.3423-5.6945 13.9524-9.3475 7.6104-7.8434 11.4156-18.2654 11.4156-31.3735s-3.8052-23.5301-11.4156-31.3735c-3.7076-3.7605-8.2934-6.769-13.9524-8.9178-5.3663-2.4712-12.9767-3.7605-22.9288-3.7605h-24.5874v88.1035h24.5874z" transform="matrix(.17203 0 0 .15419 73.3547 54.1874)"/>
</svg>