<svg xmlns="http://www.w3.org/2000/svg" viewBox="0 0 128.9 21.9"><g fill="#3200FF"><path d="M23.6 6.2h-4.3a2.5 2.5 0 0 0-2.5 2.5v13.2h2.8v-4.3h3.7c1.5 0 2.7-1.2 2.7-2.7V8.7c.1-1.4-1-2.5-2.4-2.5zm-.3 7.8c0 .4-.3.7-.7.7h-2.1a.7.7 0 0 1-.7-.7V9.8c0-.4.3-.7.7-.7h2.1c.4 0 .7.3.7.7V14zm12-7.8h-6.8v2.9h5.8c.3 0 .5.2.5.5v.4h-4.1a2.4 2.4 0 0 0-2.4 2.4v2.9c0 1.3 1.1 2.4 2.4 2.4h4.6c1.3 0 2.4-1.1 2.4-2.4V8.6c-.1-1.3-1.1-2.4-2.4-2.4zm-.5 7.1v.9c0 .3-.3.6-.6.6h-2.4a.6.6 0 0 1-.6-.6v-.9c0-.3.3-.6.6-.6h2.4c.3-.1.6.2.6.6zm34-7.1H62v2.9h5.8c.3 0 .5.2.5.5v.4h-4.1a2.4 2.4 0 0 0-2.4 2.4v2.9c0 1.3 1.1 2.4 2.4 2.4h4.6c1.3 0 2.4-1.1 2.4-2.4V8.6c0-1.3-1.1-2.4-2.4-2.4zm-.4 7.1v.9c0 .3-.3.6-.6.6h-2.4a.6.6 0 0 1-.6-.6v-.9c0-.3.3-.6.6-.6h2.4c.3-.1.6.2.6.6zm-8.5-7.1v2.9h-5.3c-.3 0-.5.2-.5.5v.4c0 .3.2.5.5.5h2.9c1.4 0 2.5 1.1 2.5 2.5v1.9c0 1.5-1.2 2.7-2.7 2.7h-5.9v-2.9h5.2c.3 0 .5-.2.5-.5v-.4c0-.3-.2-.5-.5-.5H54a2.7 2.7 0 0 1-2.7-2.7V8.7c0-1.4 1.1-2.5 2.5-2.5h6.1zm29.3 5.1V8.6c0-1.3-1.1-2.4-2.4-2.4h-4.4a2.5 2.5 0 0 0-2.5 2.5v6.4c0 1.4 1.1 2.5 2.5 2.5h6.7v-2.9h-5.8c-.3 0-.5-.2-.5-.5v-.5l6.4-2.4zm-6.4-.3V9.6c0-.3.2-.5.5-.5h2.6c.3 0 .5.2.5.5L82.8 11zm-33.7 8.1V6.2h-2.8V14c0 .4-.3.8-.8.8h-2.1a.8.8 0 0 1-.8-.8V6.2h-2.8v8.6c0 1.4 1 2.8 2.8 2.8h3.6v.6c0 .7-.5.8-1 .8h-5.4v2.9h6.3c1.8 0 3-1.3 3-2.8zM78.3 4.7V1.9h-2.1a2.8 2.8 0 0 0-2.8 2.8v13h2.8V9h2V6.2h-2v-.7c0-.5.4-.8.8-.8h1.3zM99 7.4V6.2h-4.3a2.6 2.6 0 0 0-2.6 2.6v6.3c0 1.4 1.2 2.6 2.6 2.6H99v-1.2h-4.2c-.8 0-1.5-.7-1.5-1.5V8.9c0-.8.7-1.5 1.5-1.5H99zm18.7-1.2h-1.1c-1.4 0-2.1.9-2.1 2.1v9.3h1.2v-9c0-.7.2-1.3 1.1-1.3h.9V6.2zm-15.6 0v1.2h6.4c.7 0 1.2.5 1.2 1.2V10h-5.1a2.6 2.6 0 0 0-2.6 2.6V15c0 1.4 1.2 2.6 2.6 2.6h3.7c1.4 0 2.6-1.2 2.6-2.6V8.6c0-1.3-1.1-2.4-2.4-2.4h-6.4zm6.2 10.2h-3.6c-.8 0-1.5-.7-1.5-1.5v-2.3c0-.8.7-1.5 1.5-1.5h5V15c0 .8-.6 1.4-1.4 1.4zm19.4-14.5v4.3h-5a2.6 2.6 0 0 0-2.6 2.6v6.3c0 1.4 1.2 2.6 2.6 2.6h3.6c1.4 0 2.6-1.2 2.6-2.6V1.9h-1.2zm-1.4 14.5h-3.4c-.8 0-1.5-.7-1.5-1.5v-6c0-.8.7-1.5 1.5-1.5h4.9V15c-.1.8-.7 1.4-1.5 1.4zM9.6 17.6H2.5A2.5 2.5 0 0 1 0 15.1V8.7c0-1.4 1.1-2.5 2.5-2.5h7.1c1.4 0 2.5 1.1 2.5 2.5v6.4c0 1.4-1.1 2.5-2.5 2.5z"/><path d="M1.9 5.5C2.2 3.6 4 2.1 6.1 2.1s3.9 1.5 4.2 3.4c.6.1 1.2.4 1.7.9v-.6a5.9 5.9 0 0 0-11.8 0v.6c.5-.4 1-.8 1.7-.9z"/></g></svg>