<svg xmlns="http://www.w3.org/2000/svg" width="646" height="90">
    <path fill="#F5F5F0" d="M455.736 35.5624c0-23.0505 15.301-35.3408 29.566-35.3408h5.133c14.413 0 24.532 11.3525 25.864 25.8146h-12.043c-.79-8.5884-6.368-15.1037-13.673-15.1037h-5.232c-8.489 0-16.979 9.1313-16.979 24.6299s8.194 24.63 16.831 24.63h5.084c7.355 0 12.982-6.8115 14.018-15.1038h12.044c-1.136 14.7089-13.377 25.8146-26.062 25.8146h-5.084c-14.758 0-29.467-12.3397-29.467-35.3408ZM582.07 42.3934V70.182h-11.599V20.4291h11.599v6.8608c1.826-4.2942 5.38-6.8608 10.02-6.8608h6.367v9.7235h-7.256c-5.775 0-9.131 6.4659-9.131 12.2408ZM107.75 35.6863v.0395c0 .385-.153.7552-.425 1.0266L72.878 71.1998a.7205.7205 0 0 1-.5133.2122h-.2172c-.3998 0-.7256-.3257-.7256-.7255V35.7258c0 .385-.153.7552-.4245 1.0266L36.7623 70.9876a1.4537 1.4537 0 0 1-1.0267.4244h-.0394c-.385 0-.7552-.153-1.0267-.4244L.4245 36.7574A1.4535 1.4535 0 0 1 0 35.7307v-.0395c0-.385.153-.7552.4245-1.0266L34.6596.4245A1.4535 1.4535 0 0 1 35.6863 0h.0395c.385 0 .7552.153 1.0266.4245l34.2352 34.2351c.2714.2715.4245.6417.4245 1.0267V.7256c0-.3998.3257-.7256.7255-.7256h.2172c.1925 0 .3751.079.5133.2122l34.4479 34.4474c.271.2715.424.6417.424 1.0267h.01ZM184.34 3.8345c-3.277-1.8016-7.127-2.7048-11.55-2.7048h-28.509v68.8158h12.389v-26.397h16.125c4.423 0 8.273-.9033 11.55-2.7049 3.277-1.8016 5.785-4.2991 7.522-7.4976 1.738-3.1935 2.606-6.8559 2.606-10.9872 0-4.1313-.868-7.7986-2.606-11.0119-1.737-3.2132-4.245-5.7157-7.522-7.5222l-.005.0098Zm-3.539 23.8649c-.755 1.5894-1.91 2.8529-3.465 3.7858-1.555.9329-3.514 1.4018-5.874 1.4018h-14.797V11.7961h14.797c3.475 0 6.086.9921 7.839 2.9763 1.752 1.9842 2.63 4.5163 2.63 7.5963 0 1.9694-.375 3.7463-1.13 5.3357v-.005Zm104.092-7.3001-20.745 57.4139c-1.505 4.1955-3.49 7.2755-5.948 9.24-2.458 1.9644-5.523 2.9467-9.19 2.9467h-6.313v-9.5855h5.424c1.703 0 3.115-.5972 4.225-1.7917 1.116-1.1945 3.08-6.2685 3.574-7.8875l-18.366-50.3359h11.994l11.895 35.5382c.785-2.9171 11.664-35.5382 11.664-35.5382H284.893Zm36.279 25.0445c2.098 2.1126 3.144 5.3505 3.144 9.7089 0 3.0158-.795 5.7009-2.384 8.0603-1.589 2.3593-3.726 4.2053-6.417 5.5281-2.685 1.3278-5.602 1.9892-8.751 1.9892h-4.032c-3.243 0-6.269-.6219-9.068-1.8707-2.803-1.2439-5.079-2.9665-6.658-5.4048-1.629-2.5123-2.394-5.8638-2.458-8.9487h11.402c.197 1.999.548 4.4768 1.94 5.6515 1.569 1.3229 3.139 1.6733 4.94 1.6733h3.342c1.836 0 3.376-.459 4.62-1.3771 1.244-.9181 1.866-2.3445 1.866-4.2745 0-1.6387-.474-2.9072-1.427-3.8104-.952-.8984-2.409-1.5302-4.373-1.8905l-9.487-1.8657c-3.963-.7848-6.989-2.3841-9.067-4.7928-2.083-2.4087-3.119-5.464-3.119-9.1659 0-2.8825.77-5.4738 2.31-7.7641 1.54-2.2951 3.603-4.0622 6.194-5.311 2.587-1.2438 5.375-1.8657 8.357-1.8657h3.785c3.016 0 5.815.6071 8.406 1.8164 2.586 1.2142 4.684 2.927 6.293 5.1382 1.604 2.2113 2.444 6.234 2.508 9.1166h-11.111c-.133-1.7029-.424-4.1264-1.841-5.4788-1.357-1.2932-2.813-1.7473-4.452-1.7473h-3.194c-1.673 0-3.045.4491-4.131 1.3524-1.081.9032-1.624 2.1372-1.624 3.7118 0 1.2783.449 2.3938 1.353 3.3415.898.9527 2.221 1.6042 3.958 1.9645l9.684 2.0138c4.225.8836 7.389 2.3841 9.487 4.4966l.005.0049Zm48.722 13.5687c-.395-.538-.592-1.3672-.592-2.4827V38.0943c0-3.4403-.741-6.5795-2.212-9.4126-1.476-2.8332-3.603-5.0544-6.392-6.6585-2.788-1.6042-6.061-2.4087-9.832-2.4087h-3.588c-3.342 0-6.456.6959-9.339 2.0878-2.882 1.392-5.242 3.3663-7.078 5.9231-1.836 2.5568-2.591 4.8815-2.853 8.159h11.55c.163-2.2952.686-3.6032 2.162-4.9162 1.476-1.308 3.391-1.8657 5.553-1.8657h3.588c1.244 0 2.409.3702 3.49 1.1056 1.081.7404 1.935 1.772 2.557 3.0948.622 1.3278.932 2.8134.932 4.4472v.9872l-13.124 1.9645c-5.276.8539-9.497 2.5715-12.656 5.1629-3.163 2.5913-4.743 6.1303-4.743 10.617 0 2.8875.681 5.4097 2.039 7.5716 1.357 2.1619 3.287 3.8352 5.775 5.0149 2.492 1.1796 5.375 1.7719 8.652 1.7719 3.505 0 6.604-.686 9.289-2.0631 2.686-1.3772 4.67-3.2577 5.948-5.6516.129 2.3939.908 4.1461 2.335 5.2616 1.426 1.1155 3.366 1.6733 5.824 1.6733h7.72v-9.6842c-1.476 0-2.582-.074-3.317-.2221-.74-.1481-1.303-.4887-1.698-1.0316l.01-.0099Zm-12.044-9.6101c0 2.4235-.498 4.5706-1.5 6.4413-1.002 1.8707-2.409 3.3169-4.225 4.3485-1.822 1.0316-3.909 1.5499-6.269 1.5499-1.999 0-3.638-.538-4.916-1.6239-1.278-1.081-1.915-2.4926-1.915-4.2301 0-2.1619.711-3.7414 2.137-4.7433 1.427-.9971 3.628-1.7621 6.609-2.2853l10.079-1.8658v2.4087ZM243.141 60.2662c-1.476 0-2.582-.074-3.317-.2221-.74-.148-1.303-.4886-1.698-1.0316-.395-.538-.592-1.3672-.592-2.4827V38.0943c0-3.4403-.741-6.5795-2.211-9.4126-1.476-2.8332-3.604-5.0544-6.392-6.6585-2.789-1.6042-6.062-2.4087-9.833-2.4087h-3.588c-3.342 0-6.456.6959-9.339 2.0878-2.882 1.392-5.242 3.3663-7.078 5.9231-1.836 2.5568-2.591 4.8815-2.853 8.159h11.55c.163-2.2952.686-3.6032 2.162-4.9162 1.476-1.308 3.391-1.8657 5.553-1.8657h3.588c1.244 0 2.409.3702 3.49 1.1056 1.081.7404 1.935 1.772 2.557 3.0948.622 1.3278.933 2.8134.933 4.4472v.9872l-13.125 1.9645c-5.276.8539-9.496 2.5715-12.655 5.1629-3.164 2.5913-4.744 6.1303-4.744 10.617 0 2.8875.682 5.4097 2.039 7.5716 1.357 2.1619 3.287 3.8352 5.775 5.0149 2.492 1.1796 5.375 1.7719 8.652 1.7719 3.505 0 6.605-.686 9.29-2.0631 2.685-1.3772 4.669-3.2577 5.947-5.6516.129 2.3939.909 4.1461 2.335 5.2616 1.427 1.1155 3.366 1.6733 5.824 1.6733h7.72v-9.6842l.01-.0099Zm-17.058-10.8638c0 2.4235-.499 4.5706-1.501 6.4413-1.002 1.8707-2.409 3.3169-4.225 4.3485-1.821 1.0316-3.909 1.5499-6.269 1.5499-1.999 0-3.637-.538-4.916-1.6239-1.278-1.081-1.915-2.4926-1.915-4.2301 0-2.1619.711-3.7414 2.137-4.7433 1.427-.9971 3.628-1.7621 6.61-2.2853l10.079-1.8658v2.4087Zm180.252-19.4177h-13.47v39.9657h-11.55V29.9847h-9.634v-9.5854h9.634V15.73c0-4.7533 1.195-8.3713 3.589-10.8639 2.394-2.4877 5.75-3.7364 10.079-3.7364h11.357v9.5854h-7.863c-1.9 0-3.312.4985-4.225 1.5005-.918 1.002-1.377 2.5321-1.377 4.5953v3.5884h13.47v9.5854h-.01Zm35.44-7.1767c-3.08-2.1274-6.555-3.1935-10.42-3.1935h-3.786c-3.672 0-7.152 1.0414-10.444 3.1194-3.292 2.083-5.957 5.0741-7.986 8.9685-2.034 3.8993-3.046 8.3416-3.046 13.3219s.943 9.3831 2.829 13.2972c1.885 3.9142 4.491 6.9645 7.813 9.1412 3.327 2.1817 7.004 3.2676 11.037 3.2676h3.638c3.44 0 6.609-.7552 9.511-2.2607 2.902-1.5054 5.281-3.5785 7.152-6.2191 1.866-2.6358 2.966-5.5776 3.292-8.8254h-11.012c-.424 2.1619-1.451 3.9734-3.07 5.4295-1.624 1.461-3.549 2.1866-5.775 2.1866h-3.638c-1.9 0-3.627-.6614-5.187-1.9892-1.555-1.3277-2.794-3.228-3.712-5.7009-.632-1.7078-1.041-3.6032-1.239-5.6762h33.88c.035-.3456.197-3.1294.197-4.2745 0-4.3238-.903-8.3071-2.704-11.9448-1.802-3.6377-4.245-6.5203-7.325-8.6526l-.005.005Zm-23.613 16.3673c.232-1.0365.533-2.0237.903-2.9467.982-2.4581 2.27-4.3238 3.86-5.6022 1.589-1.2784 3.253-1.9151 4.99-1.9151h3.44c1.54 0 2.981.459 4.324 1.3771 1.343.918 2.419 2.1866 3.218 3.8105.8 1.6239 1.234 3.386 1.303 5.2863h-22.038v-.0099ZM563.152 60.0436c-.74-.148-1.303-.4886-1.698-1.0315-.395-.538-.592-1.3673-.592-2.4828V38.0941c0-3.4402-.74-6.5794-2.211-9.4125-1.476-2.8332-3.603-5.0543-6.392-6.6584-2.789-1.6042-6.061-2.4087-9.832-2.4087h-3.589c-3.341 0-6.456.6959-9.338 2.0878-2.883 1.3919-5.242 3.3663-7.078 5.923-1.836 2.5567-2.591 4.8815-2.853 8.1589h11.55c.163-2.2952.686-3.6032 2.162-4.9161 1.476-1.308 3.391-1.8657 5.553-1.8657h3.588c1.244 0 2.409.3702 3.489 1.1056 1.081.7404 1.935 1.772 2.557 3.0948.622 1.3277.933 2.8134.933 4.4471v.9872l-13.124 1.9644c-5.277.8539-9.497 2.5716-12.656 5.1629-3.163 2.5913-4.743 6.1302-4.743 10.6169 0 2.8825.681 5.4096 2.039 7.5715 1.357 2.1619 3.287 3.8351 5.774 5.0148 2.488 1.1796 5.376 1.7719 8.653 1.7719 3.504 0 6.604-.6861 9.289-2.0631 2.685-1.3771 4.669-3.2577 5.948-5.6515.128 2.3938.908 4.146 2.334 5.2615 1.427 1.1155 3.367 1.6733 5.825 1.6733h7.719v-9.6841c-1.476 0-2.581-.074-3.317-.2221l.01-.0099Zm-13.741-10.6415c0 2.4234-.499 4.5705-1.501 6.4412-1.001 1.8706-2.408 3.3168-4.225 4.3484-1.821 1.0316-3.909 1.5499-6.268 1.5499-1.999 0-3.638-.538-4.916-1.6239-1.279-1.081-1.915-2.4926-1.915-4.23 0-2.1619.711-3.7413 2.137-4.7433 1.426-.997 3.628-1.7621 6.614-2.2853l10.079-1.8657v2.4087h-.005ZM620.277 60.7647h3.307c6.021 0 10.809-6.4659 10.809-15.696s-4.788-15.696-10.809-15.696h-3.307c-5.677 0-10.761 6.4166-10.761 15.696 0 9.2794 5.035 15.696 10.761 15.696Zm-22.508-15.696c0-14.2153 8.391-25.6665 21.076-25.6665h3.011c4.393 0 9.329 3.0109 11.698 6.6141V1.1297h11.55v68.8158h-11.55v-5.7256c-2.764 3.8006-8.243 6.5153-12.044 6.5153h-2.862c-12.044 0-20.879-11.8954-20.879-25.6665Z"/>
</svg>