<svg xmlns="http://www.w3.org/2000/svg" viewBox="0 0 289.21 144.31">
<defs>
	<linearGradient id="background" x1="205.32" x2="205.32" y1="200" y2="79.48" gradientUnits="userSpaceOnUse">
		<stop offset="0" stop-color="#438f29"/>
		<stop offset=".71" stop-color="#a6c307"/>
	</linearGradient>
</defs>
<g fill="#a6c307">
	<rect width="17.85" height="18.01" x="271.37" y="12.23" rx="2.53"/>
	<rect width="12.12" height="12.23" x="259.23" rx="1.72"/>
</g>
	<path fill="url(#background)" d="M108.71 77.66H90.1c-9.94 0-14.37 4.44-14.37 14.38v63.87c0 3.84 1.23 5.07 5.07 5.07h1.26c3.84 0 5.07-1.23 5.07-5.07v-24.85h21.58c19.16 0 28.08-8.49 28.08-26.7s-8.92-26.7-28.08-26.7zm16.67 26.7c0 10.41-2.65 16-16.67 16H87.13V93.55c0-3.73 1.39-5.11 5.11-5.11h16.47c10.56 0 16.67 2.56 16.67 15.92zM160.76 96A66.84 66.84 0 00147 97.25c-3.11.68-4.4 1.53-4.4 5.06v1a5.49 5.49 0 00.64 3 2.73 2.73 0 002.45 1.18 7.92 7.92 0 001.92-.28 67.6 67.6 0 0113.64-1.36c11.13 0 15.67 3.09 15.67 10.64v6.75h-14c-18 0-26.44 6.08-26.44 19.15 0 12.68 8.67 19.66 24.43 19.66 18.73 0 27.08-6.37 27.08-20.66v-24.9C188 102.69 179.06 96 160.76 96zm16.17 36.29V141c0 7.14-2.65 11.27-16.17 11.27-8.94 0-13.29-3.24-13.29-9.89 0-7.29 4.36-10.14 15.55-10.14zm73-29.32l-14.46 57.84c-4.24 17-11.48 24.24-25 25.12-.35 0-.68.05-1 .05-2.91 0-3.83-1.61-4.37-4.21l-.25-1.12a4.29 4.29 0 01.29-3.43c.66-.89 1.86-1.16 3.69-1.31 9.06-.93 12.13-5.11 15.14-14.61a15.57 15.57 0 01-5 .74c-10 0-12.61-6.93-14.85-15.3L192.17 103c-.4-1.49-.67-3 .11-4s2.28-1.15 3.8-1.15h1c3.75 0 5.2 1.1 6.17 4.74l11.82 43.37c1.53 5.41 3.06 6.32 6.9 6.32 3.13 0 5-1 6.26-6.3l10.44-43.37c.83-3.6 2.3-4.76 6-4.76h1.13c1.51 0 3 .13 3.81 1.13s.64 2.48.3 4.02zm85-16.9v43.83c0 7.06-1.59 13-4.67 17.84-5.93 9.34-17.43 14.31-33.78 14.31h-.12c-16.36 0-27.86-5-33.79-14.31-3.08-4.81-4.67-10.78-4.67-17.84V86.05c0-7.09 2.89-8.37 10.67-8.37H271c7.78 0 10.67 1.28 10.67 8.37V129.9a12.38 12.38 0 001.67 6.84c2.12 3.26 6.32 4.75 13 4.76s10.91-1.5 13-4.77a12.34 12.34 0 001.67-6.83v-23.16-4.01-16.68c0-7.09 2.89-8.37 10.67-8.37h2.45c7.87 0 10.79 1.32 10.79 8.37z" transform="translate(-75.73 -41.65)"/>
	<rect width="24.03" height="24.24" x="247.32" y="30.23" rx="3.4" style="mix-blend-mode:multiply" fill="#a6c307"/>
</svg>