<svg xmlns="http://www.w3.org/2000/svg" viewBox="0 0 177.62 52.42">
    <path fill="#fbe200" d="M0 0h177.62v52.42H0z" />
	<g fill="#004a99">
		<path d="M243.42 387.46a7.51 7.51 0 012.81-.5 6.32 6.32 0 014.61 1.73 7.52 7.52 0 012.09 4.82 13.51 13.51 0 01-.43 4.68 12.91 12.91 0 01-1.73 4.32 8.92 8.92 0 01-3.46 3.46 8.77 8.77 0 01-3.89 1.22v-2.88a8.47 8.47 0 001.44-.57 6.94 6.94 0 002.38-2.6 15.5 15.5 0 001.51-3.74 12.31 12.31 0 00.36-3.89 5.26 5.26 0 00-1.29-3.09 4 4 0 00-3-1.16 4.82 4.82 0 00-1.44.22zm-12.74 26.64l5-21.81c.14-.87.29-1.66.43-2.52s.14-1.66.22-2.52h3.45l-.29 2.95a12.13 12.13 0 013.24-2.45 3.87 3.87 0 01.72-.29v2a6.21 6.21 0 00-3.81 3.46 15.57 15.57 0 00-1.51 4 12.62 12.62 0 00-.36 3.81 3.81 3.81 0 004 3.75 5.87 5.87 0 001.65-.22v2.88h-.64a7.49 7.49 0 01-3.46-.79 7.58 7.58 0 01-2.52-2.3l-2.3 10zM335.8 390.34a7.26 7.26 0 00-1.22.15v-2.81a2.65 2.65 0 00.5-.22 7.57 7.57 0 013.38-.72 6.09 6.09 0 014.47 1.66 7.16 7.16 0 011.87 4.75 14.39 14.39 0 01-2.23 9.87 8.35 8.35 0 01-7.27 4.1c-.22 0-.51-.07-.72-.07v-3.75a2.68 2.68 0 001.22-.57 6.4 6.4 0 001.66-2.23 18.12 18.12 0 001.22-3.6 11.29 11.29 0 00.29-3.32 3.56 3.56 0 00-.94-2.37 3 3 0 00-2.23-.87zm-1.22.15a5.48 5.48 0 00-3 2.66 10.51 10.51 0 00-1.36 6.48 4.51 4.51 0 001.08 2.81 3 3 0 002.37 1 3.31 3.31 0 00.87-.15v3.75a6.75 6.75 0 01-2.81-.79 5.64 5.64 0 01-2.38-2.45l-2.3 10.29h-6l4.61-20.88c.58-2.66.94-4.68 1.08-6h5.4l-.14 2.37a14.31 14.31 0 012.52-1.94zM358.26 397.47a.91.91 0 00-.43-.07h-.65a8.86 8.86 0 00-2.52.29v-3.17c.8-.07 1.73-.07 2.67-.07H359a9.51 9.51 0 00.29-1.66 4.54 4.54 0 00.07-.93 1.67 1.67 0 00-.72-1.3 2.64 2.64 0 00-1.65-.43 3 3 0 00-2 .57c-.14.15-.28.22-.36.44v-4A12.42 12.42 0 01357 387a10.76 10.76 0 015.76 1.22 4.77 4.77 0 012.16 3.75 6 6 0 010 1.58c-.07.51-.22 1.15-.36 1.8l-1.56 6.59c-.22.79-.29 1.58-.44 2.44s-.07 1.66-.07 2.52H357v-1.36c0-.51.07-.94.07-1.44a7.07 7.07 0 01-2.45 2.23v-3a5.61 5.61 0 001.73-1.36 9.28 9.28 0 001.91-4.5zm-3.6.22a5.65 5.65 0 00-2 .93 3 3 0 00-1.59 3 1.87 1.87 0 00.65 1.51 2 2 0 001.51.5 3.15 3.15 0 001.44-.29v3l-.14.07a6.5 6.5 0 01-3.17.79 6.09 6.09 0 01-4.17-1.44 5.29 5.29 0 01-1.8-3.74 5.66 5.66 0 012.73-5.62 14.22 14.22 0 016.55-1.87v3.17zm0-10.59v4a3.81 3.81 0 00-.57 1.44h-5.69a5.43 5.43 0 012.45-4.18 10 10 0 013.81-1.26z" transform="translate(-220.53 -371.84)" />
		<path d="M145.37 42.19l4.75-7.2-3.46-19.73h5.91l1.65 13.54 7.64-13.54h5.61l-12.24 20.52-3.53 6.41h-6.33z"/>
		<path d="M264.23 389.12a4.85 4.85 0 00-1.44.22v-2.52a14.16 14.16 0 011.87-.08 8.57 8.57 0 015.48 1.66 6.6 6.6 0 012.37 4.75 14.12 14.12 0 01-.5 5.11 14.31 14.31 0 01-1.95 4.68 8.41 8.41 0 01-3.6 3.24 10.27 10.27 0 01-3.67.94v-2.52a5.16 5.16 0 001.59-.65 6.49 6.49 0 002.23-2.37 14.88 14.88 0 001.58-4.11 13.94 13.94 0 00.43-4 4.82 4.82 0 00-1.29-3.24 4.16 4.16 0 00-3.1-1.11zm-1.44.22a7.49 7.49 0 00-1.58.64 8.49 8.49 0 00-2.31 2.67 13.53 13.53 0 00-1.51 4 14.42 14.42 0 00-.36 4.1 4.32 4.32 0 001.3 3 4.38 4.38 0 003.09 1.08 8.13 8.13 0 001.37-.14v2.52c-.5 0-1.08.07-1.65.07a8 8 0 01-5.55-1.8 6.54 6.54 0 01-2.37-4.89 13.78 13.78 0 01.57-5.33 14.52 14.52 0 012.23-4.83 8.91 8.91 0 013.53-2.73 14.1 14.1 0 013.24-.79zM276.47 400.42a2.56 2.56 0 00-.21.94 1.1 1.1 0 000 .72 2.11 2.11 0 00.93 1.73 4.11 4.11 0 002.52.57 6.21 6.21 0 003.53-.86 2.59 2.59 0 001.15-2.38 2 2 0 00-.79-1.51 14.37 14.37 0 00-3.1-1.73 15.58 15.58 0 01-4.24-2.59 3.69 3.69 0 01-1.37-2.66 4.73 4.73 0 011.87-4.25 9.5 9.5 0 015.83-1.66 9.85 9.85 0 015 1 3.53 3.53 0 011.87 2.95v.72a7.26 7.26 0 01-.07 1.08h-3.53v-1.08a2.07 2.07 0 00-.93-1.65 4.14 4.14 0 00-2.38-.58 4.54 4.54 0 00-2.81.79 2.16 2.16 0 00-.93 2.09 1.91 1.91 0 00.79 1.37 14.12 14.12 0 003.17 1.8 16.35 16.35 0 014.53 2.74 4.46 4.46 0 011.15 2.73 4.91 4.91 0 01-2.3 4.61 11 11 0 01-6.62 1.87 10.37 10.37 0 01-5.12-1.15 4.2 4.2 0 01-2-3.31 2.78 2.78 0 010-1.08c.07-.36.14-.79.21-1.23zM300.16 406.9l-1.94.22c-.58 0-1.16.07-1.66.07a5.25 5.25 0 01-3.17-.72 2.68 2.68 0 01-1.15-2.3 8.52 8.52 0 01.07-1.8c.07-.87.29-1.73.43-2.67l2.24-9.79h-3.6l.64-2.52h3.53l1-4.46 3.82-.94-1.16 5.4h4.25l-.57 2.52h-4.25l-2.16 10.23a7.8 7.8 0 00-.36 1.72 2.17 2.17 0 00-.07.94 1.21 1.21 0 00.57 1.15 3.1 3.1 0 001.87.43 8.75 8.75 0 001.16-.14 5.83 5.83 0 001.15-.22zM312.62 394.81h4.89c.07-.65.15-1.15.15-1.51a2.12 2.12 0 000-.94 3.29 3.29 0 00-1.23-2.45 5.13 5.13 0 00-3.09-.93c-.22 0-.51.07-.72.07v-2.38h.79a9.89 9.89 0 015.76 1.44 6 6 0 012.16 4.54 12.61 12.61 0 010 2.3 10.94 10.94 0 01-.36 2.52h-8.35v-2.66zm0 12.24v-2.95a6.54 6.54 0 001.22-.58 4.82 4.82 0 001.87-2.52H320a7.45 7.45 0 01-3.24 4.54 9.43 9.43 0 01-4.14 1.51zm-5-12.24h5v2.66h-5.69a6.59 6.59 0 00-.36 1.66 10.41 10.41 0 00-.07 1.44 4.29 4.29 0 001.29 2.81 4.81 4.81 0 003.17 1 4.36 4.36 0 001.66-.28v2.95a19.63 19.63 0 01-2.09.14 8.51 8.51 0 01-5.47-1.65 6.49 6.49 0 01-2.24-4.68 15 15 0 01.51-5.19 17.71 17.71 0 011.94-4.89 8.58 8.58 0 013.39-3 9.78 9.78 0 014-1.08v2.38a4.59 4.59 0 00-3 1.44 7.64 7.64 0 00-2.08 4.29z" transform="translate(-220.53 -371.84)" />
	</g>
    </svg>