<svg xmlns="http://www.w3.org/2000/svg" viewBox="0 0 29.57 13.43">
	<path fill="#2d3540" d="M14.5 7.6h.45v1.03h.33l.6-1.03h.5l-.71 1.2v.02l.76 1.31h-.52l-.62-1.1h-.33v1.1h-.46V7.6zm2.96.67c.55 0 1 .4 1 .95 0 .57-.44.96-1 .96-.55 0-1-.4-1-.96 0-.56.44-.95 1-.95zm1.36.04h.43v1.43h.57V8.31h.44v1.43h.57V8.31h.43v1.82h-2.43V8.31zm3.73-.04c.52 0 .8.38.8.86a1.27 1.27 0 01-.01.18h-1.25c.02.31.27.48.54.48.19 0 .38-.08.52-.2l.18.33c-.19.16-.47.27-.73.27a.93.93 0 01-.98-.96c0-.57.38-.96.93-.96zm1.02 1.48c.22-.03.38-.22.38-.87v-.57h1.33v1.82h-.45V8.68h-.45v.2c0 .8-.2 1.25-.81 1.27v-.4zm3-1.48c.52 0 .81.38.81.86a1.27 1.27 0 01-.02.18h-1.25c.03.31.28.48.55.48.18 0 .37-.08.52-.2l.18.33c-.2.16-.47.27-.74.27a.93.93 0 01-.98-.96c0-.57.39-.96.93-.96zm1.19.04h.45v.7h.22l.44-.7h.5l-.58.87v.01l.65.94h-.53l-.47-.74h-.24v.74h-.45V8.31zM17.46 9.8c.3 0 .54-.23.54-.57a.55.55 0 00-.54-.58c-.3 0-.54.23-.54.58 0 .34.24.57.54.57zm5.44-.8c0-.23-.17-.38-.37-.38-.23 0-.4.15-.44.38zm4.02 0c0-.23-.16-.38-.36-.38-.23 0-.4.15-.45.38z"/>
	<path fill="#ff8c00" d="M20.85 2.07v4.3a.12.12 0 01-.12.12h-.87a.12.12 0 01-.12-.12v-4.3a.12.12 0 01.12-.12h.87a.12.12 0 01.12.12zm6.85-.12a.2.2 0 01.12.06c.02.02.02.06.01.1L26.4 6.4a.12.12 0 01-.12.08h-.78c-.05 0-.1-.02-.1-.08l-.85-2.5-.84 2.5a.12.12 0 01-.12.08h-.78c-.05 0-.1-.02-.1-.08l-1.46-4.3c0-.04 0-.07.02-.1.02-.04.06-.06.1-.06h.97c.05 0 .1.04.11.09l.78 2.54.85-2.54a.12.12 0 01.11-.08h.69c.05 0 .1.03.11.08l.85 2.54.78-2.54a.12.12 0 01.1-.09h.99zm1.48 0c.06 0 .1.06.12.12v4.3a.12.12 0 01-.12.12h-.88a.12.12 0 01-.12-.12v-4.3a.12.12 0 01.12-.12zm-9.95 4.39c.05.06 0 .14-.07.14h-1.07a.14.14 0 01-.12-.05l-.17-.22a2.38 2.38 0 11.71-.7l.72.83zm-8.97 2.08c.22.09.3.42.33.57.03.26-.05.36-.13.36-.09 0-.2-.1-.33-.3-.13-.2-.18-.44-.11-.56.04-.08.13-.1.24-.07zm-1.3.97c.14 0 .3.06.43.17.27.23.34.48.2.67-.07.1-.2.15-.34.15a.6.6 0 01-.4-.14c-.24-.2-.3-.55-.15-.74a.33.33 0 01.27-.11zM6 11.85a5.86 5.86 0 115.03-2.86c-.02.03-.06.02-.07-.01A2.72 2.72 0 008.6 6.5c-.1-.02-.12-.09.02-.1.4-.04.95-.03 1.24.02l.02-.45A3.88 3.88 0 106 9.85h.18a5.23 5.23 0 01-.08-1.04c0-.24.06-.28.16-.09.54.93 1.3 1.76 2.8 2.1a5.7 5.7 0 013.77 2.26c.12.14-.06.3-.2.18a5.45 5.45 0 00-3.68-1.58c-1.25 0-2.1.17-2.96.17zm11.1-6.47l-.46-.57c-.05-.06 0-.15.07-.15h.99c.05-.14.07-.29.07-.44 0-.7-.53-1.32-1.25-1.32s-1.25.61-1.25 1.32c0 .7.53 1.3 1.25 1.3.2.02.4-.04.59-.14z"/>
</svg>