<svg xmlns="http://www.w3.org/2000/svg" viewBox="0 0 106 40" width="106" height="40" role="img">
    <title>Sofort</title>
    <path d="M99.5695 39.8323H0.107544L6.73912 0.0477295H106.201L99.5695 39.8323Z" fill="#2E3235"/>
    <path d="M31.8315 23.225C30.1333 23.225 28.9403 22.1104 28.9403 20.3703C28.9403 18.4444 30.421 16.6369 32.5544 16.6369C34.2526 16.6369 35.4456 17.8025 35.4456 19.5429C35.4456 21.469 33.9625 23.225 31.8315 23.225ZM32.8234 13.3092C28.3625 13.3092 24.9824 16.6032 24.9824 20.5391C24.9824 24.1036 27.7661 26.5707 31.5602 26.5707C36.0234 26.5707 39.4011 23.1742 39.4011 19.2383C39.4011 15.6743 36.6175 13.3092 32.8234 13.3092Z" fill="#E5E5E0"/>
    <path d="M58.7251 23.225C57.0268 23.225 55.8338 22.1104 55.8338 20.3703C55.8338 18.4444 57.3169 16.6369 59.4479 16.6369C61.1461 16.6369 62.3391 17.8025 62.3391 19.5429C62.3391 21.469 60.8561 23.225 58.7251 23.225ZM59.7192 13.3092C55.2561 13.3092 51.8783 16.6032 51.8783 20.5391C51.8783 24.1036 54.6596 26.5707 58.4537 26.5707C62.9169 26.5707 66.2947 23.1742 66.2947 19.2383C66.2947 15.6743 63.5134 13.3092 59.7192 13.3092Z" fill="#E5E5E0"/>
    <path d="M73.076 19.5909H72.4935L72.9286 16.935H73.4573C74.6971 16.935 75.352 17.3097 75.352 18.1266C75.352 19.0971 74.4234 19.5909 73.076 19.5909ZM79.4292 17.4969C79.4292 15.1135 77.5719 13.5813 74.2222 13.5813H69.4877L67.4128 26.2983H71.4011L72.0561 22.2976H72.2386L74.3509 26.2983H78.9193L75.9883 21.8547C78.1356 21.1055 79.4292 19.4887 79.4292 17.4969Z" fill="#E5E5E0"/>
    <path d="M20.4163 18.6545C18.9052 17.8881 18.559 17.6839 18.559 17.2755C18.559 16.7646 19.1602 16.5092 19.9976 16.5092C20.9567 16.5092 22.4093 16.6173 23.8339 17.978C24.1871 16.8877 24.7602 15.8949 25.5087 15.04C23.4947 13.9034 21.6374 13.3092 19.9251 13.3092C16.5193 13.3092 14.5707 15.1307 14.5707 17.3265C14.5707 19.2161 15.9929 20.2035 17.6842 21.0713C19.1976 21.8547 19.5789 22.0933 19.5789 22.5703C19.5789 23.0809 18.9427 23.3698 18.1052 23.3698C16.6479 23.3698 14.9544 22.4507 13.9532 21.5143L13.3707 25.0554C14.407 25.8039 15.9017 26.5698 18.159 26.5698C21.6725 26.5698 23.5649 24.8002 23.5649 22.519C23.5649 20.6629 22.3462 19.6418 20.4163 18.6545Z" fill="#E5E5E0"/>
    <path d="M49.89 19.1649H45.2233L45.5859 16.935H50.5941C51.242 15.5937 52.2432 14.4466 53.497 13.5813H45.3052C43.4876 13.5813 41.9438 14.822 41.6677 16.5013L40.0701 26.2983H44.0584L44.7133 22.2976H49.4479L49.787 20.1233C49.8034 19.7981 49.8385 19.4788 49.89 19.1649Z" fill="#E5E5E0"/>
    <path d="M79.5134 13.5813C80.5801 14.4005 81.2374 15.5457 81.3754 16.935H84.7111L83.1813 26.2983H87.1672L88.6971 16.935H92.393L92.9403 13.5813H79.5134Z" fill="#E5E5E0"/>
</svg>