<svg xmlns="http://www.w3.org/2000/svg" viewBox="20.3 236.8 600 170.6">
  <path fill="#ed1d24" d="M58 256a18.6 18.6 0 015.6-13.6 18.5 18.5 0 0120.8-4.1c2.3 1 4.3 2.4 6 4.1a19.6 19.6 0 015.5 13.6 19.6 19.6 0 01-5.5 13.6 18.1 18.1 0 01-13.4 5.6c-2.6 0-5.1-.5-7.4-1.5a19.4 19.4 0 01-10.1-10.2c-1-2.3-1.5-4.8-1.5-7.5M39.1 387.2c-2.6 0-5-.5-7.3-1.5s-4.3-2.4-6-4.1a19.6 19.6 0 01-5.5-13.6v-7.7h86.8v-11.6H20.3v-42.5a19.6 19.6 0 015.5-13.6c1.7-1.7 3.7-3.1 6-4.1a18 18 0 017.3-1.5h75.7a18.5 18.5 0 0113.4 5.6 19.6 19.6 0 015.5 13.6v7.7h-87v11.5h87v42.5a19.6 19.6 0 01-5.5 13.6 18.5 18.5 0 01-13.4 5.6H39.1zm167.8 1.2a59.8 59.8 0 01-18.7-3.2l-2.9-1.2 2.8-8a42.5 42.5 0 0017.7 4c4.1 0 7.3-.6 9.7-1.8 2.3-1.2 3.8-2.7 4.4-4.5.6-1.8.9-3.5.9-5.1a9 9 0 00-2.6-6.6c-1.8-1.7-3.9-3-6.3-4l-6.7-2.7-5.4-2.1a26.5 26.5 0 01-9.5-7.1 14 14 0 01-2.4-4.9 21.8 21.8 0 011-13.1c1.1-2.4 2.6-4.4 4.6-6.1a22 22 0 017.3-3.8c2.9-.9 6.1-1.3 9.7-1.3a59.4 59.4 0 0113.4 1.7l3.3.9v8.8a63.9 63.9 0 00-11-2.7c-2-.3-3.9-.4-5.8-.4-4.3 0-7.6.9-9.9 2.7-2.4 1.8-3.5 4.4-3.5 7.7 0 1.7.4 3.1 1.1 4.3a9.5 9.5 0 003.2 3.1c1.3.9 3 1.7 4.8 2.5l6.2 2.3c2.5.9 4.9 1.9 7.2 3a20.7 20.7 0 0110.2 9.6c1 2.2 1.6 5 1.6 8.3 0 3.2-.5 6.1-1.6 8.6s-2.7 4.6-4.8 6.3c-2.1 1.7-4.6 3-7.6 3.9a64 64 0 01-10.4.9m36.7 19v-70.6h9.1l.2 7.3c.8-1.7 2.1-3.2 3.6-4.6 1.6-1.3 3.3-2.3 5.2-2.9 1.9-.6 3.9-.9 5.9-.9 4.6 0 8.4 1.2 11.4 3.7 3 2.4 5.1 5.7 6.2 9.7a46 46 0 01.2 23.6c-.9 3.3-2.3 6.2-4.1 8.4-1.8 2.3-4 4-6.7 5.2a22 22 0 01-9.1 1.8c-2.8 0-5.2-.4-7.3-1.1-2-.7-3.8-1.7-5.2-3v23.2h-9.4zm20-27.1a11.6 11.6 0 009.8-4.8c.8-1.4 1.4-2.7 1.9-4a45.8 45.8 0 001.3-10c0-4-.5-7.4-1.4-10.1a11 11 0 00-4.2-5.8 11.9 11.9 0 00-6-1.7c-1.9 0-3.6.5-5.1 1.4-1.5.9-2.7 2.2-3.8 3.9-1 1.7-1.8 3.6-2.3 5.9-.5 2.3-.8 4.8-.8 7.5v13c1.4 1.5 3 2.6 4.7 3.5 1.8.8 3.7 1.2 5.9 1.2m48.8 7.9c-2.1 0-4-.3-5.9-.8a12.5 12.5 0 01-8.2-7.4c-.8-1.9-1.2-4.3-1.2-7 0-3.8.9-7 2.6-9.5 1.7-2.5 4.2-4.4 7.6-5.8a36 36 0 0114.1-2.3h4.9v-2.7a11 11 0 00-1.4-5.9 6.7 6.7 0 00-4.2-2.8 34.3 34.3 0 00-19.9 2.1V338l5.8-1.4a91.6 91.6 0 019.9-.9c3.3 0 6.1.3 8.5 1 2.4.6 4.4 1.7 5.9 3 1.6 1.4 2.7 3.1 3.4 5.2.7 2.1 1.1 4.6 1.1 7.5v34.7h-9l-.2-4.3a17 17 0 01-8.8 4.6c-1.5.5-3.3.8-5 .8m2.6-7.5a16.6 16.6 0 009.1-2.7c1-.7 1.8-1.4 2.3-2v-13.7H323c-2.8 0-5.2.2-7.2.5s-3.7.9-5.1 1.7a7.1 7.1 0 00-3 3.2 10 10 0 00-1 4.8c0 1.7.3 3.2 1 4.5a6.5 6.5 0 003 2.9c1.3.5 2.7.8 4.3.8m36.6 6.5v-50.5h9.1l.2 9.5c1.1-2.3 2.5-4.2 4.1-5.8 1.6-1.5 3.2-2.6 4.9-3.2a17 17 0 018.7-.6v9.2a14 14 0 00-3.4-.3 13.5 13.5 0 00-13.2 9.3c-.6 1.7-.9 3.3-.9 4.9V387h-9.5zm36.2 0v-73.3h9.5v42.4l18.5-19.5h11.4l-20.8 21.8c2 1.8 4.1 3.9 6.2 6.1a104 104 0 016 7.2c2 2.5 3.9 5 5.7 7.6l5.2 7.7h-11.9a189.5 189.5 0 00-20.3-24.9v24.8h-9.5zm61.4 1c-2.1 0-4-.3-5.9-.8a12.5 12.5 0 01-8.2-7.4c-.8-1.9-1.2-4.3-1.2-7 0-3.8.9-7 2.6-9.5 1.7-2.5 4.2-4.4 7.6-5.8a36 36 0 0114.1-2.3h4.9v-2.7a11 11 0 00-1.4-5.9 6.7 6.7 0 00-4.2-2.8 34.3 34.3 0 00-19.9 2.1V338l5.8-1.4a91.6 91.6 0 019.9-.9c3.3 0 6.1.3 8.5 1 2.4.6 4.4 1.7 5.9 3 1.6 1.4 2.7 3.1 3.4 5.2.7 2.1 1.1 4.6 1.1 7.5v34.7h-9l-.2-4.3a17 17 0 01-8.8 4.6c-1.5.5-3.3.8-5 .8m2.7-7.5a16.6 16.6 0 009.1-2.7c1-.7 1.8-1.4 2.3-2v-13.7h-3.5c-2.8 0-5.2.2-7.2.5s-3.7.9-5.1 1.7a7.1 7.1 0 00-3 3.2 10 10 0 00-1 4.8c0 1.7.3 3.2 1 4.5a6.5 6.5 0 003 2.9c1.3.5 2.8.8 4.4.8m50.3 7.5a38.2 38.2 0 01-11.1-1.3 22 22 0 01-3.8-1.1c-1.1-.4-2-.7-2.6-1.1l2.5-7.3a41.6 41.6 0 009.2 2.6c1.8.3 3.5.4 5.3.4a18 18 0 006.8-1c1.7-.7 2.8-1.6 3.3-2.7a8 8 0 00.8-3.3c0-1.8-.7-3.2-2-4.2s-3-1.9-5-2.5l-5.5-1.9-5.5-2.1c-1.7-.7-3.2-1.6-4.4-2.7a11 11 0 01-2.9-3.9c-.7-1.5-1-3.4-1-5.6 0-2.4.4-4.5 1.3-6.3.9-1.8 2.1-3.4 3.7-4.6 1.6-1.2 3.5-2.2 5.8-2.8a29 29 0 017.5-1 50.8 50.8 0 0114.7 2v8a42.4 42.4 0 00-14.2-2.3c-3.3 0-5.7.5-7.2 1.6-1.6 1-2.3 2.6-2.3 4.7 0 1.1.3 2 .8 2.7.6.7 1.4 1.4 2.4 2 1 .6 2.3 1.1 3.7 1.6l5 1.6c3.8 1.2 6.8 2.5 9 3.8a11 11 0 014.6 5c.9 2 1.3 4.1 1.3 6.5 0 2.6-.5 4.8-1.4 6.7-.9 1.9-2.3 3.5-4.1 4.8a16.6 16.6 0 01-6.3 2.8 45 45 0 01-8.4.9m45.8 0a38.2 38.2 0 01-11.1-1.3 22 22 0 01-3.8-1.1c-1.1-.4-2-.7-2.6-1.1l2.5-7.3a41.6 41.6 0 009.2 2.6c1.8.3 3.5.4 5.3.4a18 18 0 006.8-1c1.7-.7 2.8-1.6 3.3-2.7a8 8 0 00.8-3.3c0-1.8-.7-3.2-2-4.2s-3-1.9-5-2.5l-5.5-1.9-5.5-2.1c-1.7-.7-3.2-1.6-4.4-2.7a11 11 0 01-2.9-3.9c-.7-1.5-1-3.4-1-5.6 0-2.4.4-4.5 1.3-6.3.9-1.8 2.1-3.4 3.7-4.6 1.6-1.2 3.5-2.2 5.8-2.8a29 29 0 017.5-1 50.8 50.8 0 0114.7 2v8a42.4 42.4 0 00-14.2-2.3c-3.3 0-5.7.5-7.2 1.6-1.6 1-2.3 2.6-2.3 4.7 0 1.1.3 2 .8 2.7.6.7 1.4 1.4 2.4 2 1 .6 2.3 1.1 3.7 1.6l5 1.6c3.8 1.2 6.8 2.5 9 3.8a11 11 0 014.6 5c.9 2 1.3 4.1 1.3 6.5 0 2.6-.5 4.8-1.4 6.7-.9 1.9-2.3 3.5-4.1 4.8a16.6 16.6 0 01-6.3 2.8 45 45 0 01-8.4.9m54.1.2c-3.8 0-7.1-.6-10-1.8-2.9-1.2-5.4-3-7.4-5.3s-3.5-5.1-4.6-8.3a41 41 0 01-.2-21.7c1-3.3 2.4-6.1 4.2-8.4 1.8-2.3 4.1-4.2 6.9-5.4 2.7-1.3 5.9-1.9 9.4-1.9 6.6 0 11.5 2 14.9 6.1 3.3 4.1 5 9.9 5 17.4a99 99 0 01-.2 5.9h-31.5c.4 5.1 1.8 9 4.2 11.7 2.4 2.7 6 4.1 10.7 4.1a44.8 44.8 0 0011.8-1.6l1.9 7.4c-2 .6-4.3 1.1-6.7 1.4-2.4.2-5.2.4-8.4.4M588.4 358h21.9v-2.3c0-4.2-.8-7.4-2.5-9.6-1.6-2.3-4.2-3.4-7.7-3.4-3.7 0-6.5 1.3-8.4 4-1.9 2.7-3 6.4-3.3 11.3"/>
</svg>