<svg xmlns="http://www.w3.org/2000/svg" xml:space="preserve" x="0" y="0" version="1.1" viewBox="0 0 167.6 76.6">
    <g fill="#fff">
        <path d="M23.2 68.2c-5.5 0-7.4-2.7-7.4-6.6V44.2h12.1v-8H15.8V22.3H6.5v13.9H0v8.1h5.9v17.5c0 8.9 5.8 14.8 15.8 14.8 2.8 0 5.4-.5 6.7-1.1l-.3-8.2c-1.5.7-3.1.9-4.9.9zm21-32h-9.9v40h9.9v-40zm28.7-.4c-6 0-10.2 2.5-12.5 6.2l-.4-5.8h-9.5v40h9.9V53.5c0-5.5 3.5-9.1 8.9-9.1 5 0 7.6 3.3 7.6 9v22.8h10V51.1c0-9.2-5.2-15.3-14-15.3zm42 17 14.9-16.6h-11.9l-15 17.3V22.3H93v53.9h9.9V66.1l5.7-6.3L120 76.2h11.3l-16.4-23.4zM44.2 22.3h-9.9v8.8h9.9v-8.8zm90.2-9.9c6.8 0 12.4-5.6 12.4-12.4h9.9c0 12.3-10 22.3-22.3 22.3v-9.9z"/>
        <path d="M167.6 22.3c-6.8 0-12.4 5.6-12.4 12.4s5.5 12.4 12.4 12.4V57c-12.3 0-22.3-10-22.3-22.3s10-22.3 22.3-22.3v9.9z"/>
    </g>
</svg>