<svg xmlns="http://www.w3.org/2000/svg" xml:space="preserve" viewBox="20.1 192 600 260">
    <path d="M20.1 192h600v260h-600z"/>
    <path d="M213.7 358.8c0 2.1-1.5 4.6-3.3 5.6l-63.6 36.8c-1.8 1-4.8 1-6.6 0l-63.6-36.8c-1.8-1-3.3-3.6-3.3-5.6v-73.6c0-2.1 1.5-4.6 3.3-5.6l63.6-36.8c1.8-1 4.8-1 6.6 0l63.6 36.8c1.8 1 3.3 3.6 3.3 5.6v73.6zm353.1-68.3h-56.9v13.6h20.4v58.2h16.1v-58.2h20.4v-13.6zm-258.7 0h-57v13.6h20.4v58.2h16.1v-58.2H308l.1-13.6zm164.8-2.2c-17.9 0-27.9 11.5-27.9 28v46.1h16V316c0-7.2 4.2-12.8 12.1-12.8s12 6.6 12 12.8v46.4H501v-46.1c.2-16.6-10.1-28-28.1-28zm-60.1 2.2v71.8h15.9v-71.8h-15.9zM358.7 319l.5 3.2 15 40.2h6.5l20.4-71.8h-15.7l-9.7 37.7-.6 4.1-.8-4.1-13-37.7h-5.2l-13 37.7-.8 4.1-.5-4.1-9.7-37.7h-15.8l20.4 71.8h6.5l15-40.2.5-3.2"
          style="fill:#fff"/>
    <radialGradient id="a" cx="39.803" cy="728.599" r="1.133"
                    gradientTransform="matrix(67.6428 0 0 -76.3552 -2553.731 55926.504)" gradientUnits="userSpaceOnUse"><stop offset="0" style="stop-color:#fc0"/>
        <stop offset=".092" style="stop-color:#ffc800"/>
        <stop offset=".174" style="stop-color:#ffbd00"/>
        <stop offset=".253" style="stop-color:#ffab00"/>
        <stop offset=".33" style="stop-color:#ff9100"/>
        <stop offset=".405" style="stop-color:#ff7000"/>
        <stop offset=".479" style="stop-color:#ff4700"/>
        <stop offset=".55" style="stop-color:#ff1800"/>
        <stop offset=".582" style="stop-color:red"/>
        <stop offset="1" style="stop-color:red"/></radialGradient>
    <path d="m176.7 322.2-16.6 24.4-8.5-13 9.8-14.7c1.8-2.6 5.7-9.8 1.2-19.6-3.6-8-11.5-11.8-18.5-11.8s-14.5 3.6-18.5 11.8c-4.6 9.5-.6 16.8 1.1 19.3 0 0 5.5 8 10 14.7l7.4 10.7 11.1 17c.1.1 1.8 2.8 4.9 2.8 2.9 0 4.8-2.7 5-2.9l26-38.5h-14.4v-.2zm-32.7.6s-4.3-6.6-7.2-11.2c-3-4.9.3-12.3 7.2-12.3 6.8 0 10.2 7.4 7.2 12.3-2.8 4.6-7.2 11.2-7.2 11.2z"
          style="fill:url(#a)"/>
    <radialGradient id="b" cx="43.536" cy="728.562" r="1.392"
                    gradientTransform="matrix(50.4872 0 0 -76.4434 -2105.605 55992.379)" gradientUnits="userSpaceOnUse"><stop offset="0" style="stop-color:#00b4e6"/>
        <stop offset=".201" style="stop-color:#00b0e3"/>
        <stop offset=".39" style="stop-color:#01a5db"/>
        <stop offset=".574" style="stop-color:#0292cd"/>
        <stop offset=".755" style="stop-color:#0377ba"/>
        <stop offset=".932" style="stop-color:#0455a1"/>
        <stop offset="1" style="stop-color:#054696"/></radialGradient>
    <path d="m128.1 345.8-16.3-22.9s-4.3-6.6-7.2-11.2c-3-4.9.3-12.3 7.2-12.3.9 0 1.6.1 2.4.3l5.7-10.5c-2.6-1.1-5.5-1.7-8.1-1.7-6.9 0-14.5 3.6-18.5 11.8-4.6 9.5-.6 16.8 1.1 19.3l28.5 42.3c.3.3 2.1 3 5.1 3 3 0 4.8-2.6 5-2.9l8.6-13.1-7.4-10.8-6.1 8.7z"
          style="fill:url(#b)"/></svg>