<svg xmlns="http://www.w3.org/2000/svg" viewBox="0 0 380 240">
    <path d="M350 0H30C13 0 0 13 0 30v180a30.085 30.085 0 0030 30h320c17 0 30-13 30-30V30a30.085 30.085 0 00-30-30z" style="isolation:isolate" opacity=".07" />
    <path fill="#fff" d="M350 10a20.059 20.059 0 0120 20v180a20.059 20.059 0 01-20 20H30a20.059 20.059 0 01-20-20V30a20.059 20.059 0 0120-20h320" />
    <path fill="#e21836" d="M119.042 40h63.778c8.903 0 14.44 7.257 12.364 16.19L165.49 183.675c-2.095 8.902-11.01 16.165-19.918 16.165H81.799c-8.89 0-14.44-7.263-12.363-16.165L99.142 56.19c2.077-8.933 10.986-16.19 19.9-16.19" />
    <path fill="#00447c" d="M177.513 40h73.344c8.901 0 4.887 7.257 2.794 16.19l-29.69 127.485c-2.082 8.902-1.433 16.165-10.353 16.165h-73.343c-8.92 0-14.44-7.263-12.345-16.165L157.607 56.19C159.715 47.257 168.606 40 177.513 40" />
    <path fill="#007b84" d="M247.948 40h63.778c8.916 0 14.453 7.257 12.36 16.19l-29.69 127.485c-2.095 8.902-11.015 16.165-19.93 16.165h-63.748c-8.92 0-14.453-7.263-12.363-16.165L228.048 56.19c2.077-8.933 10.98-16.19 19.9-16.19" />
    <path fill="#fefefe" d="M135.698 80.856c-6.558.067-8.495 0-9.114-.146-.238 1.13-4.664 21.546-4.676 21.563-.953 4.13-1.646 7.075-4.002 8.976a7.13 7.13 0 01-4.707 1.639c-2.908 0-4.603-1.444-4.887-4.184l-.055-.94s.886-5.533.886-5.564c0 0 4.645-18.605 5.477-21.064a1.791 1.791 0 00.067-.28c-9.041.08-10.644 0-10.754-.146-.061.2-.285 1.354-.285 1.354l-4.743 20.97-.407 1.778-.788 5.817a8.559 8.559 0 001.013 4.325c2.161 3.776 8.325 4.342 11.812 4.342 4.492 0 8.707-.955 11.555-2.698 4.943-2.92 6.237-7.486 7.39-11.544l.535-2.081s4.785-19.323 5.598-21.837a.878.878 0 01.085-.28zm16.28 15.588a12.638 12.638 0 00-5.154 1.208c-.687.353-1.337.76-2.023 1.166l.619-2.234-.339-.376c-4.015.813-4.914.922-8.623 1.444l-.31.207a109.714 109.714 0 01-2.41 13.274 833.27 833.27 0 01-1.872 7.78l.17.327c3.802-.2 4.955-.2 8.259-.146l.267-.29c.42-2.15.474-2.654 1.404-7.009.437-2.064 1.348-6.6 1.797-8.215a6.158 6.158 0 012.417-.759c1.852 0 1.626 1.615 1.555 2.259-.08 1.08-.754 4.609-1.446 7.639l-.462 1.955c-.321 1.445-.674 2.848-.996 4.28l.14.286c3.746-.2 4.889-.2 8.088-.146l.376-.29c.579-3.358.748-4.257 1.774-9.146l.516-2.246c1.003-4.397 1.507-6.626.748-8.442-.802-2.035-2.727-2.526-4.494-2.526zm18.188 4.603c-1.992.383-3.262.637-4.524.802-1.251.2-2.472.383-4.396.65l-.153.138-.14.11c-.2 1.434-.34 2.673-.606 4.13-.225 1.506-.572 3.218-1.136 5.677a22.303 22.303 0 01-.911 3.2 27.676 27.676 0 00-1.001 3.158l.115.171.096.157c1.799-.085 2.975-.146 4.185-.157 1.208-.043 2.46 0 4.396.01l.17-.137.181-.153c.28-1.67.322-2.119.493-2.933.17-.874.462-2.083 1.179-5.314.339-1.517.716-3.03 1.068-4.578.365-1.542.747-3.06 1.111-4.578l-.054-.183zm.042-6.206c-1.81-1.068-4.985-.729-7.123.746-2.131 1.446-2.374 3.498-.57 4.58 1.778 1.038 4.966.729 7.085-.759 2.127-1.477 2.393-3.51.608-4.567zm10.943 24.734a13.598 13.598 0 0010.239-4.003 18.136 18.136 0 003.515-7.529c1.123-4.931.248-7.233-.85-8.635-1.67-2.138-4.621-2.824-7.682-2.824-1.84 0-6.224.182-9.649 3.34a15.816 15.816 0 00-4.281 8.33c-.692 3.02-1.488 8.454 3.51 10.477a14.637 14.637 0 005.198.844zm-.286-11.095c.845-3.734 1.841-6.868 4.384-6.868 1.993 0 2.138 2.332 1.252 6.078-.159.832-.886 3.924-1.87 5.24a3.088 3.088 0 01-2.4 1.561c-.267 0-1.857 0-1.882-2.361a16.08 16.08 0 01.516-3.65zm23.191 10.615l.286-.291c.406-2.15.473-2.655 1.371-7.008.45-2.065 1.38-6.6 1.816-8.216a6.075 6.075 0 012.43-.76c1.839 0 1.615 1.615 1.542 2.259a73.428 73.428 0 01-1.446 7.639l-.437 1.955c-.334 1.446-.698 2.848-1.02 4.282l.14.286c3.76-.2 4.858-.2 8.076-.147l.389-.29c.564-3.36.717-4.258 1.774-9.146l.503-2.248c1.008-4.396 1.518-6.623.771-8.44-.825-2.034-2.762-2.525-4.505-2.525a12.576 12.576 0 00-5.156 1.208c-.673.352-1.348.758-2.01 1.165l.577-2.233-.31-.378c-4.014.814-4.93.923-8.635 1.446l-.285.206a113.795 113.795 0 01-2.41 13.275 885.208 885.208 0 01-1.87 7.779l.169.328c3.807-.2 4.943-.2 8.24-.146zm27.618.145c.236-1.154 1.64-7.99 1.652-7.99 0 0 1.196-5.017 1.269-5.199a2.97 2.97 0 01.752-.729h.553c5.222 0 11.119 0 15.74-3.4a16.776 16.776 0 006.254-9.96 15.053 15.053 0 00.432-3.466 7.287 7.287 0 00-1.251-4.428c-2.357-3.297-7.05-3.358-12.468-3.383l-2.67.025c-6.935.086-9.716.061-10.859-.079-.096.505-.278 1.404-.278 1.404s-2.484 11.513-2.484 11.531l-6.225 25.632c6.055-.073 8.538-.073 9.583.042zm4.603-20.452s2.64-11.49 2.628-11.446l.086-.59.037-.448 1.056.108s5.447.468 5.574.48c2.15.832 3.036 2.976 2.418 5.774a8.398 8.398 0 01-4.355 5.746 13.758 13.758 0 01-6.12.953h-1.433zm16.444 9.905c-.698 2.975-1.5 8.41 3.473 10.347a9.705 9.705 0 004.45.802 7.347 7.347 0 004.248-1.948l-.355 1.359.226.29c3.577-.15 4.687-.15 8.562-.12l.352-.268c.565-3.327 1.099-6.557 2.57-12.922.716-3.048 1.431-6.067 2.166-9.103l-.115-.334c-4.001.741-5.07.9-8.92 1.445l-.292.238c-.039.31-.08.607-.117.904a5.5 5.5 0 00-2.804-2.307c-1.712-.674-5.732.194-9.187 3.34a15.602 15.602 0 00-4.257 8.277zm8.404.182c.857-3.668 1.84-6.77 4.39-6.77 1.612 0 2.461 1.487 2.289 4.024-.137.633-.285 1.3-.46 2.054-.256 1.09-.532 2.17-.801 3.252a7.886 7.886 0 01-.942 1.903 4.405 4.405 0 01-3.116 1.506c-.255 0-1.828 0-1.882-2.32a15.938 15.938 0 01.522-3.65zm43.886-12.109l-.31-.353c-3.959.802-4.676.93-8.313 1.421l-.268.267c-.012.044-.023.11-.042.171l-.012-.06c-2.708 6.247-2.629 4.9-4.833 9.818-.013-.224-.013-.363-.025-.601l-.552-10.663-.346-.353c-4.148.802-4.246.93-8.076 1.421l-.299.267a2.894 2.894 0 00-.067.42l.025.055a53.806 53.806 0 01.844 5.762c.224 1.895.523 3.801.746 5.673.378 3.132.59 4.674 1.051 9.455-2.586 4.268-3.199 5.884-5.69 9.63l.018.037-1.754 2.774a1.328 1.328 0 01-.637.578 2.647 2.647 0 01-1.149.163h-.972l-1.444 4.804 4.955.085a6.108 6.108 0 005.72-3.2l3.116-5.339h-.05l.328-.376c2.096-4.511 18.036-31.856 18.036-31.856zm-52.29 63.088h-2.102l7.78-25.73h2.58l.82-2.65.078 2.947c-.096 1.822 1.337 3.437 5.102 3.17h4.355l1.498-4.954h-1.638c-.942 0-1.38-.238-1.325-.748l-.079-2.999h-8.063v.016c-2.607.054-10.393.25-11.969.67a14.09 14.09 0 00-3.917 1.937l.79-2.654h-7.543l-1.572 5.265-7.883 26.123h-1.53l-1.5 4.919h15.023l-.503 1.64h7.402l.492-1.64h2.076zm-6.164-20.502a33.71 33.71 0 00-3.455 1.348l1.999-6.576h5.992l-1.445 4.791a19.48 19.48 0 00-3.09.437zm.115 9.394s-1.882.237-3.121.516a30.539 30.539 0 00-3.509 1.536l2.065-6.843h6.023zm-3.358 11.168h-6.011l1.743-5.775h5.992zm14.477-15.959h8.665l-1.245 4.033h-8.78l-1.318 4.408h7.682l-5.817 8.191a2.396 2.396 0 01-1.178.984 3.452 3.452 0 01-1.56.45h-2.132l-1.464 4.828h5.574a6.777 6.777 0 005.873-3.048l3.99-5.46.856 5.544a2.606 2.606 0 001.433 1.882 5.163 5.163 0 001.95.832c.873.037 1.504.067 1.924.067h2.74l1.644-5.404h-1.08a4.516 4.516 0 01-1.87-.298 2.935 2.935 0 01-.28-1.154l-.87-5.556h-3.558l1.561-1.858h8.763l1.348-4.408h-8.113l1.263-4.033h8.089l1.5-4.973h-24.114zm-73.185 17.082l2.022-6.728h8.313l1.518-5.004h-8.32l1.27-4.141h8.13l1.507-4.846h-20.343l-1.475 4.846h4.622l-1.233 4.14h-4.634l-1.536 5.09h4.62l-2.696 8.902a2.124 2.124 0 00.51 2.175 2.226 2.226 0 001.488 1.086 8.959 8.959 0 002.131.291h9.371l1.67-5.544-4.154.571c-.802 0-3.024-.096-2.781-.838zm.953-32.208l-2.106 3.807a4.418 4.418 0 01-1.222 1.585 4.045 4.045 0 01-1.883.285h-1.099l-1.469 4.87h3.65a8.274 8.274 0 003.747-.965c.692-.37.874-.159 1.408-.675l1.233-1.068h11.398l1.513-5.07h-8.344l1.457-2.77zm16.827 32.306c-.194-.28-.054-.773.243-1.799l3.115-10.311h11.083c1.615-.023 2.78-.042 3.54-.096a7.241 7.241 0 002.665-.899 4.987 4.987 0 001.937-1.786 15.217 15.217 0 001.914-4.336l3.916-13.049-11.5.067a36.446 36.446 0 00-5.101 1.1 20.85 20.85 0 00-3.821 2.44l1.038-3.577h-7.104l-9.946 32.986a20.347 20.347 0 00-.644 2.768c-.018.602.759 1.197 1.263 1.647a4.53 4.53 0 002.319.449c.888.067 2.15.109 3.893.109h5.46l1.675-5.659-4.887.462a1.285 1.285 0 01-1.058-.516zm5.368-19.074h11.64l-.74 2.319a8.385 8.385 0 00-1.537.025h-10.08zm2.332-7.78h11.738l-.844 2.794s-5.532-.054-6.418.109a13.094 13.094 0 00-6.177 2.758zm8.83 17.866a1.242 1.242 0 01-.462.717 2.301 2.301 0 01-1.19.206h-1.658l.098-2.824h-6.9l-.28 13.809c-.01.996.086 1.573.815 2.035.73.576 2.976.65 6 .65h4.322l1.561-5.17-3.763.207-1.252.073a1.431 1.431 0 01-.516-.321c-.158-.157-.426-.061-.382-1.057l.03-3.54 3.946-.163a5.114 5.114 0 003.82-1.354 4.23 4.23 0 001.264-2.345l.662-3.134h-5.424z" />
</svg>