<svg xmlns="http://www.w3.org/2000/svg" viewBox="-6318 -51 246.2 42">
  <path fill="#fff" d="M-6318-50.8h59.4V-9h-59.4z"/>
  <path fill="#f60" d="M-6258.6-16.4h-22.5l-1.4 7.4h24zm-59.4 0V-9h24l-1.7-7.4z"/>
  <path fill="#0066b3" d="M-6306.3-33.7l-1.8-7.6h14.8l4.9 21.7h.2l3-13.8c1.5-6.4 2-8 10.6-8h6.2l-2.8 12.3c-.6 2.5-5.7 2.2-5.5 0l.5-3.2c.3-1.8-1.7-2-2-.3l-2.5 13h22.1v-31.2h-59.4v31.3h21.6l-3-14.2zM-6242.3-49.8h-3.2l5 15.4h3.7l5-15.4h-2.9l-2.6 8.6a138.3 138.3 0 00-1.2 4l-.6-2-.6-2.1-2.6-8.5zm16 3.8a6.2 6.2 0 00-3 .8 6.6 6.6 0 00-1 .8 6.1 6.1 0 00-1.7 4.3 5.7 5.7 0 003.7 5.6 6.1 6.1 0 002 .3 6.3 6.3 0 002.3-.4 5.5 5.5 0 003.4-5.5 6.4 6.4 0 00-.2-1.5 5.5 5.5 0 00-3-3.9 5.7 5.7 0 00-2.5-.5zm0 2.2a2.3 2.3 0 011.8.7 4 4 0 01.9 2.9 4.1 4.1 0 01-1 3.2 2.2 2.2 0 01-1.6.6 2 2 0 01-1.1-.2 2.2 2.2 0 01-.8-.7 4.6 4.6 0 01-.8-2.8 4 4 0 011-3 2.5 2.5 0 01.8-.5 2 2 0 01.9-.2zm8.1-7.2v16.6h2.9V-51zm8.8 0h-2.8v16.6h2.8V-40l1.3 2.2 2.4 3.4h3.5l-4.6-6.3 4.1-5h-3.3l-2.4 3.1-1 1.4V-51zm15.1 5.5a12.4 12.4 0 00-2.8-.4 5.1 5.1 0 00-3.5 1.2 3 3 0 00-1 2.3 3.1 3.1 0 00.8 2 6.3 6.3 0 002.9 1.5c.5.2 1.3.5 1.3 1.2s-.8 1.3-2 1.3a6 6 0 01-2.7-.7l-.1 2.4a11.2 11.2 0 003.2.5 7.3 7.3 0 002-.3 4 4 0 001.8-1.3 3.1 3.1 0 00.6-2 3.2 3.2 0 00-1.7-3l-1.5-.5a4.7 4.7 0 01-1.5-.7.7.7 0 01-.2-.6c0-.7.8-1.2 2-1.2a8.7 8.7 0 012.3.5l.1-2.2zm2.8-5.5v16.6h2.8V-36a5.2 5.2 0 00.4.7 3.6 3.6 0 003 1.2 4.9 4.9 0 001.8-.4 2.8 2.8 0 001-.6 6.5 6.5 0 001.7-5 8.5 8.5 0 00-.3-2.4 4 4 0 00-4.2-3.3 3.6 3.6 0 00-2.8 1.2 3.8 3.8 0 00-.6.7v-7zm5.5 7.4a2 2 0 011.5.7 2.2 2.2 0 01.4.7 5.2 5.2 0 01.4 2.1 4.3 4.3 0 01-1 3 2 2 0 01-1.4.6 1.8 1.8 0 01-1.6-.7 2.2 2.2 0 01-.5-.8 4.4 4.4 0 01-.4-2c0-1 .2-2.7 1.7-3.4a2.8 2.8 0 01.9-.2zm16.8 9.2l-.1-3.7v-2.7a9.2 9.2 0 00-.3-2.7 3.7 3.7 0 00-.9-1.4 5.2 5.2 0 00-3.5-1 9.2 9.2 0 00-3.7.7v2.6a4 4 0 011.2-.7 5.1 5.1 0 012.2-.5h.2a2 2 0 011.8.8 3.3 3.3 0 01.4 1.6h-1.6c-2.2 0-3.6.4-4.5 1.3a3.5 3.5 0 002.6 6 4.4 4.4 0 002.5-.7 3 3 0 001.2-1.2v1.6h2.5zm-2.6-5.1v.8a2.6 2.6 0 01-2.7 2.5 1.5 1.5 0 01-1.6-1.5 1.3 1.3 0 010-.7c.6-1 1.7-1.1 3.2-1.1a8.6 8.6 0 011.1 0zm15.7 5.1v-5.8c0-2 0-3.3-.7-4.2a3 3 0 00-1-1 3.9 3.9 0 00-2-.5 4 4 0 00-2.4.6 4.1 4.1 0 00-1 .8l-.4.5v-1.7h-2.7v11.3h2.9v-5.3c0-1.3 0-2.5 1.1-3.3a1.8 1.8 0 011.4-.5 2.5 2.5 0 01.8.1 2.1 2.1 0 01.9.8 5.9 5.9 0 01.3 2.7v5.5zm5.9-16.6h-2.9v16.6h2.9V-40l1.3 2.2 2.4 3.4h3.5l-4.5-6.3 4-5h-3.3l-2.4 3.1-1 1.4V-51zm18.2 12a10.5 10.5 0 000-1.2c0-3-1.4-5.8-5-5.8a4.9 4.9 0 00-4 1.9 5.8 5.8 0 00-.3.5l-.3.7a7.3 7.3 0 00-.6 3c0 3 1.6 4.7 3.3 5.4a6.8 6.8 0 002.4.4 8.6 8.6 0 003.8-.9v-2.5a6.3 6.3 0 01-.9.5 5.3 5.3 0 01-2.6.6 3.2 3.2 0 01-2.8-1.5 3.4 3.4 0 01-.4-1.1zm-7.4-2.1a3.5 3.5 0 01.4-1.7 2.4 2.4 0 012-1.1 2 2 0 011.9 1 3.3 3.3 0 01.5 1.8zm20 6.7v-5.8c0-2 0-3.3-.7-4.2a4.4 4.4 0 00-1-1 4 4 0 00-2.1-.5 4 4 0 00-2.3.6 3.5 3.5 0 00-1 .8l-.5.5v-1.7h-2.7l.1 2.7v8.6h2.8v-5.3c0-1.3.1-2.5 1.2-3.3a2 2 0 011.4-.5 2.9 2.9 0 01.8.1 1.8 1.8 0 01.8.8 5.9 5.9 0 01.4 2.7v5.5zm-115.2 18.6c-.2-.6-.6-1.6-1.4-1.9a6.2 6.2 0 00-.5 0 4 4 0 001.3-.4 1.3 1.3 0 00.5-.3 3.5 3.5 0 001.4-3 4.4 4.4 0 00-.5-2 2.7 2.7 0 00-.5-.6c-1.2-1.4-3.3-1.4-4.6-1.4h-4.6V-10h3v-6.4a13.4 13.4 0 011.6 0 3.7 3.7 0 01.6.3 5.4 5.4 0 011.2 2.2l1.5 3.9h3.2l-2.2-5.8zm-5.9-7.2h1.9a2.1 2.1 0 011.8.8 2 2 0 01.4 1.2 2.4 2.4 0 01-.4 1.2 2.5 2.5 0 01-2.4 1h-1.3V-23zm19.2 13l-.1-3.8v-2.7a9.2 9.2 0 00-.3-2.7 3.7 3.7 0 00-.9-1.4 5.2 5.2 0 00-3.5-1 9.2 9.2 0 00-3.7.7v2.6a4 4 0 011.2-.7 5.1 5.1 0 012.2-.6h.2a2 2 0 011.8.9 3.3 3.3 0 01.4 1.6h-1.6c-2.2 0-3.6.4-4.5 1.3a3.5 3.5 0 002.6 6 4.4 4.4 0 002.5-.7 3 3 0 001.2-1.2v1.6zm-2.6-5.2v.8a2.6 2.6 0 01-2.7 2.5 1.6 1.6 0 01-1.7-1.5 1.4 1.4 0 01.2-.7c.5-1 1.6-1.1 3.1-1.1a8.6 8.6 0 011.1 0zm5.5-11v2.7h2.8v-2.8zm0 4.7V-10h2.8v-11.3zm12.2-5a9 9 0 00-1.5-.2 4.4 4.4 0 00-2 .4 3 3 0 00-1.6 2 10.5 10.5 0 00-.3 2.9h-2.2v2.2h2.2v9.1h2.8v-9.1h2.5v-2.2h-2.5c0-1.2 0-2 .6-2.5a1.5 1.5 0 011-.4 5.6 5.6 0 01.9.1l.1-2.3zm8.5 0a9 9 0 00-1.5-.2 4.4 4.4 0 00-2 .4 3 3 0 00-1.6 2 10.5 10.5 0 00-.4 2.9h-2v2.2h2v9.1h2.9v-9.1h2.4v-2.2h-2.4c0-1.2 0-2 .5-2.5a1.5 1.5 0 011.1-.4 5.6 5.6 0 01.8.1l.2-2.3zm11.2 11.8V-16c0-3-1.4-5.8-5-5.8a4.8 4.8 0 00-4 1.9 1.6 1.6 0 00-.3.5l-.4.7a7.3 7.3 0 00-.6 3c0 3 1.6 4.7 3.3 5.3a6.8 6.8 0 002.5.5 8.3 8.3 0 003.7-.9v-2.5l-.8.5a5.8 5.8 0 01-2.6.6 3.2 3.2 0 01-3-1.5 5.2 5.2 0 01-.3-1.1zm-7.5-2.1a4.5 4.5 0 01.5-1.7 2.4 2.4 0 012-1.1 2 2 0 011.8 1 3.3 3.3 0 01.6 1.8zm9.8-9.5v2.8h2.9v-2.8zm0 4.8V-10h2.9v-11.3zm12.4.3a10.5 10.5 0 00-2.9-.4 5.3 5.3 0 00-3.5 1.2 3.3 3.3 0 00-.9 2.3 3 3 0 00.8 2 5.9 5.9 0 002.8 1.5c.5.2 1.4.5 1.4 1.2s-.8 1.3-2 1.3a6.3 6.3 0 01-2.7-.7l-.2 2.4a11 11 0 003.2.5 6.9 6.9 0 002-.3 3.8 3.8 0 001.9-1.3 3.1 3.1 0 00.6-2 3.3 3.3 0 00-1.8-3l-1.5-.5a8.3 8.3 0 01-1.4-.7 1.1 1.1 0 01-.3-.6c0-.8.8-1.2 2-1.2a8.1 8.1 0 012.3.4l.2-2zm12.3 6.5a10.5 10.5 0 000-1.2c0-3-1.3-5.8-4.8-5.8a4.9 4.9 0 00-4 1.9 5.7 5.7 0 00-.4.5l-.4.7a7.3 7.3 0 00-.5 3c0 3 1.5 4.7 3.3 5.3a6.7 6.7 0 002.4.5 8.6 8.6 0 003.8-.9v-2.5l-1 .5a5.8 5.8 0 01-2.5.6 3.1 3.1 0 01-2.9-1.5 3.4 3.4 0 01-.4-1.1zm-7.4-2.1a3.5 3.5 0 01.5-1.7 2.4 2.4 0 012-1.1 2 2 0 011.8 1 3.3 3.3 0 01.6 1.8zm20 6.7v-5.8c0-2 0-3.3-.6-4.2a4.4 4.4 0 00-1-1 4 4 0 00-2.1-.5 4.4 4.4 0 00-2.3.6 3.5 3.5 0 00-1 .8l-.5.5v-1.8h-2.7V-10h2.9v-5.3c0-1.3 0-2.5 1-3.3a2 2 0 011.5-.5 1.8 1.8 0 01.9.2 1.5 1.5 0 01.8.7 5.9 5.9 0 01.3 2.7v5.5zm3.1-16.6V-10h2.7v-1.8l.4.7a3.5 3.5 0 003 1.2 4.7 4.7 0 001.9-.3 4.2 4.2 0 00.8-.7 6.6 6.6 0 001.9-5 6.9 6.9 0 00-.4-2.4 4 4 0 00-4.1-3.3 3.8 3.8 0 00-3 1.2l-.4.7v-7h-2.8zm5.4 7.4a2.2 2.2 0 011.5.7 3.5 3.5 0 01.4.7 5.2 5.2 0 01.4 2 4.3 4.3 0 01-1 3.2 2.2 2.2 0 01-3-.2 2.9 2.9 0 01-.5-.8 4.4 4.4 0 01-.4-2c0-1 .3-2.7 1.7-3.4a3 3 0 011-.2zm16.8 9.2v-6.4a8 8 0 00-.4-2.7 3.7 3.7 0 00-.9-1.4 5.1 5.1 0 00-3.5-1 9 9 0 00-3.7.7v2.6a6.1 6.1 0 011.2-.7 5.5 5.5 0 012.2-.6h.3a2.1 2.1 0 011.8.9 3.3 3.3 0 01.4 1.6h-1.6c-2.2 0-3.7.4-4.6 1.3a3.2 3.2 0 00-1 2.4c0 1.4.6 3.5 3.7 3.5a4.4 4.4 0 002.4-.6 3.4 3.4 0 001.2-1.2v1.6zm-2.6-5.1a7.8 7.8 0 010 .8 2.7 2.7 0 01-2.6 2.5 1.6 1.6 0 01-1.7-1.5 1.4 1.4 0 01.1-.7c.5-1 1.6-1.1 3.2-1.1a8.2 8.2 0 011 0zm15.8 5.1v-5.8c0-2 0-3.3-.7-4.2a3 3 0 00-1-1 3.9 3.9 0 00-2.1-.5 4.2 4.2 0 00-2.3.6 3 3 0 00-1 .8 4 4 0 00-.5.5v-1.8h-2.7V-10h2.9v-5.3c0-1.3.1-2.5 1-3.3a2 2 0 011.5-.5 1.6 1.6 0 01.9.2 1.5 1.5 0 01.8.7 6.4 6.4 0 01.4 2.7v5.5zm5.8-16.6h-2.8V-10h2.8v-5.7l1.4 2.2 2.4 3.5h3.5l-4.6-6.4 4-5h-3.2l-2.5 3.2c-.4.5-.7.8-1 1.4v-9.9zm18.2 12V-16c0-3-1.3-5.8-4.9-5.8a4.8 4.8 0 00-4 1.9 2.5 2.5 0 00-.4.5l-.3.7a8.3 8.3 0 00-.5 3c0 3 1.5 4.7 3.2 5.3a7 7 0 002.5.5 8.2 8.2 0 003.7-.9v-2.5l-.8.5a5.8 5.8 0 01-2.6.6 3.2 3.2 0 01-3-1.5 5.2 5.2 0 01-.3-1.1zm-7.5-2.1a4.5 4.5 0 01.6-1.7 2.4 2.4 0 012-1.1 2.1 2.1 0 011.8 1 3.7 3.7 0 01.5 1.8zm20.1 6.7v-5.8c0-2 0-3.3-.7-4.2a3 3 0 00-1-1 3.9 3.9 0 00-2-.5 4.4 4.4 0 00-2.4.6 4.1 4.1 0 00-1 .8l-.4.5v-1.8h-2.8V-10h3v-5.3c0-1.3 0-2.5 1-3.3a1.8 1.8 0 011.5-.5 1.6 1.6 0 01.8.2 1.8 1.8 0 01.9.7 5.9 5.9 0 01.3 2.7v5.5z"/>
</svg>